<svg xmlns="http://www.w3.org/2000/svg" viewBox="0.0 0.0 719.0 937.0" width="719" height="937.0">
  <path d="M 33 0 L 33 3 L 31 5 L 32 6 L 32 8 L 31 9 L 30 9 L 30 10 L 31 11 L 30 12 L 29 12 L 27 10 L 26 10 L 27 11 L 27 12 L 26 13 L 25 13 L 25 14 L 24 15 L 23 15 L 20 18 L 19 18 L 18 17 L 18 16 L 20 14 L 21 14 L 21 13 L 22 12 L 19 9 L 19 7 L 18 7 L 17 6 L 17 5 L 16 4 L 16 2 L 17 1 L 16 1 L 16 3 L 15 4 L 15 6 L 14 7 L 12 7 L 12 9 L 11 10 L 9 10 L 10 11 L 8 13 L 7 13 L 6 12 L 6 11 L 5 11 L 5 13 L 4 14 L 0 10 L 0 9 L 0 437 L 546 437 L 547 436 L 719 436 L 719 99 L 718 98 L 719 97 L 718 97 L 718 98 L 717 99 L 716 98 L 716 93 L 716 94 L 715 95 L 715 98 L 714 99 L 713 99 L 712 98 L 712 94 L 710 96 L 710 97 L 708 99 L 707 99 L 706 98 L 706 97 L 705 97 L 704 96 L 704 95 L 704 97 L 703 98 L 702 97 L 702 96 L 701 95 L 701 94 L 699 92 L 699 90 L 700 89 L 699 90 L 695 90 L 694 91 L 691 91 L 690 92 L 690 93 L 689 94 L 690 94 L 691 95 L 690 96 L 685 96 L 684 95 L 684 92 L 684 95 L 683 96 L 680 96 L 677 99 L 676 98 L 676 97 L 677 96 L 677 95 L 675 97 L 672 97 L 670 99 L 669 99 L 668 98 L 668 96 L 667 96 L 668 97 L 668 98 L 669 99 L 669 102 L 670 103 L 670 104 L 669 105 L 667 103 L 666 103 L 665 104 L 663 104 L 662 105 L 663 105 L 664 104 L 665 105 L 665 108 L 664 109 L 661 109 L 661 110 L 660 111 L 657 111 L 656 110 L 656 109 L 655 109 L 656 110 L 655 111 L 654 111 L 653 110 L 653 109 L 653 110 L 652 111 L 651 111 L 650 110 L 650 111 L 652 111 L 654 113 L 654 120 L 653 121 L 652 121 L 651 120 L 652 119 L 652 115 L 652 116 L 651 117 L 651 123 L 650 124 L 649 124 L 648 123 L 648 121 L 649 120 L 648 121 L 648 123 L 647 124 L 646 124 L 645 123 L 645 118 L 644 118 L 644 119 L 643 120 L 643 121 L 642 122 L 642 123 L 641 124 L 641 125 L 640 126 L 640 127 L 639 128 L 638 128 L 637 127 L 637 126 L 638 125 L 638 122 L 639 121 L 639 115 L 640 114 L 640 111 L 639 112 L 639 114 L 638 115 L 638 116 L 637 117 L 637 118 L 635 120 L 634 120 L 634 121 L 633 122 L 632 121 L 632 120 L 630 122 L 629 122 L 628 121 L 628 117 L 627 117 L 626 118 L 626 119 L 625 120 L 624 119 L 624 117 L 625 116 L 625 114 L 624 114 L 622 116 L 622 117 L 619 120 L 619 121 L 618 122 L 617 122 L 616 123 L 615 123 L 613 121 L 612 121 L 610 119 L 610 116 L 611 115 L 612 116 L 613 115 L 614 115 L 616 113 L 615 112 L 616 111 L 614 111 L 613 110 L 613 111 L 612 112 L 611 112 L 610 111 L 606 111 L 605 110 L 605 108 L 604 107 L 604 106 L 605 105 L 606 106 L 606 105 L 605 105 L 603 107 L 601 107 L 600 106 L 601 105 L 602 105 L 604 103 L 605 103 L 603 103 L 601 105 L 600 104 L 600 102 L 602 100 L 602 99 L 600 97 L 600 96 L 599 95 L 598 96 L 599 97 L 598 98 L 597 98 L 596 99 L 594 97 L 594 96 L 593 96 L 592 95 L 592 94 L 592 97 L 591 98 L 592 99 L 592 100 L 591 101 L 590 101 L 589 100 L 589 99 L 588 100 L 588 103 L 589 104 L 587 106 L 586 105 L 585 106 L 584 105 L 584 104 L 583 104 L 582 105 L 581 104 L 579 104 L 578 103 L 579 102 L 576 99 L 575 99 L 574 98 L 575 97 L 575 95 L 574 94 L 575 93 L 575 92 L 574 93 L 573 93 L 572 92 L 572 91 L 573 90 L 574 90 L 574 89 L 573 90 L 572 90 L 571 91 L 570 90 L 570 89 L 571 88 L 571 86 L 570 85 L 570 84 L 568 82 L 568 80 L 568 81 L 567 82 L 567 83 L 566 84 L 565 84 L 563 82 L 563 81 L 562 80 L 562 79 L 561 80 L 561 83 L 560 84 L 559 83 L 560 84 L 560 85 L 559 86 L 558 85 L 557 85 L 557 89 L 556 90 L 555 89 L 554 89 L 553 88 L 552 88 L 550 86 L 550 82 L 551 81 L 551 80 L 550 79 L 550 77 L 548 77 L 547 76 L 547 75 L 548 74 L 547 74 L 546 73 L 546 71 L 545 70 L 545 69 L 544 68 L 545 67 L 544 66 L 544 65 L 542 65 L 541 66 L 540 65 L 540 64 L 539 63 L 538 64 L 534 60 L 534 58 L 534 59 L 533 60 L 533 61 L 534 62 L 534 63 L 533 64 L 532 63 L 532 64 L 533 65 L 532 66 L 530 66 L 529 65 L 530 64 L 529 65 L 530 66 L 530 70 L 529 71 L 528 71 L 527 70 L 527 69 L 525 69 L 524 68 L 524 64 L 523 63 L 525 61 L 523 61 L 522 62 L 521 61 L 521 60 L 522 59 L 523 59 L 523 58 L 522 58 L 520 60 L 519 59 L 519 58 L 521 56 L 521 55 L 519 53 L 519 52 L 517 50 L 517 49 L 516 50 L 516 52 L 515 53 L 516 54 L 515 55 L 514 55 L 513 54 L 512 54 L 511 53 L 511 52 L 507 48 L 507 46 L 508 45 L 508 42 L 507 41 L 507 40 L 506 40 L 505 39 L 505 37 L 503 35 L 503 34 L 502 34 L 501 33 L 501 30 L 500 29 L 500 30 L 499 31 L 499 33 L 495 37 L 495 42 L 492 45 L 490 43 L 491 42 L 490 41 L 490 40 L 489 39 L 488 40 L 487 39 L 487 38 L 488 37 L 486 35 L 486 34 L 485 34 L 484 33 L 484 30 L 483 29 L 483 28 L 483 29 L 482 30 L 482 33 L 480 35 L 479 35 L 478 36 L 478 37 L 477 38 L 476 37 L 476 36 L 475 36 L 473 34 L 473 30 L 473 33 L 472 34 L 472 35 L 466 41 L 466 42 L 467 41 L 468 42 L 468 45 L 466 47 L 466 49 L 465 50 L 463 50 L 464 51 L 464 52 L 462 54 L 462 55 L 464 57 L 463 58 L 462 58 L 461 57 L 462 58 L 461 59 L 460 59 L 458 61 L 457 61 L 456 60 L 456 59 L 455 58 L 456 57 L 455 56 L 455 57 L 454 58 L 453 57 L 453 53 L 452 53 L 451 52 L 451 51 L 450 50 L 450 49 L 449 48 L 449 45 L 448 46 L 448 49 L 447 50 L 446 50 L 445 51 L 443 49 L 443 47 L 442 46 L 441 47 L 441 50 L 440 51 L 439 51 L 439 52 L 438 53 L 437 53 L 437 54 L 436 55 L 436 56 L 437 57 L 437 58 L 436 59 L 437 60 L 435 62 L 435 63 L 434 64 L 433 64 L 432 63 L 433 64 L 433 66 L 431 68 L 432 68 L 433 69 L 433 70 L 432 71 L 433 72 L 431 74 L 432 75 L 430 77 L 429 77 L 428 78 L 426 78 L 425 77 L 425 76 L 426 75 L 425 74 L 425 73 L 426 72 L 426 70 L 425 69 L 425 67 L 426 66 L 425 66 L 424 67 L 423 67 L 422 66 L 423 65 L 423 64 L 422 64 L 421 63 L 421 62 L 419 60 L 419 59 L 420 58 L 418 56 L 417 57 L 418 58 L 416 60 L 413 57 L 413 54 L 412 54 L 411 53 L 411 51 L 411 55 L 409 57 L 409 58 L 408 59 L 404 55 L 405 54 L 405 53 L 403 53 L 402 52 L 402 50 L 401 49 L 401 48 L 399 46 L 399 45 L 398 44 L 398 42 L 399 41 L 398 42 L 397 42 L 397 45 L 395 47 L 395 48 L 393 50 L 393 51 L 392 52 L 393 53 L 392 54 L 392 55 L 391 56 L 390 55 L 390 54 L 389 54 L 388 53 L 388 52 L 387 51 L 387 49 L 386 50 L 385 50 L 384 49 L 384 45 L 383 45 L 382 46 L 381 45 L 381 44 L 380 43 L 380 42 L 379 41 L 379 39 L 378 40 L 377 40 L 376 39 L 376 34 L 374 34 L 373 33 L 373 32 L 372 31 L 371 32 L 371 33 L 370 34 L 369 34 L 368 33 L 368 31 L 367 30 L 367 28 L 366 27 L 367 26 L 366 26 L 366 27 L 365 28 L 365 31 L 364 32 L 361 29 L 361 27 L 360 26 L 360 24 L 360 27 L 358 29 L 358 30 L 357 31 L 354 28 L 354 27 L 353 26 L 353 25 L 353 27 L 352 28 L 352 30 L 351 31 L 350 30 L 350 25 L 351 24 L 351 22 L 350 21 L 350 20 L 351 19 L 350 19 L 348 17 L 346 17 L 345 16 L 345 14 L 343 12 L 342 13 L 342 14 L 341 15 L 338 15 L 338 20 L 337 21 L 337 24 L 336 25 L 335 24 L 335 25 L 334 26 L 333 25 L 333 23 L 333 25 L 332 26 L 332 27 L 331 28 L 329 26 L 329 25 L 327 25 L 327 26 L 326 27 L 325 26 L 325 27 L 326 27 L 327 28 L 326 29 L 324 29 L 323 28 L 323 27 L 322 27 L 321 26 L 321 25 L 319 23 L 319 22 L 319 25 L 318 26 L 318 27 L 317 28 L 315 28 L 315 31 L 316 32 L 316 35 L 315 36 L 314 35 L 314 34 L 313 34 L 313 35 L 316 38 L 315 39 L 313 39 L 311 37 L 311 38 L 309 40 L 307 40 L 306 39 L 308 37 L 308 33 L 307 32 L 307 31 L 306 32 L 305 31 L 305 30 L 307 28 L 308 28 L 306 28 L 305 29 L 304 28 L 304 27 L 305 26 L 305 25 L 306 24 L 305 25 L 304 24 L 304 21 L 302 21 L 301 20 L 302 19 L 302 18 L 302 19 L 301 20 L 302 21 L 301 22 L 300 22 L 301 23 L 301 24 L 300 25 L 297 22 L 298 23 L 297 24 L 296 24 L 297 25 L 297 26 L 296 27 L 295 26 L 295 27 L 294 28 L 293 27 L 292 28 L 291 27 L 291 26 L 291 27 L 292 28 L 290 30 L 292 32 L 291 33 L 290 33 L 289 32 L 288 32 L 287 31 L 287 30 L 286 30 L 285 31 L 286 32 L 284 34 L 281 34 L 281 35 L 282 36 L 279 39 L 276 39 L 275 38 L 275 39 L 274 40 L 274 41 L 275 42 L 274 43 L 273 43 L 271 41 L 272 42 L 271 43 L 271 45 L 272 46 L 272 49 L 271 50 L 270 49 L 269 49 L 269 50 L 270 51 L 270 52 L 269 53 L 268 53 L 267 52 L 267 51 L 267 52 L 268 53 L 268 54 L 267 55 L 266 55 L 267 56 L 267 57 L 265 59 L 262 59 L 261 60 L 258 60 L 257 61 L 256 61 L 254 59 L 254 58 L 252 58 L 251 57 L 251 56 L 252 55 L 250 53 L 250 51 L 248 49 L 247 49 L 247 50 L 246 51 L 246 52 L 244 54 L 243 53 L 242 53 L 241 52 L 242 53 L 241 54 L 241 55 L 240 56 L 241 57 L 241 58 L 240 59 L 236 55 L 235 55 L 235 61 L 234 62 L 232 60 L 231 61 L 230 60 L 230 62 L 229 63 L 228 62 L 229 63 L 228 64 L 227 64 L 226 63 L 226 62 L 224 62 L 224 63 L 223 64 L 222 64 L 221 63 L 221 62 L 220 62 L 218 60 L 218 59 L 219 58 L 219 56 L 220 55 L 221 55 L 219 55 L 218 54 L 219 53 L 219 52 L 218 53 L 217 53 L 216 54 L 215 54 L 214 53 L 214 52 L 215 51 L 216 51 L 216 46 L 217 45 L 217 44 L 216 44 L 215 45 L 214 45 L 213 44 L 215 42 L 216 42 L 216 40 L 214 42 L 213 42 L 212 41 L 212 40 L 214 38 L 212 36 L 213 35 L 211 33 L 211 28 L 210 28 L 209 29 L 209 35 L 208 36 L 210 38 L 209 39 L 208 39 L 206 37 L 206 40 L 205 41 L 206 42 L 206 44 L 205 45 L 204 44 L 204 46 L 205 47 L 206 47 L 207 48 L 207 49 L 206 50 L 205 49 L 204 49 L 202 47 L 203 48 L 202 49 L 204 51 L 203 52 L 201 52 L 200 51 L 202 53 L 202 54 L 203 54 L 204 55 L 204 56 L 203 57 L 202 56 L 201 56 L 202 57 L 202 58 L 203 59 L 204 59 L 205 60 L 205 61 L 204 62 L 201 62 L 201 63 L 202 64 L 203 64 L 204 65 L 203 66 L 199 66 L 198 65 L 197 66 L 200 69 L 200 72 L 201 73 L 201 76 L 200 77 L 199 76 L 199 75 L 199 77 L 200 78 L 198 80 L 197 79 L 197 78 L 196 78 L 197 79 L 197 80 L 198 81 L 197 82 L 196 82 L 195 81 L 195 82 L 193 84 L 191 84 L 190 83 L 191 82 L 191 81 L 192 80 L 192 79 L 191 78 L 191 76 L 192 75 L 193 75 L 192 75 L 191 76 L 189 76 L 188 75 L 189 74 L 190 74 L 192 72 L 191 72 L 190 73 L 188 73 L 187 72 L 190 69 L 188 67 L 188 66 L 187 66 L 186 65 L 186 66 L 185 67 L 184 66 L 184 67 L 183 68 L 182 67 L 182 66 L 180 64 L 180 63 L 179 63 L 179 65 L 178 66 L 178 67 L 179 68 L 179 69 L 178 70 L 176 68 L 175 69 L 176 70 L 176 71 L 175 72 L 176 73 L 176 75 L 175 76 L 174 75 L 173 76 L 176 79 L 175 80 L 173 80 L 171 78 L 171 79 L 173 81 L 173 82 L 172 83 L 170 81 L 170 82 L 172 84 L 172 85 L 170 87 L 170 88 L 170 87 L 172 85 L 174 87 L 173 88 L 172 88 L 172 89 L 174 91 L 172 93 L 171 93 L 170 92 L 169 92 L 168 91 L 168 95 L 169 96 L 168 97 L 169 98 L 169 101 L 167 103 L 166 103 L 165 104 L 164 104 L 161 107 L 159 107 L 158 108 L 157 108 L 157 109 L 156 110 L 154 110 L 153 111 L 153 112 L 152 113 L 149 113 L 146 110 L 145 110 L 146 110 L 147 111 L 146 112 L 144 112 L 143 113 L 143 114 L 142 115 L 141 115 L 141 116 L 140 117 L 140 119 L 139 120 L 139 121 L 138 122 L 137 121 L 137 115 L 138 114 L 137 113 L 136 113 L 135 114 L 127 114 L 126 115 L 123 115 L 122 114 L 122 110 L 121 109 L 118 109 L 115 106 L 115 102 L 114 101 L 114 99 L 115 98 L 116 99 L 116 100 L 116 99 L 114 97 L 114 96 L 112 96 L 111 97 L 110 96 L 110 95 L 112 93 L 112 92 L 111 92 L 110 91 L 110 89 L 109 89 L 108 88 L 109 87 L 108 86 L 108 85 L 107 85 L 107 86 L 106 87 L 103 84 L 103 83 L 102 82 L 103 81 L 102 81 L 102 83 L 101 84 L 101 85 L 100 86 L 100 87 L 99 88 L 98 87 L 97 88 L 97 89 L 96 90 L 93 90 L 92 89 L 92 88 L 92 89 L 91 90 L 90 89 L 89 89 L 88 88 L 89 87 L 89 86 L 90 85 L 90 84 L 89 84 L 88 83 L 89 82 L 90 82 L 90 81 L 89 81 L 88 80 L 89 79 L 88 79 L 87 78 L 87 77 L 86 76 L 87 75 L 87 74 L 85 72 L 86 71 L 85 70 L 87 68 L 86 69 L 84 67 L 84 64 L 83 63 L 83 62 L 82 62 L 81 61 L 81 60 L 80 59 L 81 58 L 80 57 L 79 58 L 77 56 L 77 55 L 76 56 L 76 59 L 75 60 L 74 60 L 72 58 L 71 58 L 69 60 L 69 62 L 68 63 L 68 64 L 66 66 L 65 65 L 65 63 L 63 61 L 63 60 L 63 61 L 62 62 L 59 62 L 58 63 L 57 63 L 56 64 L 55 63 L 55 60 L 54 60 L 53 61 L 52 61 L 51 60 L 51 58 L 50 58 L 44 52 L 47 49 L 48 49 L 47 49 L 46 48 L 45 49 L 44 49 L 43 48 L 41 48 L 39 46 L 40 45 L 40 42 L 41 41 L 43 41 L 44 40 L 45 40 L 46 39 L 46 38 L 47 37 L 45 35 L 45 34 L 46 33 L 47 33 L 47 31 L 46 31 L 46 32 L 45 33 L 43 33 L 42 34 L 40 34 L 39 33 L 39 32 L 40 31 L 41 31 L 42 30 L 41 29 L 42 28 L 42 22 L 43 21 L 44 21 L 44 20 L 42 20 L 41 21 L 40 21 L 39 22 L 38 22 L 37 23 L 36 22 L 36 21 L 37 20 L 38 20 L 40 18 L 42 18 L 41 17 L 42 16 L 42 15 L 41 15 L 38 18 L 37 18 L 36 17 L 36 16 L 38 14 L 38 13 L 39 12 L 39 11 L 38 11 L 36 9 L 36 6 L 35 6 L 33 4 Z" fill="rgb(69,123,231)"/>
<rect x="0.0" y="432.0" width="719.0" height="505" fill="rgb(69,123,231)"/></svg>
