<svg xmlns="http://www.w3.org/2000/svg" viewBox="0.0 0.0 719.0 1014.0" width="719" height="1014.0">
  <path d="M 61 0 L 61 4 L 60 5 L 59 5 L 58 4 L 58 5 L 57 6 L 56 6 L 56 7 L 55 8 L 58 8 L 59 9 L 58 10 L 58 11 L 57 12 L 56 11 L 56 10 L 56 11 L 55 12 L 54 11 L 53 11 L 52 12 L 51 12 L 53 12 L 54 13 L 53 14 L 54 15 L 55 15 L 56 16 L 55 17 L 56 17 L 57 18 L 55 20 L 54 20 L 54 21 L 53 22 L 52 21 L 51 22 L 49 22 L 50 22 L 51 23 L 51 24 L 50 25 L 50 27 L 51 27 L 52 28 L 56 28 L 57 29 L 57 30 L 56 31 L 51 31 L 48 34 L 48 38 L 50 40 L 48 42 L 47 41 L 45 41 L 43 43 L 45 45 L 46 45 L 49 48 L 48 49 L 49 49 L 50 50 L 51 49 L 52 49 L 53 50 L 52 51 L 53 51 L 55 53 L 54 54 L 53 54 L 52 55 L 50 53 L 48 53 L 47 52 L 43 52 L 42 51 L 41 52 L 40 51 L 40 50 L 39 50 L 38 51 L 37 51 L 36 52 L 34 52 L 36 52 L 37 53 L 37 55 L 38 55 L 39 56 L 38 57 L 36 57 L 35 58 L 35 60 L 34 61 L 34 62 L 35 63 L 34 64 L 33 64 L 33 65 L 32 66 L 32 67 L 31 68 L 31 69 L 32 70 L 34 70 L 35 69 L 37 71 L 37 72 L 35 74 L 35 76 L 34 77 L 34 78 L 35 79 L 35 80 L 37 80 L 38 81 L 37 82 L 37 83 L 41 87 L 41 88 L 42 89 L 41 90 L 41 91 L 42 91 L 43 92 L 43 93 L 44 93 L 45 94 L 46 94 L 47 95 L 47 96 L 45 98 L 44 98 L 43 97 L 42 97 L 41 96 L 41 95 L 40 96 L 39 96 L 38 95 L 37 95 L 36 94 L 37 93 L 36 94 L 35 94 L 34 93 L 33 93 L 32 92 L 33 91 L 32 91 L 31 92 L 30 91 L 29 92 L 27 92 L 26 93 L 25 93 L 26 93 L 27 94 L 27 95 L 29 97 L 29 102 L 28 103 L 27 103 L 26 102 L 26 101 L 25 101 L 24 102 L 23 101 L 23 100 L 22 101 L 20 101 L 19 102 L 19 105 L 20 105 L 21 106 L 21 107 L 22 108 L 21 109 L 22 110 L 22 112 L 21 113 L 20 113 L 19 112 L 19 110 L 17 112 L 16 112 L 15 113 L 13 113 L 12 114 L 10 114 L 9 115 L 7 115 L 6 114 L 6 112 L 7 111 L 9 111 L 10 110 L 9 109 L 9 108 L 10 107 L 10 105 L 11 104 L 11 102 L 10 101 L 11 100 L 11 99 L 10 98 L 10 97 L 12 95 L 13 95 L 13 93 L 12 94 L 11 93 L 11 92 L 9 94 L 8 94 L 8 95 L 7 96 L 2 96 L 1 95 L 2 94 L 3 94 L 4 93 L 5 93 L 5 92 L 7 90 L 8 90 L 9 89 L 10 89 L 11 88 L 10 87 L 10 86 L 11 85 L 8 85 L 7 86 L 6 86 L 6 87 L 3 90 L 2 89 L 1 90 L 0 89 L 0 87 L 1 86 L 2 86 L 2 85 L 4 83 L 5 83 L 4 82 L 4 81 L 5 80 L 1 76 L 1 75 L 0 74 L 1 73 L 0 72 L 0 514 L 719 514 L 719 142 L 718 141 L 719 140 L 719 133 L 718 132 L 718 131 L 717 132 L 716 131 L 716 126 L 716 130 L 715 131 L 713 129 L 712 130 L 713 131 L 712 132 L 711 132 L 710 133 L 710 134 L 709 135 L 710 136 L 710 137 L 708 139 L 707 139 L 706 138 L 707 139 L 706 140 L 706 141 L 707 141 L 708 142 L 707 143 L 707 144 L 709 146 L 707 148 L 706 147 L 706 146 L 705 147 L 706 147 L 707 148 L 706 149 L 704 149 L 704 151 L 703 152 L 703 153 L 704 154 L 704 156 L 705 157 L 705 158 L 704 159 L 705 160 L 703 162 L 702 162 L 703 163 L 703 165 L 702 166 L 701 165 L 702 166 L 702 167 L 703 167 L 704 168 L 703 169 L 699 169 L 697 171 L 696 171 L 697 171 L 700 174 L 699 175 L 700 174 L 701 174 L 703 176 L 703 177 L 702 178 L 701 177 L 701 178 L 700 179 L 699 178 L 699 177 L 697 179 L 696 178 L 693 178 L 692 179 L 691 179 L 690 178 L 691 179 L 690 180 L 689 180 L 689 181 L 690 182 L 689 183 L 690 182 L 691 182 L 692 183 L 691 184 L 691 185 L 690 186 L 689 186 L 690 187 L 689 188 L 689 189 L 687 191 L 686 191 L 687 192 L 687 194 L 686 195 L 684 195 L 685 195 L 686 196 L 686 198 L 687 198 L 688 199 L 689 199 L 690 200 L 690 201 L 689 202 L 688 202 L 689 203 L 688 204 L 689 205 L 688 206 L 689 207 L 689 208 L 690 209 L 690 210 L 692 212 L 693 212 L 694 213 L 694 214 L 695 214 L 696 215 L 696 216 L 695 217 L 696 218 L 693 221 L 692 220 L 691 220 L 690 221 L 688 219 L 687 219 L 686 218 L 684 220 L 682 220 L 681 221 L 680 220 L 680 222 L 679 223 L 678 222 L 678 221 L 677 222 L 675 222 L 674 221 L 674 218 L 675 217 L 675 213 L 674 212 L 674 211 L 672 211 L 671 212 L 670 211 L 669 211 L 669 212 L 668 213 L 665 213 L 664 214 L 665 214 L 666 215 L 665 216 L 663 216 L 662 215 L 662 212 L 661 211 L 662 210 L 661 209 L 662 208 L 662 207 L 663 206 L 663 203 L 662 202 L 662 201 L 663 200 L 663 195 L 662 194 L 663 193 L 664 193 L 665 192 L 666 192 L 666 189 L 667 188 L 667 187 L 666 186 L 666 184 L 665 183 L 665 182 L 664 182 L 663 183 L 662 182 L 662 176 L 663 175 L 663 174 L 662 173 L 662 170 L 659 173 L 658 173 L 657 174 L 655 174 L 654 175 L 653 174 L 653 172 L 652 171 L 652 170 L 653 169 L 654 169 L 655 168 L 656 169 L 656 167 L 654 165 L 654 164 L 653 163 L 653 161 L 652 161 L 651 162 L 649 160 L 649 157 L 648 156 L 648 155 L 649 154 L 651 156 L 650 155 L 650 154 L 649 154 L 647 152 L 646 152 L 644 150 L 645 149 L 646 149 L 647 148 L 646 147 L 646 146 L 645 147 L 643 145 L 643 139 L 642 139 L 641 138 L 640 138 L 639 137 L 639 136 L 640 135 L 641 135 L 641 134 L 640 133 L 641 132 L 641 131 L 640 131 L 639 130 L 638 131 L 639 131 L 640 132 L 639 133 L 637 133 L 637 134 L 638 135 L 637 136 L 638 137 L 637 138 L 636 138 L 635 139 L 634 139 L 635 139 L 636 140 L 634 142 L 635 142 L 636 143 L 636 145 L 634 147 L 634 148 L 633 149 L 633 151 L 632 152 L 632 153 L 631 154 L 629 154 L 628 155 L 627 155 L 627 156 L 626 157 L 625 157 L 622 160 L 621 160 L 621 161 L 619 163 L 621 165 L 621 166 L 620 167 L 619 166 L 618 166 L 618 169 L 619 170 L 620 169 L 621 170 L 621 174 L 620 175 L 620 179 L 621 180 L 622 180 L 624 182 L 623 183 L 623 186 L 622 187 L 621 187 L 620 186 L 619 186 L 618 187 L 614 187 L 615 188 L 613 190 L 614 191 L 614 192 L 613 193 L 613 194 L 614 195 L 614 196 L 613 197 L 612 197 L 611 196 L 609 196 L 608 197 L 606 195 L 606 193 L 607 192 L 607 191 L 606 190 L 607 189 L 606 188 L 608 186 L 609 187 L 611 187 L 612 186 L 611 185 L 612 184 L 614 184 L 615 183 L 614 182 L 615 181 L 615 180 L 614 179 L 614 178 L 609 173 L 610 172 L 611 172 L 612 171 L 612 170 L 614 168 L 614 166 L 613 166 L 612 165 L 613 164 L 611 162 L 612 161 L 611 160 L 610 161 L 609 161 L 608 160 L 607 161 L 606 160 L 603 163 L 602 163 L 601 162 L 599 164 L 599 165 L 598 166 L 597 165 L 597 164 L 597 166 L 596 167 L 595 166 L 595 165 L 594 164 L 595 163 L 595 162 L 597 160 L 596 159 L 597 158 L 597 157 L 596 156 L 597 155 L 597 154 L 598 153 L 599 153 L 599 151 L 598 150 L 598 149 L 597 149 L 596 148 L 597 147 L 598 147 L 598 146 L 600 144 L 601 144 L 601 143 L 602 142 L 603 142 L 602 141 L 603 140 L 603 139 L 602 138 L 603 137 L 602 137 L 601 136 L 599 136 L 598 135 L 595 135 L 594 134 L 594 133 L 595 132 L 596 132 L 596 129 L 599 126 L 599 124 L 600 123 L 601 123 L 597 123 L 596 122 L 595 123 L 594 123 L 592 125 L 589 125 L 589 126 L 588 127 L 587 126 L 586 126 L 585 127 L 585 128 L 584 129 L 583 129 L 582 128 L 581 129 L 580 128 L 579 128 L 577 130 L 575 128 L 575 127 L 576 126 L 575 125 L 576 124 L 579 124 L 580 123 L 581 123 L 584 120 L 585 120 L 586 121 L 587 121 L 587 120 L 586 119 L 586 118 L 587 117 L 588 117 L 588 116 L 590 114 L 591 114 L 591 113 L 592 112 L 593 112 L 592 111 L 589 111 L 588 110 L 587 111 L 585 109 L 584 110 L 583 110 L 580 107 L 580 106 L 581 105 L 581 104 L 582 103 L 583 103 L 585 101 L 585 100 L 586 99 L 586 98 L 585 97 L 585 96 L 584 96 L 583 95 L 582 96 L 576 96 L 574 98 L 572 96 L 574 94 L 575 94 L 577 92 L 578 93 L 577 92 L 580 89 L 581 89 L 582 88 L 584 88 L 584 86 L 585 85 L 586 85 L 585 85 L 584 84 L 583 85 L 582 84 L 581 84 L 580 85 L 579 84 L 578 85 L 575 85 L 574 86 L 573 86 L 572 85 L 571 85 L 570 84 L 571 83 L 572 83 L 571 82 L 572 81 L 571 80 L 571 79 L 572 78 L 573 78 L 574 77 L 577 77 L 580 74 L 579 73 L 577 73 L 576 72 L 575 72 L 574 71 L 573 71 L 572 70 L 573 69 L 573 68 L 572 68 L 571 67 L 571 66 L 572 65 L 572 64 L 573 63 L 574 63 L 574 62 L 571 62 L 570 61 L 568 61 L 567 60 L 567 59 L 568 58 L 570 58 L 569 57 L 569 56 L 568 55 L 568 54 L 567 55 L 566 54 L 566 53 L 567 52 L 566 51 L 566 49 L 566 51 L 565 52 L 564 52 L 563 51 L 561 53 L 561 55 L 563 55 L 564 56 L 562 58 L 561 57 L 561 58 L 560 59 L 559 58 L 558 58 L 557 59 L 556 59 L 558 59 L 559 60 L 559 61 L 561 63 L 560 64 L 561 65 L 561 66 L 558 69 L 557 68 L 556 69 L 555 69 L 556 69 L 557 70 L 556 71 L 556 72 L 555 73 L 556 74 L 558 74 L 559 75 L 560 75 L 561 74 L 562 74 L 563 75 L 563 77 L 562 78 L 556 78 L 553 81 L 553 83 L 554 84 L 554 85 L 556 87 L 555 88 L 553 88 L 552 89 L 551 88 L 550 89 L 549 89 L 549 90 L 551 92 L 552 92 L 554 94 L 554 96 L 554 95 L 555 94 L 556 94 L 557 95 L 556 96 L 557 95 L 558 96 L 558 98 L 559 98 L 560 99 L 558 101 L 556 101 L 555 100 L 553 100 L 552 99 L 548 99 L 547 98 L 546 99 L 545 98 L 545 97 L 544 98 L 542 98 L 541 99 L 540 99 L 541 99 L 542 100 L 541 101 L 542 101 L 543 102 L 541 104 L 541 107 L 540 108 L 539 108 L 540 109 L 540 110 L 538 112 L 538 113 L 537 114 L 537 117 L 538 117 L 540 115 L 541 116 L 541 117 L 542 118 L 542 119 L 541 120 L 541 122 L 540 123 L 540 127 L 539 128 L 540 128 L 542 130 L 542 131 L 543 131 L 545 133 L 545 139 L 546 139 L 547 140 L 545 142 L 542 139 L 541 139 L 540 140 L 539 139 L 539 138 L 538 137 L 537 137 L 536 138 L 533 138 L 531 140 L 530 140 L 530 141 L 529 142 L 528 142 L 529 142 L 531 144 L 530 145 L 530 147 L 529 148 L 528 147 L 528 146 L 526 146 L 523 149 L 523 152 L 522 153 L 523 154 L 525 154 L 526 155 L 525 156 L 523 156 L 524 156 L 525 157 L 525 158 L 524 159 L 523 159 L 522 158 L 521 158 L 519 156 L 519 160 L 518 161 L 517 161 L 517 162 L 516 163 L 517 162 L 518 162 L 519 163 L 516 166 L 515 166 L 515 167 L 516 168 L 516 172 L 515 173 L 515 175 L 513 177 L 513 178 L 512 179 L 512 181 L 511 182 L 510 181 L 509 181 L 505 185 L 505 186 L 503 188 L 502 187 L 502 189 L 501 190 L 500 189 L 500 191 L 501 192 L 500 193 L 499 193 L 499 197 L 500 197 L 501 198 L 501 204 L 500 205 L 501 206 L 501 207 L 504 210 L 504 212 L 503 213 L 503 214 L 502 215 L 501 214 L 499 214 L 498 215 L 497 214 L 494 217 L 495 217 L 496 218 L 496 219 L 495 220 L 495 223 L 494 224 L 492 224 L 491 223 L 488 223 L 487 224 L 486 223 L 486 222 L 485 221 L 485 219 L 484 218 L 484 217 L 485 216 L 486 217 L 486 216 L 487 215 L 488 216 L 488 214 L 489 213 L 489 208 L 487 206 L 487 205 L 486 206 L 485 205 L 485 203 L 484 202 L 486 200 L 486 199 L 485 198 L 485 197 L 484 196 L 484 194 L 484 195 L 483 196 L 481 196 L 480 197 L 479 197 L 478 198 L 474 194 L 475 193 L 477 193 L 478 194 L 478 195 L 479 195 L 477 193 L 478 192 L 478 191 L 477 190 L 477 189 L 478 188 L 477 189 L 476 188 L 476 186 L 475 185 L 474 186 L 471 183 L 471 180 L 472 179 L 473 180 L 474 180 L 472 178 L 471 178 L 470 177 L 471 176 L 470 177 L 468 175 L 469 174 L 468 175 L 467 174 L 467 173 L 469 171 L 468 171 L 467 170 L 465 170 L 464 169 L 464 168 L 465 167 L 467 167 L 467 165 L 466 165 L 464 163 L 464 162 L 463 162 L 462 161 L 463 160 L 463 157 L 462 156 L 463 155 L 464 155 L 463 155 L 462 154 L 461 154 L 460 155 L 461 156 L 459 158 L 460 158 L 461 159 L 460 160 L 460 161 L 459 162 L 458 162 L 457 163 L 457 164 L 459 166 L 459 167 L 458 168 L 458 169 L 457 170 L 457 172 L 455 174 L 455 175 L 453 177 L 452 176 L 452 174 L 451 174 L 450 173 L 451 172 L 451 171 L 450 170 L 451 169 L 450 169 L 449 168 L 449 165 L 448 165 L 447 166 L 446 166 L 442 170 L 440 170 L 439 169 L 438 170 L 437 169 L 436 170 L 435 169 L 436 170 L 435 171 L 434 171 L 431 168 L 432 167 L 433 167 L 433 166 L 434 165 L 435 166 L 435 167 L 435 166 L 436 165 L 437 166 L 437 167 L 437 166 L 436 165 L 439 162 L 438 161 L 439 160 L 435 156 L 435 154 L 433 152 L 434 151 L 432 149 L 432 147 L 431 148 L 431 149 L 429 151 L 428 151 L 422 145 L 422 144 L 423 143 L 424 144 L 424 143 L 425 142 L 424 142 L 423 141 L 424 140 L 423 139 L 423 138 L 424 137 L 425 138 L 426 137 L 427 138 L 427 139 L 429 139 L 426 136 L 426 135 L 423 135 L 421 133 L 420 133 L 419 132 L 418 133 L 417 132 L 417 131 L 416 130 L 416 129 L 415 128 L 415 127 L 416 126 L 418 126 L 419 125 L 420 125 L 420 123 L 418 123 L 417 122 L 410 122 L 409 121 L 409 120 L 408 119 L 408 118 L 411 115 L 413 115 L 414 114 L 415 115 L 415 116 L 416 116 L 417 115 L 416 115 L 414 113 L 414 110 L 413 110 L 412 109 L 412 108 L 411 107 L 408 107 L 406 105 L 406 104 L 407 103 L 406 102 L 407 101 L 408 101 L 410 99 L 409 99 L 408 98 L 408 97 L 410 95 L 411 95 L 413 97 L 413 96 L 410 93 L 408 93 L 405 90 L 404 90 L 404 91 L 405 92 L 404 93 L 404 96 L 405 97 L 404 98 L 402 98 L 402 100 L 401 101 L 400 101 L 400 102 L 401 102 L 401 101 L 402 100 L 403 101 L 404 101 L 405 102 L 404 103 L 404 105 L 403 106 L 402 106 L 401 107 L 399 107 L 398 108 L 398 109 L 397 110 L 397 111 L 398 110 L 400 112 L 398 114 L 397 114 L 398 115 L 399 114 L 400 115 L 400 117 L 399 118 L 399 121 L 398 122 L 398 123 L 397 124 L 397 126 L 396 127 L 395 127 L 395 129 L 394 130 L 392 130 L 392 131 L 391 132 L 391 133 L 390 134 L 389 133 L 388 134 L 388 135 L 387 136 L 386 136 L 385 137 L 384 137 L 383 138 L 383 139 L 382 140 L 381 140 L 380 141 L 380 142 L 378 144 L 377 144 L 375 146 L 374 146 L 373 147 L 372 147 L 372 148 L 371 149 L 371 150 L 370 151 L 369 151 L 369 153 L 370 154 L 369 155 L 369 156 L 366 159 L 365 159 L 365 161 L 364 162 L 363 162 L 363 164 L 365 164 L 367 166 L 368 165 L 369 166 L 371 166 L 373 168 L 371 170 L 371 176 L 369 178 L 368 178 L 368 179 L 369 180 L 368 181 L 368 183 L 366 185 L 368 187 L 364 191 L 362 189 L 361 189 L 360 188 L 360 185 L 359 185 L 358 184 L 357 184 L 356 183 L 358 181 L 358 179 L 357 178 L 358 177 L 359 177 L 361 175 L 360 174 L 360 172 L 357 172 L 356 173 L 355 173 L 353 171 L 354 170 L 355 170 L 357 168 L 358 168 L 358 167 L 356 165 L 354 165 L 353 166 L 352 165 L 353 166 L 350 169 L 347 169 L 346 170 L 344 168 L 344 167 L 345 166 L 346 166 L 347 165 L 349 165 L 348 164 L 349 163 L 349 162 L 350 161 L 349 160 L 349 157 L 350 156 L 350 151 L 351 150 L 351 145 L 351 146 L 350 147 L 349 146 L 349 141 L 350 140 L 349 139 L 349 138 L 348 139 L 345 139 L 343 137 L 344 136 L 344 132 L 343 131 L 342 131 L 341 130 L 341 128 L 342 127 L 340 125 L 341 124 L 340 125 L 339 125 L 337 123 L 338 122 L 338 121 L 336 121 L 335 120 L 335 119 L 336 118 L 337 118 L 337 117 L 336 116 L 335 116 L 334 115 L 334 114 L 334 116 L 333 117 L 334 118 L 332 120 L 332 121 L 331 122 L 331 125 L 332 126 L 332 127 L 331 128 L 329 128 L 328 127 L 328 129 L 329 130 L 327 132 L 326 132 L 325 131 L 324 131 L 323 130 L 323 131 L 324 131 L 325 132 L 325 134 L 324 135 L 321 135 L 322 135 L 323 136 L 323 139 L 322 140 L 322 143 L 323 142 L 325 144 L 324 145 L 324 147 L 323 148 L 322 148 L 321 147 L 320 148 L 319 147 L 319 148 L 317 150 L 318 149 L 319 150 L 319 151 L 316 154 L 313 154 L 311 152 L 311 149 L 310 150 L 309 149 L 309 148 L 311 146 L 310 145 L 312 143 L 312 142 L 313 141 L 314 141 L 316 139 L 316 138 L 317 137 L 316 137 L 315 138 L 313 138 L 312 139 L 305 139 L 304 138 L 305 137 L 306 137 L 306 136 L 307 135 L 308 136 L 309 136 L 310 135 L 311 135 L 312 134 L 313 134 L 314 133 L 315 134 L 315 135 L 315 132 L 316 131 L 316 130 L 315 130 L 314 131 L 313 131 L 312 132 L 306 132 L 305 131 L 305 130 L 307 128 L 308 129 L 309 129 L 309 128 L 310 127 L 311 128 L 312 127 L 312 126 L 313 125 L 314 126 L 314 125 L 316 123 L 314 123 L 313 124 L 312 124 L 311 125 L 307 125 L 306 124 L 309 121 L 309 119 L 310 118 L 310 117 L 312 115 L 312 114 L 314 112 L 314 111 L 313 111 L 312 112 L 311 111 L 311 110 L 312 109 L 313 109 L 313 107 L 312 108 L 310 108 L 308 110 L 307 110 L 306 109 L 306 107 L 307 106 L 307 104 L 311 100 L 311 99 L 312 98 L 312 94 L 313 93 L 312 93 L 311 94 L 310 94 L 308 96 L 307 96 L 306 95 L 309 92 L 309 90 L 310 89 L 310 88 L 309 89 L 308 89 L 307 90 L 306 89 L 306 87 L 307 86 L 307 85 L 308 84 L 308 79 L 309 78 L 309 77 L 307 79 L 306 79 L 305 78 L 305 77 L 306 76 L 307 76 L 307 75 L 309 73 L 309 72 L 307 74 L 306 74 L 305 75 L 304 74 L 304 73 L 305 72 L 306 72 L 306 69 L 307 68 L 307 67 L 306 66 L 306 65 L 307 64 L 307 62 L 306 63 L 305 63 L 304 64 L 303 64 L 302 63 L 305 60 L 307 60 L 307 58 L 306 59 L 303 59 L 302 58 L 304 56 L 305 56 L 305 53 L 304 53 L 303 52 L 304 51 L 304 48 L 303 48 L 302 47 L 304 45 L 304 44 L 303 44 L 302 43 L 302 42 L 303 41 L 303 40 L 302 39 L 302 36 L 301 35 L 300 35 L 301 36 L 301 38 L 300 39 L 300 40 L 301 41 L 300 42 L 299 42 L 299 43 L 300 44 L 300 45 L 299 46 L 298 46 L 299 46 L 300 47 L 300 49 L 299 50 L 298 49 L 297 49 L 297 50 L 299 52 L 298 53 L 297 53 L 296 52 L 296 54 L 297 55 L 296 56 L 297 57 L 296 58 L 297 59 L 297 62 L 299 64 L 298 65 L 297 65 L 295 63 L 295 65 L 296 65 L 298 67 L 298 68 L 297 69 L 296 68 L 295 68 L 294 67 L 293 67 L 294 68 L 294 69 L 293 70 L 293 72 L 294 72 L 295 73 L 295 74 L 296 75 L 296 78 L 295 79 L 294 78 L 294 79 L 295 80 L 295 81 L 296 82 L 296 83 L 297 84 L 296 85 L 295 85 L 293 83 L 292 83 L 291 82 L 292 83 L 292 84 L 293 85 L 291 87 L 290 86 L 291 87 L 291 88 L 292 89 L 292 92 L 293 93 L 293 94 L 294 95 L 294 96 L 295 97 L 295 100 L 296 100 L 297 101 L 297 102 L 296 103 L 295 103 L 293 101 L 292 101 L 291 100 L 290 100 L 292 102 L 292 104 L 293 104 L 294 105 L 294 106 L 293 107 L 292 107 L 290 105 L 289 105 L 290 106 L 290 108 L 291 108 L 295 112 L 295 113 L 296 114 L 296 116 L 295 117 L 294 117 L 293 116 L 292 117 L 290 115 L 289 115 L 288 114 L 287 114 L 288 115 L 288 116 L 289 116 L 291 118 L 291 119 L 292 118 L 293 119 L 293 120 L 294 121 L 294 120 L 295 119 L 296 120 L 296 121 L 297 122 L 295 124 L 294 123 L 292 123 L 291 122 L 288 122 L 286 120 L 287 121 L 287 122 L 288 122 L 289 123 L 289 124 L 290 124 L 292 126 L 293 126 L 294 127 L 295 127 L 297 129 L 296 130 L 293 130 L 292 129 L 289 129 L 288 128 L 288 127 L 287 127 L 288 128 L 288 129 L 289 129 L 290 130 L 290 132 L 291 132 L 292 133 L 292 134 L 294 136 L 293 137 L 291 137 L 290 136 L 287 136 L 286 135 L 284 135 L 283 134 L 283 132 L 284 131 L 284 130 L 283 130 L 282 129 L 283 128 L 283 127 L 284 126 L 282 126 L 281 125 L 281 124 L 283 122 L 282 121 L 282 118 L 281 118 L 280 117 L 280 119 L 278 121 L 277 121 L 276 122 L 273 122 L 272 121 L 274 119 L 274 118 L 275 117 L 275 115 L 276 114 L 276 113 L 278 111 L 278 110 L 279 109 L 279 104 L 278 104 L 277 105 L 276 105 L 275 106 L 274 106 L 273 107 L 272 106 L 272 104 L 273 103 L 273 101 L 276 98 L 277 98 L 276 97 L 278 95 L 278 93 L 277 92 L 277 91 L 278 90 L 278 89 L 276 91 L 275 91 L 273 93 L 271 91 L 272 90 L 273 90 L 274 89 L 275 89 L 275 87 L 276 86 L 276 85 L 275 86 L 273 86 L 272 85 L 272 83 L 273 82 L 273 81 L 274 80 L 274 76 L 275 75 L 275 73 L 274 74 L 273 73 L 273 72 L 275 70 L 275 69 L 276 68 L 275 69 L 274 69 L 273 70 L 272 69 L 272 65 L 273 64 L 273 63 L 272 62 L 272 61 L 273 60 L 273 59 L 272 59 L 271 60 L 269 60 L 268 59 L 269 58 L 270 58 L 271 57 L 272 57 L 272 56 L 273 55 L 272 55 L 271 56 L 270 56 L 269 57 L 268 56 L 268 55 L 271 52 L 271 51 L 272 50 L 271 50 L 269 48 L 270 47 L 270 45 L 269 45 L 268 44 L 268 43 L 270 41 L 268 41 L 267 40 L 267 39 L 269 37 L 268 36 L 268 35 L 267 34 L 268 33 L 267 32 L 267 31 L 266 32 L 267 33 L 267 34 L 266 35 L 265 35 L 265 36 L 266 36 L 267 37 L 265 39 L 265 41 L 264 42 L 264 43 L 266 45 L 265 46 L 263 46 L 264 47 L 264 48 L 263 49 L 262 49 L 262 51 L 263 52 L 263 53 L 262 54 L 263 55 L 263 59 L 264 59 L 265 60 L 264 61 L 262 61 L 261 60 L 261 62 L 262 63 L 261 64 L 259 64 L 259 65 L 260 66 L 260 69 L 261 70 L 261 71 L 262 72 L 262 75 L 261 76 L 260 75 L 260 74 L 259 75 L 260 76 L 260 78 L 261 78 L 262 79 L 260 81 L 257 78 L 257 79 L 256 80 L 257 81 L 256 82 L 256 84 L 257 85 L 256 86 L 256 89 L 255 90 L 255 92 L 254 93 L 254 94 L 255 95 L 255 96 L 254 97 L 252 97 L 253 98 L 253 99 L 251 101 L 252 102 L 252 107 L 253 108 L 252 109 L 252 110 L 253 111 L 252 112 L 251 112 L 251 113 L 253 115 L 252 116 L 251 116 L 250 115 L 249 115 L 249 120 L 251 122 L 251 124 L 252 125 L 252 126 L 251 127 L 250 126 L 249 126 L 250 127 L 250 129 L 251 130 L 251 131 L 250 132 L 249 131 L 248 131 L 247 130 L 245 130 L 243 132 L 241 132 L 240 133 L 239 133 L 238 134 L 238 136 L 235 139 L 234 139 L 232 141 L 231 140 L 230 141 L 229 140 L 229 136 L 230 135 L 231 135 L 231 134 L 233 132 L 234 133 L 236 133 L 237 132 L 237 131 L 236 130 L 237 129 L 237 126 L 238 125 L 238 123 L 237 122 L 235 122 L 231 118 L 232 117 L 233 117 L 232 116 L 232 114 L 233 113 L 233 112 L 232 113 L 231 112 L 229 112 L 228 111 L 229 110 L 228 111 L 227 110 L 227 109 L 229 107 L 230 107 L 229 106 L 227 106 L 226 105 L 225 106 L 224 105 L 224 102 L 225 101 L 226 101 L 227 102 L 228 102 L 225 99 L 225 97 L 224 98 L 222 96 L 222 95 L 223 94 L 224 94 L 224 93 L 223 92 L 222 92 L 221 93 L 222 93 L 223 94 L 222 95 L 222 96 L 220 98 L 219 98 L 218 99 L 221 102 L 220 103 L 218 103 L 219 103 L 220 104 L 218 106 L 218 107 L 217 108 L 217 110 L 216 111 L 216 112 L 217 112 L 219 114 L 218 115 L 219 116 L 218 117 L 215 117 L 213 115 L 213 117 L 214 118 L 214 119 L 213 120 L 214 121 L 213 122 L 213 123 L 212 124 L 209 121 L 209 120 L 208 121 L 207 120 L 206 121 L 205 120 L 204 120 L 204 121 L 203 122 L 204 123 L 202 125 L 202 127 L 201 128 L 200 127 L 201 128 L 202 128 L 204 130 L 203 131 L 202 131 L 201 132 L 201 133 L 202 134 L 202 137 L 201 138 L 201 140 L 199 142 L 199 144 L 197 146 L 194 143 L 194 142 L 195 141 L 196 141 L 197 142 L 197 143 L 197 142 L 195 140 L 195 141 L 194 142 L 193 141 L 193 139 L 190 136 L 192 134 L 191 134 L 190 133 L 189 133 L 188 134 L 186 132 L 187 131 L 187 129 L 188 128 L 189 128 L 190 129 L 189 128 L 189 127 L 188 127 L 187 126 L 187 125 L 186 125 L 185 124 L 185 122 L 187 120 L 185 118 L 185 117 L 184 117 L 185 118 L 185 119 L 184 120 L 183 120 L 184 120 L 185 121 L 185 122 L 183 124 L 181 124 L 180 123 L 180 121 L 179 120 L 178 121 L 177 120 L 174 120 L 171 123 L 171 124 L 170 125 L 169 124 L 167 124 L 166 125 L 165 125 L 164 124 L 162 124 L 161 123 L 160 124 L 159 123 L 159 122 L 158 121 L 160 119 L 161 119 L 161 118 L 162 117 L 162 116 L 161 115 L 161 113 L 160 113 L 159 112 L 160 111 L 160 110 L 161 109 L 163 109 L 164 110 L 165 109 L 166 109 L 167 108 L 168 109 L 169 108 L 169 106 L 170 105 L 172 107 L 172 106 L 173 105 L 173 101 L 176 98 L 177 98 L 178 97 L 179 97 L 179 96 L 178 95 L 179 94 L 175 94 L 174 93 L 175 94 L 175 95 L 174 96 L 170 92 L 171 91 L 173 91 L 174 90 L 174 89 L 175 88 L 175 84 L 174 83 L 173 84 L 171 84 L 168 87 L 167 87 L 166 88 L 165 88 L 164 89 L 163 88 L 162 89 L 160 89 L 159 90 L 157 90 L 155 88 L 156 87 L 156 86 L 158 84 L 160 84 L 162 82 L 163 83 L 162 82 L 161 82 L 160 81 L 160 80 L 162 78 L 162 74 L 163 73 L 163 70 L 164 69 L 164 68 L 163 67 L 163 66 L 162 65 L 162 62 L 163 61 L 165 61 L 166 60 L 166 59 L 167 58 L 166 57 L 166 56 L 167 55 L 165 55 L 164 56 L 162 56 L 161 57 L 160 57 L 156 61 L 154 61 L 153 62 L 150 62 L 149 61 L 148 61 L 147 60 L 147 59 L 148 58 L 151 58 L 152 57 L 153 57 L 156 54 L 156 53 L 157 52 L 160 52 L 160 51 L 161 50 L 162 51 L 162 52 L 162 51 L 161 50 L 161 49 L 162 48 L 162 47 L 163 46 L 163 44 L 160 44 L 159 45 L 158 45 L 155 48 L 155 49 L 153 51 L 151 51 L 151 52 L 150 53 L 149 52 L 148 52 L 147 51 L 147 50 L 146 49 L 147 48 L 147 47 L 148 46 L 149 46 L 149 45 L 150 44 L 150 43 L 151 42 L 152 43 L 153 42 L 154 42 L 153 41 L 153 39 L 154 38 L 155 38 L 155 34 L 154 35 L 153 35 L 152 34 L 152 33 L 151 33 L 150 32 L 150 31 L 149 31 L 147 29 L 149 27 L 149 26 L 148 26 L 147 25 L 147 24 L 146 25 L 145 25 L 145 26 L 144 27 L 144 28 L 143 29 L 142 28 L 142 26 L 143 25 L 142 24 L 142 23 L 145 20 L 145 19 L 145 20 L 142 23 L 141 22 L 141 15 L 140 15 L 140 17 L 139 18 L 139 21 L 138 22 L 137 21 L 136 22 L 135 22 L 135 23 L 136 23 L 138 25 L 138 28 L 140 30 L 137 33 L 136 32 L 136 31 L 135 30 L 133 30 L 132 29 L 132 28 L 131 27 L 132 28 L 132 29 L 133 30 L 133 31 L 132 32 L 133 33 L 136 33 L 137 34 L 136 35 L 139 38 L 139 41 L 140 42 L 139 43 L 138 43 L 136 41 L 136 40 L 135 41 L 134 40 L 134 39 L 133 38 L 132 38 L 131 37 L 129 37 L 128 36 L 128 34 L 127 33 L 127 32 L 126 33 L 127 34 L 127 37 L 126 38 L 125 38 L 124 37 L 123 38 L 124 39 L 124 42 L 123 43 L 123 49 L 126 49 L 128 51 L 126 53 L 126 58 L 127 59 L 126 60 L 125 60 L 124 59 L 123 59 L 122 58 L 121 58 L 120 59 L 119 58 L 118 58 L 118 62 L 116 64 L 117 65 L 119 65 L 120 66 L 120 67 L 121 68 L 121 70 L 121 68 L 122 67 L 123 68 L 123 70 L 125 70 L 126 71 L 127 70 L 128 71 L 128 74 L 126 76 L 125 75 L 123 75 L 122 74 L 117 74 L 116 73 L 116 71 L 115 70 L 115 69 L 114 68 L 113 68 L 112 67 L 111 67 L 110 68 L 109 68 L 108 69 L 108 70 L 109 71 L 110 70 L 112 72 L 112 74 L 111 75 L 112 76 L 112 77 L 114 77 L 117 80 L 118 80 L 119 81 L 118 82 L 118 84 L 117 85 L 116 84 L 115 84 L 114 83 L 113 83 L 111 81 L 111 80 L 110 80 L 109 79 L 109 78 L 109 79 L 108 80 L 105 80 L 104 81 L 106 83 L 107 82 L 108 83 L 108 84 L 110 84 L 111 85 L 111 89 L 113 91 L 112 92 L 113 93 L 113 94 L 111 96 L 110 96 L 109 97 L 109 98 L 108 99 L 107 99 L 108 100 L 107 101 L 107 104 L 108 105 L 110 105 L 111 106 L 112 106 L 113 107 L 113 108 L 112 109 L 113 108 L 114 108 L 115 109 L 115 111 L 120 111 L 121 112 L 121 113 L 122 113 L 123 114 L 123 117 L 122 118 L 121 117 L 121 118 L 120 119 L 119 118 L 118 118 L 117 119 L 115 119 L 114 118 L 110 118 L 109 117 L 108 117 L 107 116 L 107 115 L 106 114 L 106 113 L 104 115 L 103 114 L 100 114 L 100 115 L 99 116 L 99 117 L 98 118 L 96 118 L 95 119 L 94 118 L 92 120 L 93 121 L 92 122 L 88 122 L 86 120 L 85 120 L 84 119 L 85 118 L 86 118 L 87 117 L 86 116 L 87 115 L 88 115 L 90 113 L 89 112 L 90 111 L 91 111 L 91 110 L 90 109 L 91 108 L 91 107 L 94 104 L 93 103 L 90 103 L 89 102 L 89 101 L 88 101 L 87 100 L 88 99 L 90 99 L 92 97 L 93 97 L 94 96 L 94 95 L 95 94 L 96 94 L 96 93 L 95 92 L 96 91 L 95 91 L 94 90 L 94 89 L 93 89 L 92 88 L 92 87 L 92 89 L 91 90 L 90 89 L 86 89 L 84 91 L 83 90 L 83 91 L 82 92 L 81 92 L 80 93 L 79 92 L 77 94 L 75 94 L 74 93 L 75 92 L 74 91 L 75 90 L 76 90 L 76 89 L 77 88 L 80 88 L 81 87 L 82 88 L 83 87 L 88 87 L 91 84 L 91 82 L 96 77 L 95 76 L 92 76 L 91 75 L 90 76 L 89 76 L 88 77 L 87 77 L 86 78 L 85 77 L 84 78 L 84 79 L 83 80 L 82 79 L 81 80 L 80 79 L 80 80 L 78 82 L 75 82 L 74 81 L 73 82 L 73 83 L 72 84 L 70 82 L 70 79 L 71 78 L 72 78 L 73 77 L 74 78 L 74 77 L 75 76 L 76 76 L 77 75 L 78 76 L 77 75 L 79 73 L 80 73 L 81 74 L 80 75 L 81 74 L 82 75 L 83 75 L 83 73 L 82 73 L 81 72 L 82 71 L 83 71 L 83 70 L 88 65 L 87 64 L 84 64 L 83 63 L 81 63 L 80 62 L 80 63 L 79 64 L 75 60 L 75 59 L 76 58 L 77 58 L 78 57 L 78 56 L 81 53 L 81 51 L 78 48 L 77 48 L 76 49 L 71 49 L 70 50 L 68 50 L 67 49 L 69 47 L 70 47 L 71 46 L 73 46 L 74 45 L 74 43 L 75 42 L 76 42 L 77 41 L 79 41 L 80 40 L 79 39 L 80 38 L 81 38 L 80 38 L 79 37 L 78 38 L 77 38 L 76 37 L 73 37 L 72 38 L 70 38 L 69 37 L 70 38 L 69 39 L 68 39 L 67 38 L 66 38 L 65 37 L 66 36 L 67 36 L 67 35 L 68 34 L 67 34 L 65 32 L 66 31 L 69 31 L 70 30 L 72 30 L 73 29 L 74 29 L 76 27 L 77 27 L 75 27 L 74 26 L 72 26 L 71 25 L 70 25 L 69 24 L 68 24 L 67 23 L 68 22 L 69 22 L 68 21 L 67 21 L 65 19 L 66 18 L 67 18 L 67 17 L 68 16 L 69 16 L 68 15 L 66 15 L 65 14 L 65 16 L 66 17 L 66 18 L 65 19 L 64 19 L 63 20 L 61 18 L 62 17 L 60 19 L 59 18 L 59 17 L 60 16 L 58 18 L 55 15 L 56 14 L 56 13 L 57 12 L 59 14 L 58 15 L 61 12 L 61 11 L 62 10 L 64 12 L 65 12 L 64 11 L 64 9 L 63 8 L 62 9 L 61 8 L 61 6 L 62 5 L 63 5 L 62 5 L 61 4 Z" fill="rgb(23,41,77)"/>
<rect x="0.0" y="509.0" width="719.0" height="505" fill="rgb(23,41,77)"/></svg>
