<svg viewBox="0 336.42 718.9855879732739 464.58" xmlns="http://www.w3.org/2000/svg" style="max-height: 500px" width="718.9855879732739" height="464.58">
  <path fill="rgb(44,82,154)" d="M 137 342 L 136 343 L 137 344 L 138 345 L 139 345 L 140 345 L 141 346 L 141 347 L 140 348 L 139 347 L 138 348 L 137 347 L 138 348 L 137 349 L 137 350 L 137 351 L 136 352 L 135 353 L 135 354 L 134 355 L 134 356 L 135 356 L 136 357 L 137 358 L 137 359 L 136 360 L 135 361 L 134 361 L 133 360 L 132 359 L 131 358 L 131 357 L 131 358 L 131 359 L 131 360 L 131 361 L 130 362 L 131 362 L 132 363 L 132 364 L 132 365 L 131 366 L 131 367 L 130 368 L 129 367 L 128 367 L 127 366 L 127 365 L 126 364 L 125 363 L 126 362 L 127 361 L 127 360 L 127 361 L 126 362 L 125 363 L 124 364 L 123 364 L 123 365 L 123 366 L 123 367 L 123 368 L 124 368 L 125 367 L 126 367 L 127 368 L 127 369 L 127 370 L 126 371 L 125 370 L 124 370 L 123 370 L 122 370 L 121 370 L 120 369 L 120 370 L 119 371 L 119 372 L 120 372 L 121 373 L 122 372 L 123 372 L 124 373 L 124 374 L 123 375 L 123 376 L 123 377 L 123 378 L 123 379 L 122 380 L 122 381 L 122 382 L 122 383 L 122 384 L 122 385 L 123 385 L 124 386 L 123 387 L 123 388 L 122 389 L 121 390 L 120 390 L 119 391 L 118 390 L 117 391 L 116 392 L 115 392 L 115 393 L 116 393 L 117 394 L 118 395 L 117 396 L 116 396 L 115 396 L 114 396 L 113 395 L 114 396 L 113 397 L 112 398 L 111 398 L 110 398 L 109 399 L 108 400 L 107 399 L 106 400 L 105 399 L 104 400 L 105 400 L 106 401 L 105 402 L 105 403 L 106 404 L 106 405 L 106 406 L 107 405 L 108 406 L 108 407 L 108 408 L 107 409 L 106 409 L 105 409 L 104 410 L 103 411 L 102 411 L 101 412 L 100 412 L 101 413 L 102 414 L 101 415 L 101 416 L 101 417 L 102 418 L 103 418 L 104 417 L 105 418 L 105 419 L 106 420 L 107 420 L 108 421 L 108 422 L 109 423 L 109 424 L 108 425 L 108 426 L 107 427 L 106 428 L 107 429 L 106 430 L 105 431 L 106 432 L 105 433 L 104 433 L 104 434 L 103 435 L 103 436 L 103 437 L 103 438 L 102 439 L 101 439 L 101 440 L 102 440 L 103 441 L 104 441 L 105 442 L 106 441 L 107 440 L 108 441 L 108 442 L 107 443 L 106 444 L 105 445 L 104 446 L 103 445 L 102 445 L 101 445 L 100 445 L 99 445 L 98 445 L 97 445 L 96 445 L 97 446 L 97 447 L 96 448 L 95 448 L 94 447 L 95 448 L 95 449 L 94 450 L 93 449 L 92 449 L 91 450 L 90 449 L 90 448 L 91 447 L 92 447 L 91 446 L 92 445 L 93 445 L 92 444 L 93 443 L 94 442 L 93 441 L 93 440 L 94 439 L 95 438 L 95 437 L 94 436 L 93 436 L 92 435 L 92 434 L 93 433 L 94 432 L 95 431 L 95 430 L 96 429 L 97 430 L 96 429 L 97 428 L 98 428 L 97 427 L 97 426 L 98 425 L 99 426 L 100 426 L 99 425 L 99 424 L 99 423 L 98 422 L 97 422 L 96 421 L 97 420 L 96 420 L 95 421 L 94 421 L 93 420 L 92 419 L 92 418 L 93 417 L 94 418 L 93 417 L 92 416 L 93 415 L 94 415 L 94 414 L 95 413 L 96 413 L 96 412 L 97 411 L 98 410 L 99 410 L 100 410 L 99 410 L 98 409 L 99 408 L 99 407 L 98 408 L 97 407 L 96 407 L 95 407 L 94 408 L 93 408 L 92 408 L 91 408 L 90 407 L 89 408 L 88 407 L 87 407 L 86 406 L 87 405 L 86 405 L 85 404 L 85 403 L 86 402 L 87 403 L 87 402 L 88 401 L 89 400 L 90 400 L 91 399 L 92 399 L 92 398 L 91 398 L 90 397 L 89 397 L 88 397 L 87 396 L 86 395 L 85 395 L 84 394 L 84 393 L 83 394 L 82 394 L 81 395 L 80 394 L 80 393 L 79 394 L 78 393 L 78 392 L 79 391 L 80 391 L 81 391 L 82 392 L 81 391 L 82 390 L 82 389 L 83 388 L 83 387 L 83 386 L 83 385 L 83 384 L 84 383 L 83 384 L 82 383 L 82 382 L 81 381 L 81 380 L 81 379 L 80 379 L 79 379 L 78 378 L 78 377 L 78 376 L 79 375 L 80 375 L 81 375 L 82 374 L 83 374 L 83 373 L 84 372 L 83 371 L 82 371 L 81 370 L 80 369 L 81 368 L 80 369 L 79 369 L 78 369 L 77 368 L 76 367 L 76 366 L 77 365 L 78 366 L 79 365 L 78 366 L 77 365 L 76 364 L 76 363 L 76 362 L 77 361 L 78 360 L 79 360 L 78 359 L 77 358 L 77 357 L 76 357 L 75 358 L 74 357 L 74 356 L 74 355 L 73 354 L 72 353 L 71 352 L 70 351 L 70 350 L 70 349 L 70 348 L 69 348 L 68 348 L 67 349 L 66 349 L 66 350 L 66 351 L 65 352 L 64 352 L 63 352 L 62 352 L 61 352 L 60 352 L 60 353 L 59 354 L 58 355 L 59 356 L 59 357 L 59 358 L 58 359 L 57 359 L 56 358 L 55 358 L 54 359 L 54 360 L 54 361 L 53 362 L 53 363 L 53 364 L 53 365 L 53 366 L 53 367 L 53 368 L 53 369 L 53 370 L 53 371 L 53 372 L 53 373 L 53 374 L 53 375 L 53 376 L 53 377 L 52 378 L 51 378 L 50 377 L 49 376 L 49 375 L 49 374 L 48 374 L 47 375 L 46 375 L 46 376 L 46 377 L 46 378 L 46 379 L 46 380 L 46 381 L 46 382 L 46 383 L 46 384 L 47 385 L 48 386 L 49 387 L 50 388 L 49 389 L 48 389 L 47 389 L 47 390 L 47 391 L 47 392 L 47 393 L 46 394 L 45 394 L 44 394 L 44 395 L 44 396 L 45 396 L 46 397 L 46 398 L 45 399 L 44 399 L 44 400 L 44 401 L 44 402 L 44 403 L 44 404 L 44 405 L 44 406 L 44 407 L 44 408 L 44 409 L 43 410 L 42 410 L 41 410 L 40 410 L 39 411 L 40 412 L 40 413 L 39 414 L 39 415 L 39 416 L 39 417 L 40 417 L 41 417 L 42 417 L 43 417 L 44 418 L 43 419 L 42 419 L 41 419 L 40 419 L 40 420 L 40 421 L 40 422 L 40 423 L 40 424 L 40 425 L 40 426 L 40 427 L 40 428 L 39 429 L 38 429 L 37 429 L 36 430 L 35 429 L 34 429 L 33 429 L 32 429 L 31 429 L 30 429 L 30 430 L 30 431 L 30 432 L 30 433 L 30 434 L 30 435 L 30 436 L 30 437 L 31 437 L 32 437 L 33 437 L 34 437 L 35 437 L 36 438 L 37 439 L 36 440 L 36 441 L 35 442 L 34 443 L 34 444 L 34 445 L 34 446 L 33 447 L 32 447 L 31 448 L 31 449 L 31 450 L 31 451 L 31 452 L 31 453 L 31 454 L 32 454 L 33 454 L 34 455 L 34 456 L 34 457 L 34 458 L 34 459 L 34 460 L 34 461 L 34 462 L 34 463 L 34 464 L 34 465 L 34 466 L 35 467 L 35 468 L 35 469 L 35 470 L 35 471 L 34 472 L 33 472 L 33 473 L 32 474 L 31 474 L 31 475 L 31 476 L 31 477 L 31 478 L 31 479 L 31 480 L 31 481 L 30 482 L 29 483 L 28 483 L 27 484 L 26 485 L 26 486 L 26 487 L 26 488 L 26 489 L 26 490 L 26 491 L 26 492 L 27 492 L 28 492 L 29 492 L 30 492 L 31 493 L 31 494 L 31 495 L 30 496 L 30 497 L 30 498 L 30 499 L 30 500 L 30 501 L 30 502 L 31 502 L 32 502 L 33 503 L 33 504 L 32 505 L 32 506 L 32 507 L 32 508 L 31 509 L 30 509 L 29 508 L 28 508 L 27 508 L 26 508 L 25 508 L 24 508 L 23 508 L 23 509 L 23 510 L 23 511 L 23 512 L 23 513 L 23 514 L 23 515 L 22 516 L 22 517 L 22 518 L 22 519 L 22 520 L 22 521 L 21 522 L 20 522 L 20 523 L 20 524 L 19 525 L 18 525 L 18 526 L 18 527 L 18 528 L 17 529 L 16 529 L 15 529 L 15 530 L 14 531 L 13 531 L 12 531 L 11 531 L 10 531 L 9 531 L 8 531 L 7 531 L 6 531 L 5 531 L 4 531 L 3 531 L 2 531 L 1 531 L 0 531 L 0 532 L 0 533 L 0 534 L 0 535 L 0 536 L 0 537 L 0 538 L 0 539 L 0 540 L 0 541 L 0 542 L 0 543 L 0 544 L 0 545 L 0 546 L 0 547 L 0 548 L 0 549 L 0 550 L 0 551 L 0 552 L 0 553 L 0 554 L 0 555 L 0 556 L 0 557 L 0 558 L 0 559 L 0 560 L 0 561 L 0 562 L 0 563 L 0 564 L 0 565 L 0 566 L 0 567 L 0 568 L 0 569 L 0 570 L 0 571 L 0 572 L 0 573 L 0 574 L 0 575 L 0 576 L 0 577 L 0 578 L 0 579 L 0 580 L 0 581 L 0 582 L 0 583 L 0 584 L 0 585 L 0 586 L 0 587 L 0 588 L 0 589 L 0 590 L 0 591 L 0 592 L 0 593 L 0 594 L 0 595 L 0 596 L 0 597 L 0 598 L 0 599 L 0 600 L 0 601 L 0 602 L 0 603 L 0 604 L 0 605 L 0 606 L 0 607 L 0 608 L 0 609 L 0 610 L 0 611 L 0 612 L 0 613 L 0 614 L 0 615 L 0 616 L 0 617 L 0 618 L 0 619 L 0 620 L 0 621 L 0 622 L 0 623 L 0 624 L 0 625 L 0 626 L 0 627 L 0 628 L 0 629 L 0 630 L 0 631 L 0 632 L 0 633 L 0 634 L 0 635 L 0 636 L 0 637 L 0 638 L 0 639 L 0 640 L 0 641 L 0 642 L 0 643 L 0 644 L 0 645 L 0 646 L 0 647 L 0 648 L 0 649 L 0 650 L 0 651 L 0 652 L 0 653 L 0 654 L 0 655 L 0 656 L 0 657 L 0 658 L 0 659 L 0 660 L 0 661 L 0 662 L 0 663 L 0 664 L 0 665 L 0 666 L 0 667 L 0 668 L 0 669 L 0 670 L 0 671 L 0 672 L 0 673 L 0 674 L 0 675 L 0 676 L 0 677 L 0 678 L 0 679 L 0 680 L 0 681 L 0 682 L 0 683 L 0 684 L 0 685 L 0 686 L 0 687 L 0 688 L 0 689 L 0 690 L 0 691 L 0 692 L 0 693 L 0 694 L 0 695 L 0 696 L 0 697 L 0 698 L 0 699 L 0 700 L 0 701 L 0 702 L 0 703 L 0 704 L 0 705 L 0 706 L 0 707 L 0 708 L 0 709 L 0 710 L 0 711 L 0 712 L 0 713 L 0 714 L 0 715 L 0 716 L 0 717 L 0 718 L 0 719 L 0 720 L 0 721 L 0 722 L 0 723 L 0 724 L 0 725 L 0 726 L 0 727 L 0 728 L 0 729 L 0 730 L 0 731 L 0 732 L 0 733 L 0 734 L 0 735 L 0 736 L 0 737 L 0 738 L 0 739 L 0 740 L 0 741 L 0 742 L 0 743 L 0 744 L 0 745 L 0 746 L 0 747 L 0 748 L 0 749 L 0 750 L 0 751 L 0 752 L 0 753 L 0 754 L 0 755 L 0 756 L 0 757 L 0 758 L 0 759 L 0 760 L 0 761 L 0 762 L 0 763 L 0 764 L 0 765 L 0 766 L 0 767 L 0 768 L 0 769 L 0 770 L 0 771 L 0 772 L 0 773 L 0 774 L 0 775 L 0 776 L 0 777 L 0 778 L 0 779 L 0 780 L 0 781 L 0 782 L 0 783 L 0 784 L 0 785 L 0 786 L 0 787 L 0 788 L 0 789 L 0 790 L 0 791 L 0 792 L 0 793 L 0 794 L 0 795 L 0 796 L 0 797 L 0 798 L 0 799 L 0 800 L 0 801 L 1 801 L 2 801 L 3 801 L 4 801 L 5 801 L 6 801 L 7 801 L 8 801 L 9 801 L 10 801 L 11 801 L 12 801 L 13 801 L 14 801 L 15 801 L 16 801 L 17 801 L 18 801 L 19 801 L 20 801 L 21 801 L 22 801 L 23 801 L 24 801 L 25 801 L 26 801 L 27 801 L 28 801 L 29 801 L 30 801 L 31 801 L 32 801 L 33 801 L 34 801 L 35 801 L 36 801 L 37 801 L 38 801 L 39 801 L 40 801 L 41 801 L 42 801 L 43 801 L 44 801 L 45 801 L 46 801 L 47 801 L 48 801 L 49 801 L 50 801 L 51 801 L 52 801 L 53 801 L 54 801 L 55 801 L 56 801 L 57 801 L 58 801 L 59 801 L 60 801 L 61 801 L 62 801 L 63 801 L 64 801 L 65 801 L 66 801 L 67 801 L 68 801 L 69 801 L 70 801 L 71 801 L 72 801 L 73 801 L 74 801 L 75 801 L 76 801 L 77 801 L 78 801 L 79 801 L 80 801 L 81 801 L 82 801 L 83 801 L 84 801 L 85 801 L 86 801 L 87 801 L 88 801 L 89 801 L 90 801 L 91 801 L 92 801 L 93 801 L 94 801 L 95 801 L 96 801 L 97 801 L 98 801 L 99 801 L 100 801 L 101 801 L 102 801 L 103 801 L 104 801 L 105 801 L 106 801 L 107 801 L 108 801 L 109 801 L 110 801 L 111 801 L 112 801 L 113 801 L 114 801 L 115 801 L 116 801 L 117 801 L 118 801 L 119 801 L 120 801 L 121 801 L 122 801 L 123 801 L 124 801 L 125 801 L 126 801 L 127 801 L 128 801 L 129 801 L 130 801 L 131 801 L 132 801 L 133 801 L 134 801 L 135 801 L 136 801 L 137 801 L 138 801 L 139 801 L 140 801 L 141 801 L 142 801 L 143 801 L 144 801 L 145 801 L 146 801 L 147 801 L 148 801 L 149 801 L 150 801 L 151 801 L 152 801 L 153 801 L 154 801 L 155 801 L 156 801 L 157 801 L 158 801 L 159 801 L 160 801 L 161 801 L 162 801 L 163 801 L 164 801 L 165 801 L 166 801 L 167 801 L 168 801 L 169 801 L 170 801 L 171 801 L 172 801 L 173 801 L 174 801 L 175 801 L 176 801 L 177 801 L 178 801 L 179 801 L 180 801 L 181 801 L 182 801 L 183 801 L 184 801 L 185 801 L 186 801 L 187 801 L 188 801 L 189 801 L 190 801 L 191 801 L 192 801 L 193 801 L 194 801 L 195 801 L 196 801 L 197 801 L 198 801 L 199 801 L 200 801 L 201 801 L 202 801 L 203 801 L 204 801 L 205 801 L 206 801 L 207 801 L 208 801 L 209 801 L 210 801 L 211 801 L 212 801 L 213 801 L 214 801 L 215 801 L 216 801 L 217 801 L 218 801 L 219 801 L 220 801 L 221 801 L 222 801 L 223 801 L 224 801 L 225 801 L 226 801 L 227 801 L 228 801 L 229 801 L 230 801 L 231 801 L 232 801 L 233 801 L 234 801 L 235 801 L 236 801 L 237 801 L 238 801 L 239 801 L 240 801 L 241 801 L 242 801 L 243 801 L 244 801 L 245 801 L 246 801 L 247 801 L 248 801 L 249 801 L 250 801 L 251 801 L 252 801 L 253 801 L 254 801 L 255 801 L 256 801 L 257 801 L 258 801 L 259 801 L 260 801 L 261 801 L 262 801 L 263 801 L 264 801 L 265 801 L 266 801 L 267 801 L 268 801 L 269 801 L 270 801 L 271 801 L 272 801 L 273 801 L 274 801 L 275 801 L 276 801 L 277 801 L 278 801 L 279 801 L 280 801 L 281 801 L 282 801 L 283 801 L 284 801 L 285 801 L 286 801 L 287 801 L 288 801 L 289 801 L 290 801 L 291 801 L 292 801 L 293 801 L 294 801 L 295 801 L 296 801 L 297 801 L 298 801 L 299 801 L 300 801 L 301 801 L 302 801 L 303 801 L 304 801 L 305 801 L 306 801 L 307 801 L 308 801 L 309 801 L 310 801 L 311 801 L 312 801 L 313 801 L 314 801 L 315 801 L 316 801 L 317 801 L 318 801 L 319 801 L 320 801 L 321 801 L 322 801 L 323 801 L 324 801 L 325 801 L 326 801 L 327 801 L 328 801 L 329 801 L 330 801 L 331 801 L 332 801 L 333 801 L 334 801 L 335 801 L 336 801 L 337 801 L 338 801 L 339 801 L 340 801 L 341 801 L 342 801 L 343 801 L 344 801 L 345 801 L 346 801 L 347 801 L 348 801 L 349 801 L 350 801 L 351 801 L 352 801 L 353 801 L 354 801 L 355 801 L 356 801 L 357 801 L 358 801 L 359 801 L 360 801 L 361 801 L 362 801 L 363 801 L 364 801 L 365 801 L 366 801 L 367 801 L 368 801 L 369 801 L 370 801 L 371 801 L 372 801 L 373 801 L 374 801 L 375 801 L 376 801 L 377 801 L 378 801 L 379 801 L 380 801 L 381 801 L 382 801 L 383 801 L 384 801 L 385 801 L 386 801 L 387 801 L 388 801 L 389 801 L 390 801 L 391 801 L 392 801 L 393 801 L 394 801 L 395 801 L 396 801 L 397 801 L 398 801 L 399 801 L 400 801 L 401 801 L 402 801 L 403 801 L 404 801 L 405 801 L 406 801 L 407 801 L 408 801 L 409 801 L 410 801 L 411 801 L 412 801 L 413 801 L 414 801 L 415 801 L 416 801 L 417 801 L 418 801 L 419 801 L 420 801 L 421 801 L 422 801 L 423 801 L 424 801 L 425 801 L 426 801 L 427 801 L 428 801 L 429 801 L 430 801 L 431 801 L 432 801 L 433 801 L 434 801 L 435 801 L 436 801 L 437 801 L 438 801 L 439 801 L 440 801 L 441 801 L 442 801 L 443 801 L 444 801 L 445 801 L 446 801 L 447 801 L 448 801 L 449 801 L 450 801 L 451 801 L 452 801 L 453 801 L 454 801 L 455 801 L 456 801 L 457 801 L 458 801 L 459 801 L 460 801 L 461 801 L 462 801 L 463 801 L 464 801 L 465 801 L 466 801 L 467 801 L 468 801 L 469 801 L 470 801 L 471 801 L 472 801 L 473 801 L 474 801 L 475 801 L 476 801 L 477 801 L 478 801 L 479 801 L 480 801 L 481 801 L 482 801 L 483 801 L 484 801 L 485 801 L 486 801 L 487 801 L 488 801 L 489 801 L 490 801 L 491 801 L 492 801 L 493 801 L 494 801 L 495 801 L 496 801 L 497 801 L 498 801 L 499 801 L 500 801 L 501 801 L 502 801 L 503 801 L 504 801 L 505 801 L 506 801 L 507 801 L 508 801 L 509 801 L 510 801 L 511 801 L 512 801 L 513 801 L 514 801 L 515 801 L 516 801 L 517 801 L 518 801 L 519 801 L 520 801 L 521 801 L 522 801 L 523 801 L 524 801 L 525 801 L 526 801 L 527 801 L 528 801 L 529 801 L 530 801 L 531 801 L 532 801 L 533 801 L 534 801 L 535 801 L 536 801 L 537 801 L 538 801 L 539 801 L 540 801 L 541 801 L 542 801 L 543 801 L 544 801 L 545 801 L 546 801 L 547 801 L 548 801 L 549 801 L 550 801 L 551 801 L 552 801 L 553 801 L 554 801 L 555 801 L 556 801 L 557 801 L 558 801 L 559 801 L 560 801 L 561 801 L 562 801 L 563 801 L 564 801 L 565 801 L 566 801 L 567 801 L 568 801 L 569 801 L 570 801 L 571 801 L 572 801 L 573 801 L 574 801 L 575 801 L 576 801 L 577 801 L 578 801 L 579 801 L 580 801 L 581 801 L 582 801 L 583 801 L 584 801 L 585 801 L 586 801 L 587 801 L 588 801 L 589 801 L 590 801 L 591 801 L 592 801 L 593 801 L 594 801 L 595 801 L 596 801 L 597 801 L 598 801 L 599 801 L 600 801 L 601 801 L 602 801 L 603 801 L 604 801 L 605 801 L 606 801 L 607 801 L 608 801 L 609 801 L 610 801 L 611 801 L 612 801 L 613 801 L 614 801 L 615 801 L 616 801 L 617 801 L 618 801 L 619 801 L 620 801 L 621 801 L 622 801 L 623 801 L 624 801 L 625 801 L 626 801 L 627 801 L 628 801 L 629 801 L 630 801 L 631 801 L 632 801 L 633 801 L 634 801 L 635 801 L 636 801 L 637 801 L 638 801 L 639 801 L 640 801 L 641 801 L 642 801 L 643 801 L 644 801 L 645 801 L 646 801 L 647 801 L 648 801 L 649 801 L 650 801 L 651 801 L 652 801 L 653 801 L 654 801 L 655 801 L 656 801 L 657 801 L 658 801 L 659 801 L 660 801 L 661 801 L 662 801 L 663 801 L 664 801 L 665 801 L 666 801 L 667 801 L 668 801 L 669 801 L 670 801 L 671 801 L 672 801 L 673 801 L 674 801 L 675 801 L 676 801 L 677 801 L 678 801 L 679 801 L 680 801 L 681 801 L 682 801 L 683 801 L 684 801 L 685 801 L 686 801 L 687 801 L 688 801 L 689 801 L 690 801 L 691 801 L 692 801 L 693 801 L 694 801 L 695 801 L 696 801 L 697 801 L 698 801 L 699 801 L 700 801 L 701 801 L 702 801 L 703 801 L 704 801 L 705 801 L 706 801 L 707 801 L 708 801 L 709 801 L 710 801 L 711 801 L 712 801 L 713 801 L 714 801 L 715 801 L 716 801 L 717 801 L 718 801 L 719 801 L 719 800 L 719 799 L 719 798 L 719 797 L 719 796 L 719 795 L 719 794 L 719 793 L 719 792 L 719 791 L 719 790 L 719 789 L 719 788 L 719 787 L 719 786 L 719 785 L 719 784 L 719 783 L 719 782 L 719 781 L 719 780 L 719 779 L 719 778 L 719 777 L 719 776 L 719 775 L 719 774 L 719 773 L 719 772 L 719 771 L 719 770 L 719 769 L 719 768 L 719 767 L 719 766 L 719 765 L 719 764 L 719 763 L 719 762 L 719 761 L 719 760 L 719 759 L 719 758 L 719 757 L 719 756 L 719 755 L 719 754 L 719 753 L 719 752 L 719 751 L 719 750 L 719 749 L 719 748 L 719 747 L 719 746 L 719 745 L 719 744 L 719 743 L 719 742 L 719 741 L 719 740 L 719 739 L 719 738 L 719 737 L 719 736 L 719 735 L 719 734 L 719 733 L 719 732 L 719 731 L 719 730 L 719 729 L 719 728 L 719 727 L 719 726 L 719 725 L 719 724 L 719 723 L 719 722 L 719 721 L 719 720 L 719 719 L 719 718 L 719 717 L 719 716 L 719 715 L 719 714 L 719 713 L 719 712 L 719 711 L 719 710 L 719 709 L 719 708 L 719 707 L 719 706 L 719 705 L 719 704 L 719 703 L 719 702 L 719 701 L 719 700 L 719 699 L 719 698 L 719 697 L 719 696 L 719 695 L 719 694 L 719 693 L 719 692 L 719 691 L 719 690 L 719 689 L 719 688 L 719 687 L 719 686 L 719 685 L 719 684 L 719 683 L 719 682 L 719 681 L 719 680 L 719 679 L 719 678 L 719 677 L 719 676 L 719 675 L 719 674 L 719 673 L 719 672 L 719 671 L 719 670 L 719 669 L 719 668 L 719 667 L 719 666 L 719 665 L 719 664 L 719 663 L 719 662 L 719 661 L 719 660 L 719 659 L 719 658 L 719 657 L 719 656 L 719 655 L 719 654 L 719 653 L 719 652 L 719 651 L 719 650 L 719 649 L 719 648 L 719 647 L 719 646 L 719 645 L 719 644 L 719 643 L 719 642 L 719 641 L 719 640 L 719 639 L 719 638 L 719 637 L 719 636 L 719 635 L 719 634 L 719 633 L 719 632 L 719 631 L 719 630 L 719 629 L 719 628 L 719 627 L 719 626 L 719 625 L 719 624 L 719 623 L 719 622 L 719 621 L 719 620 L 719 619 L 719 618 L 719 617 L 719 616 L 719 615 L 719 614 L 719 613 L 719 612 L 719 611 L 719 610 L 719 609 L 719 608 L 719 607 L 719 606 L 719 605 L 719 604 L 719 603 L 719 602 L 719 601 L 719 600 L 719 599 L 719 598 L 719 597 L 719 596 L 719 595 L 719 594 L 719 593 L 719 592 L 719 591 L 719 590 L 719 589 L 719 588 L 719 587 L 719 586 L 719 585 L 719 584 L 719 583 L 719 582 L 719 581 L 719 580 L 719 579 L 719 578 L 719 577 L 719 576 L 719 575 L 719 574 L 719 573 L 719 572 L 719 571 L 719 570 L 719 569 L 719 568 L 719 567 L 719 566 L 719 565 L 719 564 L 719 563 L 719 562 L 719 561 L 719 560 L 719 559 L 719 558 L 719 557 L 719 556 L 719 555 L 719 554 L 719 553 L 719 552 L 719 551 L 719 550 L 719 549 L 719 548 L 719 547 L 719 546 L 719 545 L 719 544 L 719 543 L 719 542 L 719 541 L 719 540 L 719 539 L 719 538 L 719 537 L 719 536 L 719 535 L 719 534 L 719 533 L 719 532 L 719 531 L 719 530 L 719 529 L 719 528 L 719 527 L 719 526 L 719 525 L 719 524 L 719 523 L 719 522 L 719 521 L 719 520 L 719 519 L 719 518 L 719 517 L 719 516 L 719 515 L 719 514 L 719 513 L 719 512 L 719 511 L 719 510 L 719 509 L 719 508 L 719 507 L 719 506 L 719 505 L 719 504 L 719 503 L 719 502 L 719 501 L 719 500 L 719 499 L 719 498 L 719 497 L 719 496 L 719 495 L 719 494 L 719 493 L 719 492 L 719 491 L 719 490 L 719 489 L 719 488 L 719 487 L 719 486 L 719 485 L 719 484 L 719 483 L 719 482 L 719 481 L 719 480 L 719 479 L 719 478 L 719 477 L 719 476 L 719 475 L 719 474 L 719 473 L 719 472 L 719 471 L 719 470 L 719 469 L 719 468 L 719 467 L 719 466 L 719 465 L 719 464 L 719 463 L 719 462 L 719 461 L 719 460 L 719 459 L 719 458 L 719 457 L 719 456 L 719 455 L 719 454 L 719 453 L 719 452 L 719 451 L 719 450 L 719 449 L 719 448 L 719 447 L 719 446 L 719 445 L 719 444 L 719 443 L 719 442 L 719 441 L 719 440 L 719 439 L 719 438 L 719 437 L 719 436 L 719 435 L 719 434 L 719 433 L 719 432 L 719 431 L 719 430 L 719 429 L 719 428 L 719 427 L 719 426 L 719 425 L 719 424 L 719 423 L 719 422 L 719 421 L 719 420 L 719 419 L 719 418 L 719 417 L 719 416 L 719 415 L 719 414 L 719 413 L 719 412 L 719 411 L 719 410 L 719 409 L 719 408 L 719 407 L 719 406 L 719 405 L 719 404 L 719 403 L 719 402 L 719 401 L 719 400 L 719 399 L 719 398 L 719 397 L 719 396 L 719 395 L 719 394 L 719 393 L 719 392 L 719 391 L 719 390 L 719 389 L 719 388 L 719 387 L 719 386 L 719 385 L 719 384 L 719 383 L 719 382 L 719 381 L 719 380 L 719 379 L 719 378 L 719 377 L 718 376 L 717 376 L 716 376 L 715 375 L 715 374 L 714 373 L 713 373 L 712 372 L 711 371 L 711 370 L 711 371 L 712 372 L 711 373 L 710 373 L 709 372 L 709 371 L 709 370 L 709 369 L 709 368 L 710 367 L 711 367 L 712 367 L 713 368 L 713 369 L 713 370 L 714 370 L 715 371 L 716 372 L 717 373 L 718 374 L 719 374 L 719 373 L 719 372 L 719 371 L 718 370 L 717 369 L 716 369 L 715 369 L 714 368 L 713 367 L 712 367 L 711 367 L 710 367 L 709 366 L 709 365 L 709 364 L 709 365 L 709 366 L 708 367 L 709 368 L 708 369 L 707 370 L 707 371 L 706 372 L 707 372 L 708 373 L 708 374 L 707 375 L 706 375 L 705 375 L 704 374 L 705 375 L 705 376 L 705 377 L 704 378 L 703 378 L 702 377 L 701 377 L 701 378 L 702 379 L 701 380 L 700 380 L 699 380 L 700 380 L 701 381 L 700 382 L 699 382 L 698 382 L 697 383 L 696 383 L 695 383 L 695 384 L 694 385 L 693 384 L 692 384 L 691 384 L 690 385 L 689 385 L 688 385 L 687 385 L 686 384 L 685 383 L 686 382 L 687 382 L 686 382 L 685 381 L 685 380 L 685 379 L 685 378 L 685 377 L 685 376 L 685 375 L 685 376 L 685 377 L 685 378 L 685 379 L 685 380 L 684 381 L 684 382 L 683 383 L 683 384 L 684 385 L 684 386 L 683 387 L 682 387 L 681 386 L 681 385 L 681 386 L 681 387 L 680 388 L 679 388 L 678 388 L 677 389 L 676 389 L 675 390 L 674 390 L 673 390 L 672 390 L 671 391 L 670 391 L 669 391 L 668 390 L 668 389 L 668 388 L 668 387 L 668 388 L 667 389 L 668 390 L 668 391 L 667 392 L 666 393 L 665 393 L 664 392 L 664 391 L 664 390 L 663 389 L 663 388 L 663 389 L 662 390 L 661 390 L 660 390 L 659 390 L 658 391 L 657 392 L 656 393 L 655 393 L 654 394 L 653 394 L 652 394 L 651 395 L 650 395 L 649 394 L 648 393 L 649 392 L 650 392 L 651 392 L 652 391 L 653 391 L 653 390 L 654 389 L 654 388 L 655 387 L 656 387 L 657 387 L 658 386 L 659 386 L 660 387 L 659 388 L 660 388 L 660 387 L 660 386 L 661 385 L 660 384 L 660 383 L 661 382 L 661 381 L 661 380 L 660 379 L 661 378 L 660 379 L 659 380 L 658 380 L 657 381 L 656 381 L 655 381 L 655 382 L 654 383 L 653 384 L 652 385 L 651 385 L 651 386 L 650 387 L 649 386 L 648 386 L 647 385 L 647 384 L 647 383 L 648 382 L 649 382 L 649 381 L 650 380 L 651 379 L 652 380 L 653 380 L 653 379 L 652 378 L 652 377 L 652 376 L 653 375 L 654 375 L 655 374 L 656 375 L 655 374 L 654 373 L 654 372 L 654 371 L 654 370 L 654 371 L 653 372 L 652 371 L 651 370 L 650 369 L 649 370 L 648 369 L 648 368 L 649 367 L 649 366 L 649 365 L 650 364 L 649 363 L 648 364 L 647 363 L 646 362 L 645 361 L 645 360 L 646 359 L 647 358 L 646 358 L 645 358 L 644 358 L 643 357 L 642 356 L 643 355 L 643 354 L 644 353 L 644 352 L 644 351 L 643 351 L 642 350 L 641 349 L 642 348 L 643 347 L 642 346 L 641 347 L 642 348 L 641 349 L 641 350 L 641 351 L 641 352 L 640 353 L 641 353 L 642 354 L 641 355 L 640 356 L 639 357 L 639 358 L 638 359 L 638 360 L 637 361 L 636 362 L 637 362 L 638 363 L 639 364 L 639 365 L 639 366 L 638 367 L 637 367 L 636 368 L 635 367 L 635 366 L 635 365 L 634 365 L 634 366 L 634 367 L 635 368 L 635 369 L 635 370 L 634 371 L 634 372 L 633 373 L 632 372 L 631 371 L 630 370 L 629 370 L 628 369 L 629 368 L 628 369 L 627 369 L 627 370 L 626 371 L 627 370 L 628 371 L 628 372 L 629 371 L 630 372 L 631 373 L 630 374 L 629 375 L 628 374 L 627 374 L 626 375 L 625 374 L 625 375 L 625 376 L 626 375 L 627 376 L 628 377 L 628 378 L 627 379 L 627 380 L 627 381 L 627 382 L 627 383 L 627 384 L 627 385 L 628 385 L 629 386 L 629 387 L 629 388 L 629 389 L 629 390 L 629 391 L 628 392 L 627 392 L 626 391 L 625 391 L 624 392 L 623 392 L 622 392 L 621 393 L 620 392 L 619 392 L 620 392 L 621 393 L 621 394 L 622 395 L 622 396 L 621 397 L 620 398 L 619 398 L 618 399 L 617 398 L 616 397 L 615 396 L 615 397 L 615 398 L 615 399 L 615 400 L 614 401 L 614 402 L 614 403 L 614 404 L 613 405 L 612 406 L 611 405 L 610 405 L 609 404 L 608 404 L 607 404 L 606 405 L 605 405 L 604 404 L 603 403 L 603 404 L 604 405 L 605 405 L 606 405 L 607 405 L 608 405 L 609 405 L 610 406 L 611 407 L 611 408 L 611 409 L 611 410 L 610 411 L 609 411 L 609 412 L 609 413 L 609 414 L 610 414 L 611 413 L 612 414 L 613 415 L 614 416 L 614 417 L 615 418 L 616 418 L 617 419 L 617 420 L 617 421 L 617 422 L 616 423 L 615 423 L 614 423 L 613 424 L 613 425 L 613 426 L 612 427 L 612 428 L 612 429 L 612 430 L 611 431 L 612 432 L 612 433 L 612 434 L 613 435 L 613 436 L 612 437 L 611 437 L 610 436 L 610 435 L 610 436 L 610 437 L 609 438 L 608 437 L 607 437 L 607 438 L 607 439 L 607 440 L 607 441 L 607 442 L 606 443 L 606 444 L 607 445 L 608 446 L 608 447 L 607 448 L 608 449 L 607 450 L 606 450 L 605 450 L 604 450 L 605 451 L 604 452 L 603 452 L 602 453 L 601 454 L 600 454 L 599 454 L 598 454 L 597 454 L 596 454 L 595 454 L 594 454 L 593 455 L 592 455 L 591 455 L 590 454 L 589 453 L 590 452 L 590 451 L 591 450 L 592 449 L 593 448 L 594 448 L 595 447 L 595 446 L 596 445 L 597 446 L 598 445 L 597 444 L 596 445 L 595 444 L 595 443 L 596 442 L 595 443 L 594 443 L 593 442 L 592 441 L 591 442 L 590 441 L 589 442 L 588 441 L 587 440 L 586 441 L 585 440 L 584 440 L 583 439 L 583 438 L 584 437 L 585 436 L 586 435 L 587 435 L 588 435 L 587 434 L 588 433 L 588 432 L 588 431 L 588 430 L 588 429 L 588 428 L 588 427 L 587 427 L 586 427 L 585 426 L 584 426 L 583 426 L 582 425 L 581 425 L 580 424 L 581 423 L 582 423 L 583 422 L 584 422 L 585 422 L 586 422 L 585 421 L 586 420 L 587 420 L 588 421 L 589 421 L 590 422 L 591 421 L 590 422 L 589 421 L 588 421 L 587 420 L 588 419 L 587 418 L 587 417 L 587 416 L 586 416 L 585 415 L 584 415 L 583 414 L 582 414 L 581 415 L 580 415 L 579 414 L 578 415 L 577 414 L 576 413 L 576 412 L 577 411 L 578 410 L 579 410 L 580 410 L 580 409 L 581 408 L 582 407 L 583 407 L 584 406 L 584 405 L 583 405 L 582 405 L 581 404 L 582 403 L 581 404 L 580 404 L 579 404 L 578 403 L 577 403 L 576 402 L 576 401 L 575 400 L 574 399 L 575 398 L 576 397 L 577 396 L 578 396 L 579 396 L 580 396 L 581 397 L 582 398 L 583 398 L 583 397 L 582 397 L 581 396 L 580 396 L 579 395 L 578 394 L 577 394 L 576 394 L 575 394 L 574 394 L 573 394 L 572 393 L 573 392 L 573 391 L 574 390 L 573 391 L 572 390 L 571 390 L 570 389 L 571 388 L 570 387 L 569 386 L 570 385 L 569 384 L 569 383 L 569 382 L 569 381 L 570 380 L 571 380 L 571 379 L 570 379 L 569 379 L 568 380 L 567 381 L 566 380 L 566 379 L 566 378 L 566 377 L 566 378 L 565 379 L 565 380 L 564 381 L 563 382 L 562 383 L 561 384 L 560 383 L 561 384 L 560 385 L 559 385 L 559 386 L 559 387 L 558 388 L 558 389 L 557 390 L 556 391 L 555 392 L 554 391 L 555 392 L 554 393 L 555 394 L 555 395 L 556 396 L 557 397 L 557 398 L 557 399 L 556 400 L 555 399 L 555 398 L 555 399 L 555 400 L 554 401 L 553 400 L 552 401 L 551 402 L 551 403 L 552 404 L 553 405 L 552 406 L 551 407 L 552 408 L 553 409 L 552 410 L 553 409 L 554 410 L 554 411 L 553 412 L 552 413 L 551 413 L 550 414 L 549 415 L 548 415 L 549 415 L 550 416 L 551 417 L 551 418 L 551 419 L 550 420 L 549 419 L 548 420 L 547 421 L 546 421 L 545 422 L 546 423 L 546 424 L 546 425 L 546 426 L 547 425 L 548 425 L 549 426 L 549 427 L 548 428 L 549 428 L 550 428 L 551 429 L 550 430 L 549 430 L 548 431 L 547 430 L 546 430 L 545 429 L 544 430 L 543 430 L 542 430 L 541 430 L 541 431 L 540 432 L 539 432 L 538 431 L 539 432 L 539 433 L 538 434 L 539 435 L 539 436 L 540 437 L 539 438 L 538 439 L 539 440 L 538 441 L 537 442 L 536 442 L 535 443 L 534 443 L 535 444 L 534 445 L 533 445 L 532 444 L 532 443 L 532 442 L 532 441 L 532 440 L 532 439 L 533 438 L 532 437 L 531 438 L 530 438 L 530 439 L 529 440 L 528 439 L 527 438 L 526 437 L 527 436 L 527 435 L 526 434 L 527 433 L 527 432 L 526 431 L 527 430 L 528 430 L 529 429 L 529 428 L 529 427 L 528 426 L 527 425 L 527 424 L 526 423 L 527 422 L 526 421 L 526 420 L 526 419 L 525 420 L 524 420 L 523 419 L 523 418 L 523 417 L 522 416 L 522 415 L 521 414 L 521 413 L 520 412 L 520 411 L 521 410 L 520 410 L 519 410 L 518 409 L 518 408 L 518 407 L 518 406 L 517 405 L 516 404 L 517 403 L 516 402 L 517 401 L 516 400 L 515 399 L 514 399 L 514 400 L 513 401 L 512 400 L 513 401 L 513 402 L 513 403 L 512 404 L 513 405 L 513 406 L 513 407 L 512 408 L 511 409 L 510 408 L 511 409 L 510 410 L 509 411 L 508 412 L 507 413 L 506 412 L 506 413 L 506 414 L 505 415 L 504 416 L 504 417 L 503 418 L 503 419 L 503 420 L 504 421 L 503 422 L 504 422 L 505 423 L 506 424 L 505 425 L 504 425 L 505 426 L 504 427 L 503 427 L 502 428 L 502 429 L 501 430 L 500 430 L 501 431 L 500 432 L 499 432 L 498 432 L 497 433 L 497 434 L 498 435 L 499 436 L 498 437 L 497 438 L 496 438 L 496 439 L 496 440 L 497 441 L 498 442 L 497 443 L 496 443 L 497 444 L 497 445 L 496 446 L 495 445 L 495 446 L 494 447 L 493 446 L 493 445 L 492 444 L 492 443 L 491 442 L 491 441 L 491 440 L 491 439 L 490 439 L 489 438 L 488 437 L 488 436 L 488 435 L 487 434 L 487 433 L 487 432 L 486 431 L 486 430 L 485 429 L 485 428 L 485 427 L 484 427 L 483 427 L 483 428 L 483 429 L 482 430 L 482 431 L 482 432 L 482 433 L 481 434 L 481 435 L 481 436 L 480 437 L 479 438 L 478 439 L 477 440 L 476 440 L 475 441 L 474 440 L 474 441 L 474 442 L 475 443 L 474 444 L 473 444 L 472 445 L 473 445 L 474 446 L 474 447 L 474 448 L 474 449 L 474 450 L 475 451 L 475 452 L 475 453 L 474 454 L 473 454 L 472 455 L 471 456 L 471 457 L 470 458 L 469 459 L 468 459 L 467 460 L 467 461 L 467 462 L 467 463 L 467 464 L 466 465 L 465 464 L 465 465 L 465 466 L 464 467 L 463 466 L 462 466 L 461 465 L 460 465 L 459 465 L 458 464 L 459 463 L 460 463 L 459 462 L 459 461 L 459 460 L 459 459 L 459 458 L 460 457 L 460 456 L 460 455 L 460 454 L 460 453 L 459 452 L 458 451 L 458 450 L 458 449 L 458 448 L 458 447 L 457 447 L 456 447 L 455 446 L 455 445 L 454 444 L 454 443 L 455 442 L 454 442 L 453 441 L 453 440 L 453 439 L 453 438 L 452 438 L 451 437 L 450 437 L 449 436 L 450 435 L 451 435 L 450 434 L 450 433 L 449 432 L 448 431 L 447 430 L 447 429 L 447 428 L 447 427 L 446 427 L 446 428 L 445 429 L 445 430 L 444 431 L 443 430 L 444 431 L 445 432 L 444 433 L 443 434 L 443 435 L 443 436 L 442 437 L 441 438 L 440 439 L 439 440 L 438 441 L 437 440 L 438 441 L 437 442 L 437 443 L 436 444 L 435 445 L 436 446 L 437 447 L 437 448 L 436 449 L 436 450 L 437 451 L 438 452 L 438 453 L 437 454 L 436 453 L 436 454 L 435 455 L 434 455 L 434 456 L 434 457 L 433 458 L 432 457 L 432 456 L 432 457 L 431 458 L 430 459 L 429 460 L 429 461 L 430 462 L 429 463 L 430 462 L 431 463 L 431 464 L 430 465 L 429 465 L 428 465 L 427 465 L 426 466 L 425 465 L 424 464 L 423 465 L 422 464 L 422 463 L 421 462 L 422 461 L 422 460 L 421 459 L 421 458 L 422 457 L 421 456 L 422 455 L 423 455 L 422 455 L 421 456 L 420 455 L 420 454 L 419 453 L 418 452 L 418 451 L 418 450 L 418 449 L 418 448 L 419 447 L 418 446 L 418 445 L 417 444 L 416 443 L 415 442 L 414 442 L 413 441 L 414 440 L 413 439 L 414 438 L 413 439 L 412 439 L 411 438 L 411 437 L 410 436 L 411 435 L 412 434 L 412 433 L 413 432 L 413 431 L 414 430 L 415 429 L 414 428 L 415 427 L 414 427 L 413 426 L 414 425 L 413 426 L 412 425 L 411 424 L 411 423 L 410 423 L 409 422 L 408 421 L 407 420 L 407 419 L 406 420 L 405 419 L 406 420 L 405 421 L 404 422 L 403 423 L 402 422 L 401 423 L 400 422 L 401 423 L 401 424 L 401 425 L 401 424 L 401 423 L 402 422 L 403 423 L 404 424 L 403 425 L 403 426 L 402 427 L 403 428 L 402 429 L 401 429 L 401 430 L 400 431 L 400 432 L 400 433 L 399 434 L 399 435 L 399 436 L 400 437 L 399 438 L 398 439 L 397 439 L 397 440 L 396 441 L 395 440 L 396 441 L 395 442 L 396 443 L 395 444 L 394 444 L 393 443 L 394 444 L 395 444 L 396 445 L 395 446 L 395 447 L 395 448 L 395 449 L 395 450 L 395 449 L 396 448 L 397 449 L 397 450 L 397 451 L 397 452 L 396 453 L 395 453 L 396 454 L 396 455 L 395 456 L 394 457 L 393 458 L 392 458 L 391 457 L 391 456 L 391 455 L 391 454 L 391 453 L 390 452 L 390 451 L 389 450 L 388 449 L 389 448 L 390 447 L 389 447 L 388 446 L 388 447 L 387 448 L 387 449 L 387 450 L 386 451 L 386 452 L 386 453 L 386 454 L 386 455 L 385 456 L 385 457 L 384 458 L 383 459 L 382 459 L 381 460 L 380 461 L 379 461 L 378 462 L 378 463 L 377 464 L 376 464 L 375 463 L 376 462 L 376 461 L 375 461 L 374 461 L 374 462 L 374 463 L 373 464 L 372 464 L 373 465 L 373 466 L 373 467 L 373 468 L 372 469 L 372 470 L 371 471 L 370 472 L 369 473 L 368 474 L 367 474 L 366 475 L 365 476 L 365 477 L 364 478 L 363 479 L 363 480 L 364 480 L 365 481 L 365 482 L 364 483 L 364 484 L 363 485 L 362 486 L 361 485 L 361 484 L 360 483 L 360 482 L 359 482 L 358 482 L 357 482 L 356 482 L 355 481 L 356 480 L 357 480 L 358 480 L 357 480 L 356 480 L 355 479 L 356 478 L 356 477 L 357 476 L 358 475 L 358 474 L 359 473 L 360 472 L 361 472 L 361 471 L 361 470 L 361 469 L 360 469 L 359 468 L 358 467 L 359 466 L 358 465 L 358 464 L 358 463 L 357 464 L 356 463 L 355 464 L 354 463 L 353 464 L 352 463 L 352 462 L 352 461 L 353 460 L 353 459 L 353 458 L 353 457 L 353 456 L 353 455 L 353 454 L 354 453 L 354 452 L 355 451 L 355 450 L 354 449 L 353 448 L 353 447 L 352 446 L 352 445 L 352 444 L 352 443 L 351 444 L 350 444 L 349 444 L 348 443 L 349 442 L 350 442 L 350 441 L 349 441 L 348 440 L 348 439 L 347 438 L 346 437 L 345 436 L 346 435 L 346 434 L 345 434 L 344 433 L 344 432 L 344 431 L 343 430 L 343 429 L 343 428 L 342 427 L 343 426 L 342 426 L 341 425 L 342 424 L 342 423 L 341 423 L 340 423 L 339 424 L 338 424 L 339 425 L 339 426 L 338 427 L 337 428 L 337 429 L 338 428 L 339 429 L 339 430 L 338 431 L 338 432 L 337 433 L 336 434 L 335 434 L 334 435 L 333 436 L 332 437 L 331 438 L 331 439 L 331 440 L 330 441 L 329 442 L 330 442 L 331 442 L 332 443 L 331 444 L 331 445 L 331 446 L 330 447 L 329 448 L 328 449 L 328 450 L 329 451 L 328 452 L 329 453 L 328 454 L 327 454 L 326 454 L 326 455 L 325 456 L 324 455 L 323 456 L 324 457 L 323 458 L 323 459 L 324 460 L 323 461 L 322 462 L 321 461 L 321 460 L 321 461 L 320 462 L 319 462 L 318 461 L 319 460 L 318 460 L 317 459 L 317 458 L 318 457 L 319 458 L 319 457 L 318 456 L 319 455 L 318 454 L 317 454 L 316 454 L 315 455 L 314 455 L 313 456 L 312 455 L 311 454 L 311 453 L 312 452 L 312 451 L 312 450 L 313 449 L 314 448 L 315 449 L 315 448 L 315 447 L 315 446 L 316 445 L 316 444 L 315 443 L 315 442 L 316 441 L 317 441 L 316 440 L 315 439 L 316 438 L 315 437 L 314 438 L 313 438 L 312 438 L 311 437 L 312 436 L 313 435 L 314 434 L 315 435 L 315 434 L 315 433 L 315 432 L 315 431 L 315 430 L 314 429 L 314 428 L 315 427 L 315 426 L 315 425 L 315 424 L 316 423 L 317 424 L 318 425 L 318 426 L 318 425 L 319 424 L 318 423 L 317 424 L 316 423 L 315 422 L 316 423 L 315 424 L 314 424 L 313 423 L 312 422 L 312 421 L 313 420 L 313 419 L 312 418 L 312 417 L 312 416 L 312 415 L 312 414 L 312 413 L 312 412 L 312 411 L 311 410 L 311 409 L 311 408 L 310 407 L 311 406 L 311 405 L 310 404 L 310 403 L 311 402 L 310 401 L 310 400 L 310 399 L 309 398 L 309 397 L 310 396 L 309 395 L 310 394 L 309 393 L 308 392 L 309 391 L 310 391 L 311 392 L 310 391 L 309 390 L 308 389 L 308 388 L 308 387 L 307 386 L 308 385 L 308 384 L 307 384 L 306 383 L 307 382 L 308 381 L 307 380 L 306 379 L 306 378 L 306 377 L 307 376 L 306 376 L 305 375 L 304 374 L 305 373 L 304 372 L 303 371 L 303 370 L 303 369 L 303 368 L 303 367 L 303 366 L 302 366 L 301 365 L 301 364 L 301 363 L 301 364 L 300 365 L 299 366 L 298 367 L 298 368 L 297 369 L 298 370 L 297 371 L 296 371 L 297 371 L 298 372 L 298 373 L 298 374 L 297 375 L 296 376 L 297 377 L 296 378 L 296 379 L 295 380 L 295 381 L 295 382 L 295 383 L 294 384 L 294 385 L 294 386 L 294 387 L 294 388 L 294 389 L 294 390 L 294 391 L 294 392 L 294 393 L 294 394 L 294 395 L 293 396 L 292 396 L 291 396 L 292 396 L 293 397 L 293 398 L 292 399 L 291 398 L 290 398 L 291 399 L 292 400 L 291 401 L 292 402 L 292 403 L 291 404 L 290 405 L 291 406 L 292 407 L 293 408 L 292 409 L 291 410 L 291 411 L 292 412 L 291 413 L 290 413 L 291 414 L 290 415 L 289 416 L 290 417 L 289 418 L 289 419 L 288 420 L 289 421 L 289 422 L 289 423 L 290 424 L 289 425 L 290 426 L 290 427 L 289 428 L 288 429 L 287 429 L 287 430 L 288 431 L 289 432 L 288 433 L 289 434 L 288 435 L 287 436 L 286 435 L 287 436 L 287 437 L 287 438 L 287 439 L 287 440 L 288 441 L 288 442 L 287 443 L 286 443 L 286 444 L 285 445 L 284 445 L 285 446 L 284 447 L 284 448 L 283 449 L 282 448 L 281 447 L 280 446 L 279 445 L 280 444 L 281 444 L 282 444 L 281 444 L 280 443 L 280 442 L 281 441 L 282 440 L 282 439 L 282 438 L 283 437 L 284 438 L 284 439 L 284 438 L 285 437 L 284 436 L 283 435 L 283 434 L 282 433 L 281 434 L 280 434 L 279 433 L 278 432 L 279 431 L 279 430 L 280 429 L 280 428 L 280 427 L 280 426 L 280 425 L 280 424 L 280 423 L 280 422 L 281 421 L 280 420 L 279 419 L 279 418 L 278 417 L 278 416 L 279 415 L 278 414 L 277 413 L 276 413 L 275 412 L 276 411 L 277 410 L 277 409 L 278 408 L 277 407 L 278 406 L 278 405 L 278 404 L 277 404 L 276 403 L 277 402 L 277 401 L 276 400 L 275 399 L 275 398 L 275 397 L 276 396 L 276 395 L 275 394 L 276 393 L 276 392 L 277 391 L 277 390 L 277 391 L 276 392 L 275 391 L 275 390 L 275 389 L 275 388 L 275 387 L 274 386 L 274 385 L 275 384 L 276 383 L 275 384 L 274 384 L 273 383 L 273 382 L 272 381 L 272 380 L 272 379 L 272 378 L 272 377 L 271 377 L 270 376 L 271 375 L 271 374 L 271 373 L 270 372 L 271 371 L 270 370 L 270 369 L 269 368 L 269 367 L 269 366 L 269 365 L 268 364 L 268 363 L 268 362 L 269 361 L 268 360 L 269 359 L 268 360 L 267 359 L 267 360 L 266 361 L 266 362 L 265 363 L 265 364 L 265 365 L 265 366 L 265 367 L 264 368 L 265 369 L 264 370 L 264 371 L 263 372 L 263 373 L 263 374 L 262 375 L 261 375 L 261 376 L 262 377 L 261 378 L 261 379 L 261 380 L 261 381 L 260 382 L 259 381 L 259 380 L 259 381 L 260 382 L 259 383 L 258 384 L 259 385 L 259 386 L 260 387 L 260 388 L 261 389 L 260 390 L 260 391 L 259 392 L 260 393 L 259 394 L 258 394 L 257 394 L 256 395 L 257 396 L 256 397 L 256 398 L 256 399 L 256 400 L 257 401 L 258 402 L 258 403 L 258 404 L 258 405 L 259 406 L 258 407 L 257 408 L 256 409 L 257 410 L 256 411 L 255 412 L 255 413 L 255 414 L 255 415 L 255 416 L 255 417 L 255 418 L 254 419 L 253 419 L 252 419 L 251 418 L 252 419 L 253 420 L 253 421 L 253 422 L 253 423 L 252 424 L 252 425 L 251 426 L 251 427 L 252 428 L 251 429 L 250 429 L 251 430 L 250 431 L 249 432 L 249 433 L 250 434 L 250 435 L 249 436 L 249 437 L 250 438 L 251 439 L 250 440 L 249 440 L 248 439 L 247 438 L 246 438 L 245 437 L 245 436 L 246 435 L 246 434 L 245 433 L 244 432 L 245 431 L 244 432 L 243 431 L 243 432 L 242 433 L 241 432 L 241 431 L 240 431 L 239 430 L 240 429 L 241 429 L 240 428 L 240 427 L 240 426 L 240 425 L 239 424 L 240 423 L 241 422 L 241 421 L 241 420 L 241 419 L 241 418 L 241 417 L 240 418 L 239 417 L 239 416 L 239 415 L 239 414 L 239 413 L 239 412 L 238 412 L 237 411 L 236 410 L 236 409 L 235 408 L 235 407 L 234 407 L 233 406 L 233 405 L 233 404 L 232 403 L 232 402 L 232 401 L 231 400 L 230 399 L 230 398 L 230 397 L 230 396 L 229 395 L 229 394 L 229 393 L 229 392 L 228 391 L 228 392 L 227 393 L 227 394 L 227 395 L 226 396 L 226 397 L 226 398 L 225 399 L 224 400 L 223 401 L 223 402 L 222 403 L 221 404 L 220 405 L 220 406 L 219 407 L 218 408 L 218 409 L 217 410 L 216 411 L 217 411 L 218 411 L 219 412 L 218 413 L 218 414 L 218 415 L 218 416 L 218 417 L 218 418 L 219 419 L 218 420 L 217 420 L 216 421 L 216 422 L 215 423 L 214 424 L 213 424 L 212 425 L 211 426 L 211 427 L 212 428 L 212 429 L 211 430 L 210 429 L 210 430 L 209 431 L 209 432 L 209 433 L 209 434 L 210 434 L 211 435 L 211 436 L 212 436 L 213 437 L 212 438 L 211 438 L 210 439 L 211 440 L 211 441 L 210 442 L 209 443 L 210 444 L 210 445 L 210 446 L 210 447 L 209 448 L 208 447 L 208 446 L 207 446 L 206 445 L 205 444 L 205 443 L 205 442 L 205 441 L 205 440 L 205 439 L 204 440 L 203 439 L 202 438 L 202 437 L 202 436 L 201 435 L 200 434 L 200 433 L 199 432 L 199 431 L 198 430 L 197 429 L 197 428 L 198 427 L 197 427 L 196 426 L 196 425 L 196 424 L 195 423 L 195 422 L 195 421 L 195 420 L 194 419 L 193 419 L 193 420 L 193 421 L 193 422 L 192 423 L 191 424 L 191 425 L 192 426 L 192 427 L 191 428 L 190 429 L 190 430 L 189 431 L 188 432 L 187 432 L 187 433 L 186 434 L 185 434 L 185 435 L 184 436 L 183 436 L 183 437 L 182 438 L 183 439 L 184 440 L 184 441 L 184 442 L 184 443 L 184 444 L 184 445 L 183 446 L 183 447 L 182 448 L 181 449 L 180 450 L 179 450 L 178 451 L 177 450 L 176 449 L 176 448 L 175 449 L 174 449 L 173 449 L 173 450 L 172 451 L 171 451 L 171 452 L 171 453 L 170 454 L 169 455 L 168 455 L 167 455 L 166 454 L 165 455 L 164 454 L 164 453 L 164 452 L 164 451 L 164 450 L 165 449 L 166 449 L 166 448 L 167 447 L 166 446 L 167 445 L 168 445 L 169 445 L 169 444 L 170 443 L 171 443 L 171 442 L 172 441 L 173 442 L 174 442 L 175 441 L 175 440 L 175 439 L 175 438 L 175 437 L 175 436 L 175 435 L 176 434 L 177 433 L 178 433 L 179 433 L 180 433 L 181 432 L 181 431 L 181 430 L 182 429 L 182 428 L 181 427 L 182 426 L 182 425 L 181 426 L 180 425 L 179 424 L 178 424 L 177 425 L 176 424 L 176 423 L 177 422 L 177 421 L 177 420 L 177 419 L 176 418 L 176 417 L 176 416 L 176 415 L 175 414 L 175 413 L 174 412 L 174 411 L 174 412 L 174 413 L 173 414 L 172 413 L 171 413 L 170 414 L 170 415 L 169 416 L 168 416 L 167 416 L 166 415 L 165 416 L 164 415 L 164 414 L 164 413 L 165 412 L 164 411 L 165 410 L 165 409 L 166 408 L 167 408 L 168 408 L 167 408 L 166 407 L 166 406 L 167 405 L 167 404 L 166 403 L 166 402 L 165 401 L 165 400 L 166 399 L 167 400 L 166 399 L 166 398 L 166 397 L 167 396 L 168 396 L 169 395 L 169 394 L 169 393 L 169 392 L 169 391 L 169 390 L 168 389 L 169 388 L 169 387 L 170 386 L 169 385 L 168 384 L 168 385 L 168 386 L 167 387 L 166 386 L 165 387 L 164 388 L 163 388 L 162 387 L 162 386 L 163 385 L 163 384 L 163 383 L 163 382 L 163 381 L 163 380 L 164 379 L 164 378 L 164 377 L 163 376 L 163 375 L 162 376 L 161 377 L 160 377 L 159 377 L 158 377 L 157 378 L 156 379 L 155 379 L 154 378 L 155 377 L 155 376 L 155 375 L 155 374 L 155 373 L 156 372 L 157 371 L 157 370 L 156 369 L 155 368 L 155 367 L 155 366 L 155 365 L 155 366 L 154 367 L 153 366 L 152 365 L 151 364 L 150 363 L 151 362 L 150 361 L 150 360 L 150 359 L 150 358 L 151 357 L 150 357 L 149 356 L 148 356 L 147 356 L 146 355 L 145 354 L 145 353 L 145 352 L 146 351 L 147 351 L 148 351 L 147 351 L 146 350 L 145 350 L 144 351 L 143 350 L 142 349 L 141 348 L 142 347 L 142 346 L 143 345 L 144 345 L 145 345 L 146 346 L 145 345 L 145 344 L 144 343 L 143 342 L 142 342 L 141 342 L 140 342 L 139 342 L 138 342 Z"/>
</svg>