<svg width="1024" height="640" viewBox="0 0 1024 640" fill="none" xmlns="http://www.w3.org/2000/svg">
  <rect width="1024" height="640" rx="48" fill="url(#paint0_linear)"/>
  <g filter="url(#glow)">
    <path d="M160 320C160 208 272 128 400 128C528 128 640 208 640 320C640 432 528 512 400 512C272 512 160 432 160 320Z" stroke="rgba(255,255,255,0.65)" stroke-width="12"/>
    <path d="M384 160C480 192 608 256 656 352C704 448 672 528 608 560" stroke="rgba(255,255,255,0.35)" stroke-width="10" stroke-linecap="round"/>
    <circle cx="720" cy="256" r="112" fill="rgba(255,255,255,0.25)"/>
    <circle cx="784" cy="320" r="72" fill="rgba(255,255,255,0.18)"/>
    <circle cx="720" cy="256" r="24" fill="#4db6ac"/>
    <circle cx="784" cy="320" r="16" fill="#c8e6f9"/>
    <circle cx="864" cy="232" r="12" fill="#81c784"/>
  </g>
  <defs>
    <linearGradient id="paint0_linear" x1="0" y1="0" x2="1024" y2="640" gradientUnits="userSpaceOnUse">
      <stop stop-color="#c8e6f9"/>
      <stop offset="0.5" stop-color="#4db6ac"/>
      <stop offset="1" stop-color="#4caf50"/>
    </linearGradient>
    <filter id="glow" x="120" y="80" width="824" height="520" filterUnits="userSpaceOnUse">
      <feGaussianBlur stdDeviation="12" result="blur"/>
      <feBlend in="SourceGraphic" in2="blur" mode="screen"/>
    </filter>
  </defs>
</svg>
