<svg xmlns="http://www.w3.org/2000/svg" xmlns:xlink="http://www.w3.org/1999/xlink" version="1.1" id="Layer_1" x="0px" y="0px" width="720.0036620000001" viewBox="515.004639 861.170898 720.0036620000001 500.526123" enable-background="new 0 0 1920 2000" xml:space="preserve" height="500.526123">
<path fill="#5AA6FE" opacity="1.000000" stroke="none" d=" M710.233704,869.011780   C710.233704,869.011780 710.517456,868.971375 710.902771,868.852051   C711.525146,868.459290 711.762268,868.185852 711.999390,867.912354   C711.999390,867.912354 711.973022,867.977234 712.382446,868.013916   C718.067078,867.464966 723.363403,867.023743 728.612976,866.261230   C737.419922,864.981995 748.966736,871.271179 751.738098,879.519531   C749.323608,880.018494 746.971008,880.703064 744.573730,880.944824   C742.138428,881.190308 739.659058,880.999023 737.198975,880.999023   C737.141357,881.500305 737.083679,882.001648 737.026062,882.502930   C742.812683,886.062622 748.762085,889.391235 754.305908,893.295654   C756.523804,894.857727 757.848145,897.688599 759.579285,899.941895   C757.054993,900.967957 754.612488,902.432983 751.988098,902.921814   C747.540344,903.750305 742.977844,903.962402 738.463501,904.433594   C738.338684,904.819092 738.213806,905.204590 738.088928,905.590027   C749.222107,910.794678 760.355286,915.999390 771.488464,921.204041   C771.276917,921.734253 771.065308,922.264404 770.853760,922.794617   C767.700195,922.953796 764.546631,923.112976 762.220947,923.230347   C771.752258,930.249207 781.514282,937.437927 791.276306,944.626587   C790.999756,944.989624 790.723267,945.352661 790.446777,945.715637   C787.387146,945.492554 784.327576,945.269470 781.267944,945.046387   C781.225342,945.439575 781.182678,945.832825 781.140076,946.226013   C791.905884,952.360352 802.671753,958.494690 813.668945,964.760925   C812.358826,965.918762 811.585327,966.602295 810.618652,967.456604   C821.991577,972.011292 832.953613,976.401367 843.915649,980.791504   C843.793457,981.201050 843.671265,981.610657 843.549072,982.020203   C841.258484,982.020203 838.967834,982.020203 836.677246,982.020203   C841.214417,984.337097 845.990234,985.630188 850.587158,987.390442   C854.470703,988.877502 857.639282,989.502258 858.408997,983.364502   C859.847961,986.057556 860.842529,987.764465 861.692200,989.540588   C863.609741,993.549194 867.245789,992.015503 870.038147,991.639221   C871.192261,991.483643 872.637207,988.592285 872.789673,986.844055   C873.193420,982.215332 872.974243,977.531372 872.983643,972.869385   C872.994934,967.265686 872.986328,961.661926 872.986328,957.224548   C877.069763,955.565613 880.023560,954.365601 882.977417,953.165527   C891.693909,947.538818 900.410400,941.912048 909.819702,936.147888   C914.311646,938.799744 918.133423,941.559326 921.887268,944.408386   C922.493042,944.868164 923.337280,945.992676 923.156677,946.359314   C921.265991,950.197998 924.354858,952.101379 926.466797,953.682983   C930.939392,957.032593 935.847412,959.805115 940.613281,962.755371   C941.578308,963.352722 942.704529,963.689697 943.756470,964.146606   C943.656494,964.844482 943.556519,965.542297 943.456543,966.240112   C942.071899,966.803467 940.687195,967.366821 938.986267,968.058838   C941.477173,970.081299 942.916443,971.475464 944.564819,972.548340   C950.779602,976.593262 956.914429,980.798401 963.377258,984.410034   C967.044922,986.459595 971.228516,987.725159 975.327881,988.752808   C976.216125,988.975464 978.676941,986.766846 978.811829,985.506592   C979.497314,979.101624 979.656006,972.640259 979.999146,966.198669   C988.967834,967.463928 997.914307,968.929810 1006.912476,969.930176   C1013.932983,970.710693 1020.206665,973.287354 1025.229980,977.934998   C1031.442017,983.682312 1039.164062,987.089844 1045.649292,992.271667   C1053.284790,998.372559 1060.658325,1004.827881 1067.846436,1011.453735   C1073.698975,1016.848450 1073.697021,1016.783386 1079.675781,1011.945251   C1088.898193,1004.482483 1098.295654,997.203064 1107.969849,990.340637   C1117.807739,983.362000 1127.996826,976.866455 1138.187378,970.404236   C1141.692871,968.181274 1145.708984,966.778564 1149.416504,964.855835   C1156.275635,961.298584 1163.182129,957.812988 1169.879883,953.968567   C1178.150757,949.221130 1187.133179,948.120911 1196.579956,948.687012   C1194.398071,950.261108 1192.073853,951.327881 1189.640503,951.999573   C1185.863159,953.042175 1184.910522,955.283081 1187.198364,958.537109   C1187.859863,959.477905 1188.762573,960.257690 1189.599365,961.065002   C1195.918091,967.159546 1195.920776,967.155090 1189.499146,972.828491   C1189.396118,972.919556 1189.408813,973.141541 1189.199341,973.957581   C1194.521729,982.355103 1206.615967,982.350952 1212.907593,990.650330   C1210.811768,991.822266 1209.307373,992.663513 1207.480225,993.685181   C1214.792725,1002.548706 1225.006836,1003.854004 1234.842896,1005.992126   C1234.895264,1025.154175 1234.989868,1044.316162 1234.992920,1063.478271   C1235.008301,1160.808594 1235.000000,1258.139038 1235.000000,1355.469360   C1235.000000,1357.445068 1235.000000,1359.420776 1235.000000,1361.697021   C994.664673,1361.697021 754.608093,1361.697021 515.004639,1361.697021   C515.004639,1234.137817 515.004639,1106.609619 515.381714,978.522339   C516.156616,977.268921 516.554382,976.574646 516.952148,975.880432   C516.952148,975.880432 516.944946,975.965759 517.259521,975.964722   C518.368103,974.928528 519.162170,973.893494 519.956177,972.858398   C519.956177,972.858398 520.001709,972.948059 520.206055,972.869385   C520.604248,972.497498 520.798035,972.204346 520.991760,971.911194   C520.991760,971.911194 520.992188,971.992310 521.201721,971.892090   C521.604675,971.498291 521.798157,971.204834 521.991638,970.911316   C521.991638,970.911316 521.977478,970.979797 522.272339,970.967773   C523.057861,970.537659 523.548523,970.119568 524.039124,969.701477   C524.285706,969.374451 524.532349,969.047485 525.235107,968.418213   C526.113586,967.369690 526.535828,966.623474 526.958130,965.877258   C526.958130,965.877258 526.948486,965.970093 527.265625,965.964722   C534.386780,961.279114 540.999634,956.286255 548.035461,951.985413   C561.612366,943.686035 559.024170,944.266357 571.287537,953.902954   C574.569092,956.481628 579.158142,958.543457 583.230774,958.703247   C589.558105,958.951599 596.125732,958.015198 601.657532,954.053528   C606.415100,950.646362 611.194641,947.269653 615.964539,943.879517   C615.964539,943.879517 615.971252,943.949524 616.317200,944.005737   C619.208496,942.629272 622.111267,941.592102 624.225098,939.681946   C628.687134,935.649963 632.736450,931.161316 636.955078,926.859985   C636.955078,926.860046 636.965271,926.938232 637.292847,926.986450   C641.082214,923.973877 644.544006,920.913147 648.005798,917.852356   C648.005798,917.852356 647.996338,917.990356 648.249878,917.917908   C648.991638,917.186890 649.479858,916.528320 649.968079,915.869751   C649.968079,915.869751 650.002441,915.963623 650.200317,915.871460   C650.597168,915.489990 650.796204,915.200806 650.995239,914.911621   C650.995239,914.911621 650.995728,914.995605 651.199036,914.888184   C651.599854,914.491028 651.797424,914.201233 651.994995,913.911438   C651.994934,913.911438 651.955933,913.992676 652.252869,913.979492   C653.368652,913.252808 654.187439,912.539185 655.006226,911.825684   C658.249512,908.546509 661.465088,905.239197 664.752319,902.004761   C665.777893,900.995667 666.997131,900.183533 668.751648,898.998657   C672.761780,896.340698 676.244141,894.089478 679.511719,891.560791   C684.409302,887.770691 689.156067,883.785583 693.966980,879.883423   C693.966980,879.883362 693.996704,879.966858 694.200439,879.874756   C694.601257,879.492615 694.798279,879.202637 694.995300,878.912598   C694.995300,878.912598 694.950562,879.002991 695.270874,878.989746   C699.049255,876.267944 702.507324,873.559265 705.965393,870.850586   C705.965393,870.850586 705.983276,870.938965 706.253357,870.955627   C707.022095,870.619446 707.520752,870.266602 708.019470,869.913757   C708.019470,869.913757 707.956543,870.023010 708.234009,869.986511   C709.085510,869.637268 709.659607,869.324524 710.233704,869.011780  M810.843872,993.406738   C807.713379,994.637695 804.419006,997.184631 801.487366,996.819458   C795.781738,996.108765 792.467407,998.818420 789.549194,1002.092041   C787.292419,1001.907349 785.396362,1001.795593 783.510559,1001.589539   C777.950989,1000.982056 772.151062,1001.115601 766.912537,999.470825   C762.389099,998.050537 758.624695,998.166016 754.446899,999.860229   C749.755249,1001.762878 745.026306,1003.725830 740.133423,1004.930725   C736.390869,1005.852356 732.153320,1010.171936 732.397339,1014.169495   C732.644897,1018.224731 732.891907,1022.279968 733.148621,1026.490234   C740.415894,1027.213257 733.133667,1034.505127 737.428406,1037.460327   C738.225281,1035.143921 738.863464,1033.288574 739.511841,1031.403931   C740.494385,1032.726318 741.339111,1033.863281 742.331299,1035.198608   C745.695740,1032.509033 748.743408,1030.072632 751.841309,1027.596069   C753.868835,1029.809814 753.868835,1029.809814 756.967529,1024.415527   C757.777466,1025.184814 758.542480,1025.911377 759.563049,1026.880615   C760.882507,1025.189575 762.028320,1023.721008 763.488037,1021.850037   C764.625061,1023.827759 765.251038,1025.612671 766.444397,1026.850464   C769.105347,1029.610474 771.713806,1032.788574 775.023621,1034.397461   C776.627136,1035.176880 779.995483,1034.964355 780.931152,1029.938843   C782.271362,1022.741272 786.810120,1016.139099 789.238953,1010.890747   C792.161621,1011.194336 794.412231,1011.997437 794.909241,1011.382751   C797.256775,1008.479248 799.124512,1005.187744 801.153870,1002.049194   C805.010559,1004.183716 811.145874,999.003540 812.252563,994.004578   C813.466858,994.350342 814.671326,994.736877 815.898132,995.030396   C817.104187,995.318970 819.034119,995.111755 819.436462,995.814636   C821.813599,999.968079 825.881409,1003.457397 824.998535,1009.050110   C824.863953,1009.902832 825.737183,1010.914673 826.555237,1012.800110   C827.940979,1010.645142 829.646362,1009.204834 829.479248,1008.031128   C828.927124,1004.153198 830.906494,1001.551086 832.783386,998.610107   C835.855469,993.796204 832.244751,986.100769 826.721252,983.953247   C819.903625,981.302673 816.506470,988.164978 810.689087,988.300598   C811.082642,990.481140 811.345337,991.936401 810.843872,993.406738  M666.492859,1041.522705   C667.013489,1042.973877 667.100830,1045.077026 668.130981,1045.761597   C672.246216,1048.496582 673.988770,1051.529785 671.261475,1056.251709   C670.830261,1056.998169 671.450012,1058.351440 671.645325,1059.917358   C674.456177,1058.723999 676.808044,1057.725708 680.079102,1056.337036   C679.654419,1061.029785 679.273499,1065.238403 678.900818,1069.356689   C681.671814,1068.010010 684.151367,1066.804932 686.994568,1065.423218   C679.787109,1056.656372 689.605103,1050.370239 690.512390,1042.620728   C690.850708,1039.731445 693.884338,1037.157715 695.750244,1034.347778   C696.412598,1035.627441 697.198242,1037.145264 698.112610,1038.911865   C699.511658,1037.765747 700.566589,1036.901489 701.966736,1035.754517   C703.863403,1042.956177 713.129517,1047.062622 708.048706,1056.720581   C714.203308,1051.805054 714.726929,1048.853882 712.927124,1043.099976   C711.996094,1040.123535 711.712280,1036.161499 715.999695,1035.110962   C716.092285,1029.441895 713.445801,1023.520203 719.363342,1019.184326   C719.918335,1018.777649 720.328125,1017.883545 720.409485,1017.170593   C720.733276,1014.330811 720.900208,1011.473083 721.232727,1007.261047   C712.192932,1014.789490 707.510925,1025.699585 697.268738,1033.057617   C693.783020,1030.005371 689.079529,1026.719604 685.472107,1022.497314   C681.754944,1018.146606 679.372314,1012.682495 675.904236,1008.083740   C673.151611,1004.433838 669.642151,1001.354736 666.468689,998.022217   C659.483276,1000.782043 657.284912,994.188049 654.249023,990.878113   C648.823853,984.963379 638.016357,985.049194 634.365295,992.181641   C631.587524,997.608154 627.624390,1000.466003 621.333496,999.695007   C620.113342,999.545471 618.374634,999.666138 617.613770,1000.413818   C614.268250,1003.701599 610.587585,1004.741516 605.902039,1004.040344   C600.848267,1003.284119 595.034973,1004.727356 590.693481,1002.730896   C583.336243,999.347778 577.449524,1001.987915 571.237244,1004.613525   C568.555054,1005.747192 566.166992,1007.576782 563.655884,1009.083984   C565.367188,1013.185303 562.931152,1015.372986 560.132935,1017.627258   C559.206848,1018.373413 558.984375,1019.993042 558.440247,1021.213257   C559.539001,1021.398865 560.636719,1021.591064 561.736755,1021.768494   C563.321045,1022.024048 564.906982,1022.268799 566.196655,1022.471619   C569.288086,1020.769287 572.487305,1019.007568 575.861267,1017.149658   C575.993591,1016.165039 576.173096,1014.828796 576.527161,1012.192810   C577.713196,1022.258850 580.640015,1028.296387 585.701538,1027.410889   C586.811829,1029.258301 587.844849,1030.977051 588.877930,1032.695801   C590.144714,1031.633423 591.411499,1030.571167 592.520203,1029.641479   C593.712219,1030.668823 595.945435,1031.668091 596.546509,1033.276978   C598.749207,1039.173218 605.112915,1043.550659 603.165466,1051.012329   C603.003601,1051.632324 603.539978,1052.760254 604.104126,1053.190308   C607.366516,1055.677124 607.794067,1058.625122 605.555542,1062.057007   C613.161926,1067.392212 614.628479,1059.718628 618.422241,1055.780640   C623.012146,1061.724976 627.311584,1067.293091 631.511292,1072.732056   C633.124390,1070.669434 635.579590,1068.590454 636.588196,1065.957275   C637.708069,1063.033447 637.508118,1059.604004 637.878418,1056.432373   C636.305847,1055.734497 634.874939,1055.099487 633.444092,1054.464600   C633.402283,1054.028564 633.360535,1053.592529 633.318726,1053.156616   C635.451111,1052.576294 637.583496,1051.996094 639.577820,1051.453369   C638.594543,1050.765259 637.439026,1049.956665 635.584412,1048.658813   C639.341125,1045.368042 643.066589,1042.654785 646.075806,1039.299194   C648.601135,1036.483032 650.498535,1033.023315 652.228455,1029.621948   C652.763123,1028.570679 651.264160,1026.577881 651.685791,1025.358521   C652.901489,1021.842651 654.621826,1018.501343 656.376465,1014.570679   C656.991516,1015.668274 658.325928,1016.963135 658.084045,1017.805298   C657.018921,1021.514587 657.639526,1024.541382 662.332153,1027.766968   C660.027527,1028.677246 658.470459,1029.292236 656.913391,1029.907349   C657.158142,1030.345581 657.402893,1030.783936 657.647705,1031.222168   C659.596741,1031.776245 661.545715,1032.330444 663.603821,1032.915527   C660.886963,1036.407837 660.922852,1036.344482 664.326355,1038.274536   C665.406616,1038.887207 666.239685,1039.935547 667.065308,1040.929199   C667.065308,1040.929199 666.944824,1041.073975 666.492859,1041.522705  M1191.406128,1032.234375   C1188.610962,1028.527588 1186.037598,1024.624756 1182.972656,1021.156372   C1177.322998,1014.763245 1169.394043,1012.692383 1163.421021,1015.278809   C1159.014160,1017.187012 1155.102051,1020.237488 1150.626099,1022.990112   C1155.377441,1028.721313 1149.630981,1031.343872 1148.649780,1035.152466   C1139.023315,1032.175049 1132.956665,1038.899170 1126.811035,1043.318237   C1123.733276,1045.531250 1121.102295,1047.573486 1117.898926,1046.574585   C1114.021606,1045.365479 1109.645264,1044.151367 1108.735474,1038.664429   C1107.962402,1034.002441 1106.112793,1029.741333 1099.957275,1029.750122   C1098.624634,1029.752075 1097.223267,1028.082520 1095.968628,1027.043945   C1092.817139,1024.434937 1081.104736,1023.247498 1078.954224,1026.173462   C1075.576904,1030.768677 1068.764038,1032.391357 1067.921143,1039.082886   C1067.849487,1039.651489 1067.272217,1040.372437 1066.739258,1040.633423   C1060.907959,1043.488159 1063.319946,1046.996704 1065.734131,1050.712036   C1066.793579,1052.342285 1067.392822,1054.284058 1068.114990,1056.118286   C1069.374146,1059.316895 1071.953857,1059.867188 1074.069458,1057.108643   C1075.302002,1055.501709 1075.968506,1053.460693 1076.991821,1051.410400   C1078.262695,1053.296387 1079.295898,1054.829468 1080.562134,1056.708374   C1081.803833,1054.709717 1082.692749,1053.278931 1084.028564,1051.129028   C1084.550903,1053.044189 1084.642700,1054.217407 1085.167969,1055.145630   C1086.585205,1057.649780 1088.019409,1061.975342 1089.747437,1062.125854   C1094.731201,1062.559692 1094.354736,1065.098145 1094.794434,1068.727539   C1095.261963,1072.586060 1093.617310,1078.870850 1100.165405,1078.354736   C1102.885132,1073.115356 1105.298950,1068.465332 1108.166626,1062.941040   C1109.206543,1066.113037 1109.908081,1068.252930 1111.006104,1071.601807   C1112.378784,1068.458740 1113.153687,1066.684570 1114.499390,1063.603638   C1117.403687,1071.061768 1119.686157,1077.196655 1122.234009,1083.219238   C1122.706665,1084.336548 1124.395630,1085.832886 1125.263184,1085.679688   C1126.558105,1085.451050 1128.115723,1084.142334 1128.696289,1082.891479   C1130.878296,1078.189819 1132.709717,1073.325562 1134.255737,1069.542236   C1137.603638,1071.009399 1140.262085,1072.174438 1144.154541,1073.880249   C1143.511108,1071.409668 1143.080811,1070.133667 1142.854492,1068.822266   C1141.945435,1063.556274 1138.931519,1058.145264 1142.169434,1053.002563   C1144.018311,1050.066040 1147.495605,1048.205933 1149.801880,1045.489380   C1151.520630,1043.464966 1153.049561,1040.986938 1153.751953,1038.458008   C1154.929810,1034.216553 1155.381958,1029.773560 1156.139526,1025.415527   C1156.589111,1025.315674 1157.038696,1025.215820 1157.488159,1025.115967   C1158.161011,1025.986816 1159.586304,1027.366455 1159.393188,1027.651855   C1156.723999,1031.599731 1159.780396,1033.915405 1162.023926,1036.418335   C1160.767456,1037.030762 1159.826050,1037.489746 1159.265747,1037.762817   C1162.842407,1041.371460 1166.236328,1044.795654 1169.437500,1048.025635   C1171.008545,1045.882080 1172.510010,1041.822266 1174.406738,1041.628540   C1179.750977,1041.082031 1185.394653,1038.228516 1190.770630,1041.955322   C1191.499023,1042.460449 1193.252319,1042.471680 1193.826172,1041.944458   C1194.426758,1041.392700 1194.511475,1039.816772 1194.229980,1038.863037   C1193.621460,1036.802368 1192.634644,1034.853394 1191.406128,1032.234375  M1192.451660,1057.949341   C1189.266479,1054.810547 1186.081421,1051.671753 1182.755371,1048.394043   C1182.482300,1048.689209 1181.821899,1049.403076 1181.020020,1050.269775   C1180.617188,1048.921631 1180.332397,1047.968750 1179.758911,1046.049316   C1177.852905,1052.699585 1175.138550,1048.251709 1171.523560,1047.068237   C1171.242920,1050.383911 1170.976685,1053.095947 1170.806030,1055.814087   C1170.755615,1056.615967 1171.132690,1057.454224 1171.036255,1058.241821   C1170.871948,1059.583618 1170.488159,1060.898560 1170.196411,1062.224854   C1171.739624,1061.539062 1173.307861,1060.903076 1174.814819,1060.145264   C1175.503174,1059.799072 1176.070557,1059.212891 1177.189819,1058.354248   C1177.611450,1061.517090 1177.954712,1064.091797 1178.421997,1067.596558   C1180.783203,1066.675781 1182.874268,1065.462036 1185.101440,1065.110840   C1187.081665,1064.798462 1189.248169,1065.280151 1191.264038,1065.723022   C1192.531250,1066.001343 1194.162964,1067.662231 1194.773438,1067.291260   C1196.321899,1066.350342 1197.693604,1064.777466 1198.560425,1063.150757   C1199.450806,1061.480103 1199.659058,1059.445801 1200.165771,1057.570679   C1201.545532,1059.841309 1201.453979,1062.296021 1202.585083,1063.875122   C1203.432373,1065.057861 1206.079102,1065.900391 1207.522827,1065.488037   C1209.765991,1064.847290 1212.315552,1063.438965 1213.548950,1061.572266   C1215.070923,1059.268677 1215.377808,1056.162109 1216.292969,1053.126709   C1217.641357,1053.491333 1218.987061,1053.855225 1221.075439,1054.419922   C1221.532104,1051.739502 1221.957642,1049.242188 1222.402344,1046.632935   C1220.153564,1047.138306 1218.752319,1047.534790 1217.323730,1047.749268   C1216.133667,1047.927856 1214.911743,1047.892944 1213.703857,1047.952637   C1214.229004,1048.966309 1214.754150,1049.979858 1215.519897,1051.458008   C1213.145752,1051.593384 1211.210327,1051.312134 1209.557617,1051.869385   C1204.052612,1053.725952 1198.649170,1055.883423 1192.451660,1057.949341  M1046.388062,1025.004517   C1042.639160,1023.642517 1038.890259,1022.280518 1035.141357,1020.918457   C1034.831055,1021.332642 1034.520630,1021.746826 1034.210327,1022.160950   C1036.797852,1028.724609 1039.385376,1035.288208 1042.523438,1043.248413   C1043.694214,1041.556885 1045.027466,1039.665405 1046.323242,1037.748535   C1047.647217,1035.789917 1048.934448,1033.806641 1050.347900,1031.667480   C1051.312378,1032.950562 1052.094727,1033.991333 1053.559570,1035.939941   C1054.186035,1029.589478 1050.038574,1027.882446 1046.388062,1025.004517  M1029.867188,1026.242065   C1030.280396,1024.378052 1030.693604,1022.514038 1031.106812,1020.650024   C1028.733643,1021.151733 1026.360352,1021.653442 1023.987122,1022.155151   C1023.965393,1022.885681 1023.943665,1023.616150 1023.921936,1024.346680   C1025.688232,1025.086914 1027.454468,1025.827148 1029.867188,1026.242065  M1188.178345,1068.724243   C1188.424805,1068.675659 1188.671387,1068.627197 1188.917847,1068.578735   C1188.864746,1068.469116 1188.795654,1068.260254 1188.761230,1068.265747   C1188.515381,1068.305664 1188.276367,1068.389282 1188.178345,1068.724243  M778.215698,944.530334   C778.215698,944.530334 777.869934,944.427673 777.869934,944.427673   C777.869934,944.427673 778.088745,944.661865 778.215698,944.530334  M1191.879883,1069.350830   C1191.879883,1069.350830 1191.960571,1069.620605 1191.960571,1069.620605   C1191.960571,1069.620605 1192.046997,1069.353149 1191.879883,1069.350830  z"/>
<path fill="#9AC8FC" opacity="1.000000" stroke="none" d=" M882.594177,953.086670   C880.023560,954.365601 877.069763,955.565613 872.986328,957.224548   C872.986328,961.661926 872.994934,967.265686 872.983643,972.869385   C872.974243,977.531372 873.193420,982.215332 872.789673,986.844055   C872.637207,988.592285 871.192261,991.483643 870.038147,991.639221   C867.245789,992.015503 863.609741,993.549194 861.692200,989.540588   C860.842529,987.764465 859.847961,986.057556 858.408997,983.364502   C857.639282,989.502258 854.470703,988.877502 850.587158,987.390442   C845.990234,985.630188 841.214417,984.337097 836.677246,982.020203   C838.967834,982.020203 841.258484,982.020203 843.549072,982.020203   C843.671265,981.610657 843.793457,981.201050 843.915649,980.791504   C832.953613,976.401367 821.991577,972.011292 810.618652,967.456604   C811.585327,966.602295 812.358826,965.918762 813.668945,964.760925   C802.671753,958.494690 791.905884,952.360352 781.140076,946.226013   C781.182678,945.832825 781.225342,945.439575 781.267944,945.046387   C784.327576,945.269470 787.387146,945.492554 790.446777,945.715637   C790.723267,945.352661 790.999756,944.989624 791.276306,944.626587   C781.514282,937.437927 771.752258,930.249207 762.220947,923.230347   C764.546631,923.112976 767.700195,922.953796 770.853760,922.794617   C771.065308,922.264404 771.276917,921.734253 771.488464,921.204041   C760.355286,915.999390 749.222107,910.794678 738.088928,905.590027   C738.213806,905.204590 738.338684,904.819092 738.463501,904.433594   C742.977844,903.962402 747.540344,903.750305 751.988098,902.921814   C754.612488,902.432983 757.054993,900.967957 759.579285,899.941895   C757.848145,897.688599 756.523804,894.857727 754.305908,893.295654   C748.762085,889.391235 742.812683,886.062622 737.026062,882.502930   C737.083679,882.001648 737.141357,881.500305 737.198975,880.999023   C739.659058,880.999023 742.138428,881.190308 744.573730,880.944824   C746.971008,880.703064 749.323608,880.018494 751.738098,879.519531   C748.966736,871.271179 737.419922,864.981995 728.612976,866.261230   C723.363403,867.023743 718.067078,867.464966 712.351318,867.997803   C712.746826,867.624756 713.957642,867.552917 714.360535,866.945374   C718.189331,861.170898 723.909180,864.498840 728.684204,864.146423   C734.553711,863.713257 740.512451,864.592957 746.436707,864.747681   C748.982361,864.814148 751.538391,864.484253 753.787048,864.352173   C754.272278,865.104980 754.714478,866.567993 755.350525,866.657837   C762.078064,867.607300 764.537415,875.711487 771.481689,876.169128   C777.671997,883.859131 787.214355,886.574463 794.984558,891.922607   C796.090210,892.683594 797.783813,892.535889 799.128601,893.021362   C800.135071,893.384766 801.863831,894.160217 801.824707,894.632202   C801.452148,899.124939 805.518127,899.396240 807.809265,901.387085   C812.125671,905.137634 818.156067,906.787659 821.091858,912.244202   C821.341919,912.708984 822.089111,913.084229 822.656189,913.171753   C826.651306,913.788635 830.659790,914.319153 834.836060,914.901245   C833.510742,916.050293 832.023621,917.339600 830.536560,918.628967   C834.288330,919.000793 836.914185,919.068420 835.256165,923.518738   C835.137695,923.836853 835.914856,924.669312 836.438660,925.017700   C841.010010,928.057312 845.686462,930.942932 850.196533,934.069336   C854.652893,937.158508 858.906616,940.539734 863.360657,943.632385   C864.198547,944.214233 865.560425,944.041443 866.637512,944.210144   C867.655029,950.077087 869.920532,951.510620 875.821716,951.150452   C877.905945,951.023193 880.078674,952.346558 882.594177,953.086670  z"/>
<path fill="#9AC8FC" opacity="1.000000" stroke="none" d=" M1234.914062,1005.528076   C1225.006836,1003.854004 1214.792725,1002.548706 1207.480225,993.685181   C1209.307373,992.663513 1210.811768,991.822266 1212.907593,990.650330   C1206.615967,982.350952 1194.521729,982.355103 1189.199341,973.957581   C1189.408813,973.141541 1189.396118,972.919556 1189.499146,972.828491   C1195.920776,967.155090 1195.918091,967.159546 1189.599365,961.065002   C1188.762573,960.257690 1187.859863,959.477905 1187.198364,958.537109   C1184.910522,955.283081 1185.863159,953.042175 1189.640503,951.999573   C1192.073853,951.327881 1194.398071,950.261108 1196.856812,948.981934   C1206.742310,952.076965 1216.535278,955.581177 1226.346558,959.033264   C1229.035156,959.979187 1231.778931,960.768738 1234.985107,961.784607   C1234.985107,975.852112 1234.985107,990.458008 1234.914062,1005.528076  z"/>
<path fill="#9AC8FC" opacity="1.000000" stroke="none" d=" M979.587769,966.124146   C979.656006,972.640259 979.497314,979.101624 978.811829,985.506592   C978.676941,986.766846 976.216125,988.975464 975.327881,988.752808   C971.228516,987.725159 967.044922,986.459595 963.377258,984.410034   C956.914429,980.798401 950.779602,976.593262 944.564819,972.548340   C942.916443,971.475464 941.477173,970.081299 938.986267,968.058838   C940.687195,967.366821 942.071899,966.803467 943.456543,966.240112   C943.556519,965.542297 943.656494,964.844482 943.756470,964.146606   C942.704529,963.689697 941.578308,963.352722 940.613281,962.755371   C935.847412,959.805115 930.939392,957.032593 926.466797,953.682983   C924.354858,952.101379 921.265991,950.197998 923.156677,946.359314   C923.337280,945.992676 922.493042,944.868164 921.887268,944.408386   C918.133423,941.559326 914.311646,938.799744 910.123901,936.020508   C913.409424,933.711060 916.831055,930.733215 920.809509,929.208130   C929.314026,925.948059 937.929932,928.201416 943.784363,938.105225   C946.412537,942.551147 950.305054,946.374634 954.105591,949.971436   C958.957214,954.562866 964.061890,958.974426 969.525513,962.794006   C972.195984,964.660828 975.925903,965.012329 979.587769,966.124146  z"/>
<path fill="#A1CCFC" opacity="1.000000" stroke="none" d=" M615.602539,943.925537   C611.194641,947.269653 606.415100,950.646362 601.657532,954.053528   C596.125732,958.015198 589.558105,958.951599 583.230774,958.703247   C579.158142,958.543457 574.569092,956.481628 571.287537,953.902954   C559.024170,944.266357 561.612366,943.686035 548.035461,951.985413   C540.999634,956.286255 534.386780,961.279114 527.219360,965.958496   C524.948120,964.343506 524.028198,962.903992 527.377563,961.915955   C529.497009,961.290710 531.567383,960.499207 533.791382,959.737183   C533.233887,958.898499 532.716064,958.119385 531.656982,956.526123   C536.007263,954.621460 540.302734,953.053833 544.280151,950.898987   C547.400391,949.208679 550.054138,946.679504 553.051758,944.733582   C555.535278,943.121460 558.228638,941.982971 561.246887,943.613464   C561.622864,943.816589 562.187744,943.858643 562.610779,943.754639   C564.860779,943.201599 567.093567,942.578308 569.332275,941.979370   C569.508423,942.482849 569.684631,942.986328 569.860779,943.489807   C568.643677,944.433167 567.426514,945.376587 566.502625,946.092651   C574.226685,954.061157 582.633972,960.190125 594.298584,954.449341   C593.895813,954.242493 593.258301,953.915039 592.620728,953.587585   C592.660522,953.379883 592.700317,953.172180 592.740112,952.964478   C594.433716,953.280518 596.127319,953.596497 596.620178,953.688477   C601.946899,950.484802 606.485596,947.713928 611.072144,945.024658   C612.263184,944.326294 614.836060,943.825073 615.602539,943.925537  z"/>
<path fill="#A1CCFC" opacity="1.000000" stroke="none" d=" M693.613892,879.927368   C689.156067,883.785583 684.409302,887.770691 679.511719,891.560791   C676.244141,894.089478 672.761780,896.340698 669.053833,898.872803   C669.097473,894.358337 670.211548,891.057251 676.037720,889.989502   C679.646301,889.328186 682.673767,885.519653 685.973267,883.139221   C687.918274,881.736206 689.885193,880.363525 691.894714,878.940063   C692.101318,879.096008 692.681091,879.533691 693.613892,879.927368  z"/>
<path fill="#A1CCFC" opacity="1.000000" stroke="none" d=" M636.617798,926.819214   C632.736450,931.161316 628.687134,935.649963 624.225098,939.681946   C622.111267,941.592102 619.208496,942.629272 616.282166,944.002808   C615.485291,939.389343 618.080750,938.600037 621.976135,936.983521   C626.954956,934.917542 630.792175,930.109070 635.158386,926.527588   C635.341064,926.377869 635.897949,926.684448 636.617798,926.819214  z"/>
<path fill="#A1CCFC" opacity="1.000000" stroke="none" d=" M705.630676,870.803589   C702.507324,873.559265 699.049255,876.267944 695.225830,878.967163   C694.194031,878.386719 693.527710,877.815613 693.329163,877.645508   C696.090942,874.095459 698.675171,870.773743 701.367554,867.313049   C701.514465,868.216797 701.712219,869.433777 702.054077,871.537048   C703.342163,869.889343 704.116760,868.898376 705.455688,867.185608   C705.376770,868.949829 705.336365,869.853210 705.630676,870.803589  z"/>
<path fill="#A1CCFC" opacity="1.000000" stroke="none" d=" M647.634644,917.914917   C644.544006,920.913147 641.082214,923.973877 637.253540,926.989929   C636.784912,925.056274 636.683105,923.167297 636.550781,920.713379   C637.506958,921.625916 638.171082,922.259766 639.091919,923.138672   C640.734497,921.367737 642.254150,919.433472 644.105896,917.900391   C644.717834,917.393860 646.186584,917.922241 647.634644,917.914917  z"/>
<path fill="#A1CCFC" opacity="1.000000" stroke="none" d=" M519.622314,972.804321   C519.162170,973.893494 518.368103,974.928528 517.217041,975.959595   C517.289673,973.894653 517.719421,971.833740 518.149231,969.772827   C518.579712,969.866577 519.010193,969.960266 519.440674,970.054016   C519.389954,970.952759 519.339233,971.851501 519.622314,972.804321  z"/>
<path fill="#A1CCFC" opacity="1.000000" stroke="none" d=" M710.071350,868.693237   C709.659607,869.324524 709.085510,869.637268 708.179199,869.955322   C707.747192,869.004395 707.647339,868.048218 707.547485,867.092041   C708.334656,867.519592 709.121826,867.947144 710.071350,868.693237  z"/>
<path fill="#A1CCFC" opacity="1.000000" stroke="none" d=" M526.584106,965.927673   C526.535828,966.623474 526.113586,967.369690 525.381165,968.259338   C524.739075,967.775391 524.407043,967.147949 524.075012,966.520508   C524.786682,966.339722 525.498352,966.158936 526.584106,965.927673  z"/>
<path fill="#A1CCFC" opacity="1.000000" stroke="none" d=" M654.632324,911.904846   C654.187439,912.539185 653.368652,913.252808 652.212524,913.959473   C652.669556,913.296448 653.463989,912.640259 654.632324,911.904846  z"/>
<path fill="#A1CCFC" opacity="1.000000" stroke="none" d=" M649.614624,915.929443   C649.479858,916.528320 648.991638,917.186890 648.180908,917.912964   C648.325989,917.316711 648.793579,916.652893 649.614624,915.929443  z"/>
<path fill="#A1CCFC" opacity="1.000000" stroke="none" d=" M516.584961,975.934143   C516.554382,976.574646 516.156616,977.268921 515.449219,978.069092   C515.499023,977.445923 515.858398,976.716919 516.584961,975.934143  z"/>
<path fill="#A1CCFC" opacity="1.000000" stroke="none" d=" M707.692871,869.952148   C707.520752,870.266602 707.022095,870.619446 706.208984,870.963379   C706.385071,870.633179 706.875671,870.311890 707.692871,869.952148  z"/>
<path fill="#A1CCFC" opacity="1.000000" stroke="none" d=" M523.729736,969.836914   C523.548523,970.119568 523.057861,970.537659 522.238892,970.957764   C522.413818,970.630554 522.917114,970.301453 523.729736,969.836914  z"/>
<path fill="#A1CCFC" opacity="1.000000" stroke="none" d=" M521.719116,970.980286   C521.798157,971.204834 521.604675,971.498291 521.161194,971.891968   C521.089661,971.677795 521.268127,971.363525 521.719116,970.980286  z"/>
<path fill="#9AC8FC" opacity="1.000000" stroke="none" d=" M711.716919,867.982971   C711.762268,868.185852 711.525146,868.459290 711.045044,868.869507   C711.012817,868.688660 711.223572,868.371155 711.716919,867.982971  z"/>
<path fill="#A1CCFC" opacity="1.000000" stroke="none" d=" M520.719177,971.980347   C520.798035,972.204346 520.604248,972.497498 520.161133,972.891785   C520.090027,972.678467 520.268311,972.363953 520.719177,971.980347  z"/>
<path fill="#A1CCFC" opacity="1.000000" stroke="none" d=" M651.722168,913.981384   C651.797424,914.201233 651.599854,914.491028 651.156982,914.888062   C651.090942,914.680725 651.270142,914.366028 651.722168,913.981384  z"/>
<path fill="#A1CCFC" opacity="1.000000" stroke="none" d=" M694.722351,878.981934   C694.798279,879.202637 694.601257,879.492615 694.158569,879.889221   C694.091736,879.681030 694.270569,879.366150 694.722351,878.981934  z"/>
<path fill="#A1CCFC" opacity="1.000000" stroke="none" d=" M650.721924,914.981628   C650.796204,915.200806 650.597168,915.489990 650.153198,915.888306   C650.088440,915.682068 650.268494,915.366882 650.721924,914.981628  z"/>
<path fill="#A1CCFC" opacity="1.000000" stroke="none" d=" M667.185852,1040.784546   C666.239685,1039.935547 665.406616,1038.887207 664.326355,1038.274536   C660.922852,1036.344482 660.886963,1036.407837 663.603821,1032.915527   C661.545715,1032.330444 659.596741,1031.776245 657.647705,1031.222168   C657.402893,1030.783936 657.158142,1030.345581 656.913391,1029.907349   C658.470459,1029.292236 660.027527,1028.677246 662.332153,1027.766968   C657.639526,1024.541382 657.018921,1021.514587 658.084045,1017.805298   C658.325928,1016.963135 656.991516,1015.668274 656.376465,1014.570679   C654.621826,1018.501343 652.901489,1021.842651 651.685791,1025.358521   C651.264160,1026.577881 652.763123,1028.570679 652.228455,1029.621948   C650.498535,1033.023315 648.601135,1036.483032 646.075806,1039.299194   C643.066589,1042.654785 639.341125,1045.368042 635.584412,1048.658813   C637.439026,1049.956665 638.594543,1050.765259 639.577820,1051.453369   C637.583496,1051.996094 635.451111,1052.576294 633.318726,1053.156616   C633.360535,1053.592529 633.402283,1054.028564 633.444092,1054.464600   C634.874939,1055.099487 636.305847,1055.734497 637.878418,1056.432373   C637.508118,1059.604004 637.708069,1063.033447 636.588196,1065.957275   C635.579590,1068.590454 633.124390,1070.669434 631.511292,1072.732056   C627.311584,1067.293091 623.012146,1061.724976 618.422241,1055.780640   C614.628479,1059.718628 613.161926,1067.392212 605.555542,1062.057007   C607.794067,1058.625122 607.366516,1055.677124 604.104126,1053.190308   C603.539978,1052.760254 603.003601,1051.632324 603.165466,1051.012329   C605.112915,1043.550659 598.749207,1039.173218 596.546509,1033.276978   C595.945435,1031.668091 593.712219,1030.668823 592.520203,1029.641479   C591.411499,1030.571167 590.144714,1031.633423 588.877930,1032.695801   C587.844849,1030.977051 586.811829,1029.258301 585.701538,1027.410889   C580.640015,1028.296387 577.713196,1022.258850 576.527161,1012.192810   C576.173096,1014.828796 575.993591,1016.165039 575.861267,1017.149658   C572.487305,1019.007568 569.288086,1020.769287 566.196655,1022.471619   C564.906982,1022.268799 563.321045,1022.024048 561.736755,1021.768494   C560.636719,1021.591064 559.539001,1021.398865 558.440247,1021.213257   C558.984375,1019.993042 559.206848,1018.373413 560.132935,1017.627258   C562.931152,1015.372986 565.367188,1013.185303 563.655884,1009.083984   C566.166992,1007.576782 568.555054,1005.747192 571.237244,1004.613525   C577.449524,1001.987915 583.336243,999.347778 590.693481,1002.730896   C595.034973,1004.727356 600.848267,1003.284119 605.902039,1004.040344   C610.587585,1004.741516 614.268250,1003.701599 617.613770,1000.413818   C618.374634,999.666138 620.113342,999.545471 621.333496,999.695007   C627.624390,1000.466003 631.587524,997.608154 634.365295,992.181641   C638.016357,985.049194 648.823853,984.963379 654.249023,990.878113   C657.284912,994.188049 659.483276,1000.782043 666.468689,998.022217   C669.642151,1001.354736 673.151611,1004.433838 675.904236,1008.083740   C679.372314,1012.682495 681.754944,1018.146606 685.472107,1022.497314   C689.079529,1026.719604 693.783020,1030.005371 697.268738,1033.057617   C707.510925,1025.699585 712.192932,1014.789490 721.232727,1007.261047   C720.900208,1011.473083 720.733276,1014.330811 720.409485,1017.170593   C720.328125,1017.883545 719.918335,1018.777649 719.363342,1019.184326   C713.445801,1023.520203 716.092285,1029.441895 715.999695,1035.110962   C711.712280,1036.161499 711.996094,1040.123535 712.927124,1043.099976   C714.726929,1048.853882 714.203308,1051.805054 708.048706,1056.720581   C713.129517,1047.062622 703.863403,1042.956177 701.966736,1035.754517   C700.566589,1036.901489 699.511658,1037.765747 698.112610,1038.911865   C697.198242,1037.145264 696.412598,1035.627441 695.750244,1034.347778   C693.884338,1037.157715 690.850708,1039.731445 690.512390,1042.620728   C689.605103,1050.370239 679.787109,1056.656372 686.994568,1065.423218   C684.151367,1066.804932 681.671814,1068.010010 678.900818,1069.356689   C679.273499,1065.238403 679.654419,1061.029785 680.079102,1056.337036   C676.808044,1057.725708 674.456177,1058.723999 671.645325,1059.917358   C671.450012,1058.351440 670.830261,1056.998169 671.261475,1056.251709   C673.988770,1051.529785 672.246216,1048.496582 668.130981,1045.761597   C667.100830,1045.077026 667.013489,1042.973877 666.846741,1041.456299   C667.463684,1041.437622 667.726746,1041.485229 667.989868,1041.532837   C667.721863,1041.283447 667.453857,1041.033936 667.185852,1040.784546  z"/>
<path fill="#91C4FD" opacity="1.000000" stroke="none" d=" M1191.604370,1032.546509   C1192.634644,1034.853394 1193.621460,1036.802368 1194.229980,1038.863037   C1194.511475,1039.816772 1194.426758,1041.392700 1193.826172,1041.944458   C1193.252319,1042.471680 1191.499023,1042.460449 1190.770630,1041.955322   C1185.394653,1038.228516 1179.750977,1041.082031 1174.406738,1041.628540   C1172.510010,1041.822266 1171.008545,1045.882080 1169.437500,1048.025635   C1166.236328,1044.795654 1162.842407,1041.371460 1159.265747,1037.762817   C1159.826050,1037.489746 1160.767456,1037.030762 1162.023926,1036.418335   C1159.780396,1033.915405 1156.723999,1031.599731 1159.393188,1027.651855   C1159.586304,1027.366455 1158.161011,1025.986816 1157.488159,1025.115967   C1157.038696,1025.215820 1156.589111,1025.315674 1156.139526,1025.415527   C1155.381958,1029.773560 1154.929810,1034.216553 1153.751953,1038.458008   C1153.049561,1040.986938 1151.520630,1043.464966 1149.801880,1045.489380   C1147.495605,1048.205933 1144.018311,1050.066040 1142.169434,1053.002563   C1138.931519,1058.145264 1141.945435,1063.556274 1142.854492,1068.822266   C1143.080811,1070.133667 1143.511108,1071.409668 1144.154541,1073.880249   C1140.262085,1072.174438 1137.603638,1071.009399 1134.255737,1069.542236   C1132.709717,1073.325562 1130.878296,1078.189819 1128.696289,1082.891479   C1128.115723,1084.142334 1126.558105,1085.451050 1125.263184,1085.679688   C1124.395630,1085.832886 1122.706665,1084.336548 1122.234009,1083.219238   C1119.686157,1077.196655 1117.403687,1071.061768 1114.499390,1063.603638   C1113.153687,1066.684570 1112.378784,1068.458740 1111.006104,1071.601807   C1109.908081,1068.252930 1109.206543,1066.113037 1108.166626,1062.941040   C1105.298950,1068.465332 1102.885132,1073.115356 1100.165405,1078.354736   C1093.617310,1078.870850 1095.261963,1072.586060 1094.794434,1068.727539   C1094.354736,1065.098145 1094.731201,1062.559692 1089.747437,1062.125854   C1088.019409,1061.975342 1086.585205,1057.649780 1085.167969,1055.145630   C1084.642700,1054.217407 1084.550903,1053.044189 1084.028564,1051.129028   C1082.692749,1053.278931 1081.803833,1054.709717 1080.562134,1056.708374   C1079.295898,1054.829468 1078.262695,1053.296387 1076.991821,1051.410400   C1075.968506,1053.460693 1075.302002,1055.501709 1074.069458,1057.108643   C1071.953857,1059.867188 1069.374146,1059.316895 1068.114990,1056.118286   C1067.392822,1054.284058 1066.793579,1052.342285 1065.734131,1050.712036   C1063.319946,1046.996704 1060.907959,1043.488159 1066.739258,1040.633423   C1067.272217,1040.372437 1067.849487,1039.651489 1067.921143,1039.082886   C1068.764038,1032.391357 1075.576904,1030.768677 1078.954224,1026.173462   C1081.104736,1023.247498 1092.817139,1024.434937 1095.968628,1027.043945   C1097.223267,1028.082520 1098.624634,1029.752075 1099.957275,1029.750122   C1106.112793,1029.741333 1107.962402,1034.002441 1108.735474,1038.664429   C1109.645264,1044.151367 1114.021606,1045.365479 1117.898926,1046.574585   C1121.102295,1047.573486 1123.733276,1045.531250 1126.811035,1043.318237   C1132.956665,1038.899170 1139.023315,1032.175049 1148.649780,1035.152466   C1149.630981,1031.343872 1155.377441,1028.721313 1150.626099,1022.990112   C1155.102051,1020.237488 1159.014160,1017.187012 1163.421021,1015.278809   C1169.394043,1012.692383 1177.322998,1014.763245 1182.972656,1021.156372   C1186.037598,1024.624756 1188.610962,1028.527588 1191.604370,1032.546509  z"/>
<path fill="#A1CCFC" opacity="1.000000" stroke="none" d=" M811.685242,993.464600   C811.145874,999.003540 805.010559,1004.183716 801.153870,1002.049194   C799.124512,1005.187744 797.256775,1008.479248 794.909241,1011.382751   C794.412231,1011.997437 792.161621,1011.194336 789.238953,1010.890747   C786.810120,1016.139099 782.271362,1022.741272 780.931152,1029.938843   C779.995483,1034.964355 776.627136,1035.176880 775.023621,1034.397461   C771.713806,1032.788574 769.105347,1029.610474 766.444397,1026.850464   C765.251038,1025.612671 764.625061,1023.827759 763.488037,1021.850037   C762.028320,1023.721008 760.882507,1025.189575 759.563049,1026.880615   C758.542480,1025.911377 757.777466,1025.184814 756.967529,1024.415527   C753.868835,1029.809814 753.868835,1029.809814 751.841309,1027.596069   C748.743408,1030.072632 745.695740,1032.509033 742.331299,1035.198608   C741.339111,1033.863281 740.494385,1032.726318 739.511841,1031.403931   C738.863464,1033.288574 738.225281,1035.143921 737.428406,1037.460327   C733.133667,1034.505127 740.415894,1027.213257 733.148621,1026.490234   C732.891907,1022.279968 732.644897,1018.224731 732.397339,1014.169495   C732.153320,1010.171936 736.390869,1005.852356 740.133423,1004.930725   C745.026306,1003.725830 749.755249,1001.762878 754.446899,999.860229   C758.624695,998.166016 762.389099,998.050537 766.912537,999.470825   C772.151062,1001.115601 777.950989,1000.982056 783.510559,1001.589539   C785.396362,1001.795593 787.292419,1001.907349 789.549194,1002.092041   C792.467407,998.818420 795.781738,996.108765 801.487366,996.819458   C804.419006,997.184631 807.713379,994.637695 811.236938,993.408142   C811.630005,993.409546 811.685242,993.464600 811.685242,993.464600  z"/>
<path fill="#83BCFD" opacity="1.000000" stroke="none" d=" M1192.829224,1057.937500   C1198.649170,1055.883423 1204.052612,1053.725952 1209.557617,1051.869385   C1211.210327,1051.312134 1213.145752,1051.593384 1215.519897,1051.458008   C1214.754150,1049.979858 1214.229004,1048.966309 1213.703857,1047.952637   C1214.911743,1047.892944 1216.133667,1047.927856 1217.323730,1047.749268   C1218.752319,1047.534790 1220.153564,1047.138306 1222.402344,1046.632935   C1221.957642,1049.242188 1221.532104,1051.739502 1221.075439,1054.419922   C1218.987061,1053.855225 1217.641357,1053.491333 1216.292969,1053.126709   C1215.377808,1056.162109 1215.070923,1059.268677 1213.548950,1061.572266   C1212.315552,1063.438965 1209.765991,1064.847290 1207.522827,1065.488037   C1206.079102,1065.900391 1203.432373,1065.057861 1202.585083,1063.875122   C1201.453979,1062.296021 1201.545532,1059.841309 1200.165771,1057.570679   C1199.659058,1059.445801 1199.450806,1061.480103 1198.560425,1063.150757   C1197.693604,1064.777466 1196.321899,1066.350342 1194.773438,1067.291260   C1194.162964,1067.662231 1192.531250,1066.001343 1191.264038,1065.723022   C1189.248169,1065.280151 1187.081665,1064.798462 1185.101440,1065.110840   C1182.874268,1065.462036 1180.783203,1066.675781 1178.421997,1067.596558   C1177.954712,1064.091797 1177.611450,1061.517090 1177.189819,1058.354248   C1176.070557,1059.212891 1175.503174,1059.799072 1174.814819,1060.145264   C1173.307861,1060.903076 1171.739624,1061.539062 1170.196533,1062.224854   C1170.488159,1060.898560 1170.871948,1059.583618 1171.036255,1058.241821   C1171.132690,1057.454224 1170.755615,1056.615967 1170.806030,1055.814087   C1170.976685,1053.095947 1171.242920,1050.383911 1171.523560,1047.068237   C1175.138550,1048.251709 1177.852905,1052.699585 1179.758911,1046.049316   C1180.332397,1047.968750 1180.617188,1048.921631 1181.020020,1050.269775   C1181.821899,1049.403076 1182.482300,1048.689209 1182.755371,1048.394043   C1186.081421,1051.671753 1189.266479,1054.810547 1192.829224,1057.937500  z"/>
<path fill="#9AC8FC" opacity="1.000000" stroke="none" d=" M811.968872,993.734619   C811.685242,993.464600 811.630005,993.409546 811.619019,993.400635   C811.345337,991.936401 811.082642,990.481140 810.689087,988.300598   C816.506470,988.164978 819.903625,981.302673 826.721252,983.953247   C832.244751,986.100769 835.855469,993.796204 832.783386,998.610107   C830.906494,1001.551086 828.927124,1004.153198 829.479248,1008.031128   C829.646362,1009.204834 827.940979,1010.645142 826.555237,1012.800110   C825.737183,1010.914673 824.863953,1009.902832 824.998535,1009.050110   C825.881409,1003.457397 821.813599,999.968079 819.436462,995.814636   C819.034119,995.111755 817.104187,995.318970 815.898132,995.030396   C814.671326,994.736877 813.466858,994.350342 811.968872,993.734619  z"/>
<path fill="#91C4FD" opacity="1.000000" stroke="none" d=" M1046.686523,1025.221191   C1050.038574,1027.882446 1054.186035,1029.589478 1053.559570,1035.939941   C1052.094727,1033.991333 1051.312378,1032.950562 1050.347900,1031.667480   C1048.934448,1033.806641 1047.647217,1035.789917 1046.323242,1037.748535   C1045.027466,1039.665405 1043.694214,1041.556885 1042.523438,1043.248413   C1039.385376,1035.288208 1036.797852,1028.724609 1034.210327,1022.160950   C1034.520630,1021.746826 1034.831055,1021.332642 1035.141357,1020.918457   C1038.890259,1022.280518 1042.639160,1023.642517 1046.686523,1025.221191  z"/>
<path fill="#83BCFD" opacity="1.000000" stroke="none" d=" M1029.543945,1026.404785   C1027.454468,1025.827148 1025.688232,1025.086914 1023.921936,1024.346680   C1023.943665,1023.616150 1023.965393,1022.885681 1023.987122,1022.155151   C1026.360352,1021.653442 1028.733643,1021.151733 1031.106812,1020.650024   C1030.693604,1022.514038 1030.280396,1024.378052 1029.543945,1026.404785  z"/>
<path fill="#83BCFD" opacity="1.000000" stroke="none" d=" M1188.106812,1068.591553   C1188.276367,1068.389282 1188.515381,1068.305664 1188.761230,1068.265747   C1188.795654,1068.260254 1188.864746,1068.469116 1188.917847,1068.578735   C1188.671387,1068.627197 1188.424805,1068.675659 1188.106812,1068.591553  z"/>
<path fill="#9AC8FC" opacity="1.000000" stroke="none" d=" M778.152222,944.596069   C778.088745,944.661865 777.869934,944.427673 777.869934,944.427673   C777.869934,944.427673 778.215698,944.530334 778.152222,944.596069  z"/>
<path fill="#83BCFD" opacity="1.000000" stroke="none" d=" M1191.963379,1069.352051   C1192.046997,1069.353149 1191.960571,1069.620605 1191.960571,1069.620605   C1191.960571,1069.620605 1191.879883,1069.350830 1191.963379,1069.352051  z"/>
<path fill="#5AA6FE" opacity="1.000000" stroke="none" d=" M667.125610,1040.856934   C667.453857,1041.033936 667.721863,1041.283447 667.989868,1041.532837   C667.726746,1041.485229 667.463684,1041.437622 667.072754,1041.231934   C666.944824,1041.073975 667.065308,1040.929199 667.125610,1040.856934  z"/>
</svg>
