<svg xmlns="http://www.w3.org/2000/svg" xmlns:xlink="http://www.w3.org/1999/xlink" version="1.1" id="Layer_1" x="0px" y="0px" width="720.2539059999999" viewBox="451.919312 202.021347 720.2539059999999 998.9029690000001" enable-background="new 0 0 1920 2000" xml:space="preserve" height="998.9029690000001">
<path fill="#ADD4FD" opacity="1.000000" stroke="none" d=" M1045.903442,1198.043335   C1012.912048,1198.028931 979.920044,1198.137695 946.929504,1197.961548   C919.845520,1197.817017 892.683777,1195.846802 865.695984,1197.292358   C797.880066,1200.924316 730.066223,1198.256226 662.259705,1198.865723   C594.282410,1199.476807 526.295349,1199.000000 458.312531,1199.000000   C456.350037,1199.000000 454.387543,1199.000000 452.010223,1199.000000   C452.010223,997.380737 452.010223,796.149414 452.467529,594.456238   C457.357239,592.744263 461.876343,591.130554 464.968872,596.429443   C467.026794,599.955627 469.354767,602.496216 474.002167,600.314331   C474.719269,599.977600 476.260223,601.219177 477.341217,601.863342   C483.417877,605.484558 489.577759,608.893921 496.918243,608.981689   C502.648285,609.050232 508.393402,609.234680 514.105957,608.910889   C518.031799,608.688416 521.913208,607.683899 526.703613,606.879639   C525.332825,605.272034 524.932556,604.787415 524.516357,604.316833   C520.244690,599.487488 512.545898,598.539368 510.070404,591.486328   C509.822266,590.779419 506.660187,590.388794 505.289062,590.940796   C502.973419,591.873108 501.008789,593.677063 498.094147,595.660461   C496.134094,591.812500 494.474365,588.554138 493.512573,586.665955   C489.867004,584.700745 487.322632,583.209473 484.673553,581.936035   C482.223755,580.758484 478.487457,580.505981 477.382843,578.630066   C474.722229,574.111755 471.666687,573.144897 467.042603,574.742493   C466.123077,575.060181 464.873108,574.311646 463.760925,574.200378   C459.035980,573.727600 455.791901,570.520020 452.168457,568.008118   C452.113342,546.899536 451.919312,525.789001 452.220123,504.685486   C452.249878,502.598816 455.085266,500.318848 456.996796,498.533752   C464.155701,491.848328 471.621094,485.486420 478.678680,478.698669   C483.732666,473.837921 488.559509,468.692444 493.061554,463.317139   C500.878571,453.983948 508.292816,444.314514 516.031006,434.913696   C518.755493,431.603790 521.887390,428.619415 524.969116,425.626251   C525.336304,425.269653 526.561951,425.796997 527.705627,426.434448   C526.894958,429.889587 525.762756,432.822784 524.642944,435.760712   C521.717957,443.434418 518.659973,451.062531 515.990601,458.824280   C515.438538,460.429535 515.754456,463.662048 516.704407,464.156067   C518.288208,464.979675 521.139038,464.911804 522.699463,463.967834   C529.464111,459.875885 536.383484,455.848328 542.443726,450.828186   C551.383789,443.422455 559.556702,435.097168 568.262451,427.396484   C569.958313,425.896393 573.501038,424.086884 574.610596,424.818451   C576.947205,426.359039 579.356445,429.343842 579.700256,431.999512   C580.259094,436.316437 579.340454,440.864990 578.767151,445.279633   C577.619141,454.120026 575.747620,462.909302 575.306030,471.776062   C575.144897,475.011780 577.375061,479.616364 580.005249,481.409332   C582.962463,483.425293 586.994873,481.693298 590.495667,479.234894   C599.392517,472.987213 607.061890,465.615448 614.208069,457.458588   C623.459717,446.898682 633.322876,436.876373 642.826111,426.533752   C644.819824,424.363953 646.525696,420.644653 649.776550,422.729034   C651.932251,424.111206 653.246948,427.576874 653.899536,430.353912   C654.928528,434.732941 655.084473,439.317169 655.808105,445.510651   C660.261658,441.899170 664.347046,439.687164 666.916565,436.318787   C680.687012,418.267517 694.056641,399.910828 707.630310,381.708618   C709.441833,379.279419 711.625671,377.127930 714.178955,374.233551   C715.409790,377.073456 716.645874,378.804535 716.878418,380.661285   C717.762146,387.717712 718.648621,394.801605 718.933228,401.899353   C719.499146,416.012115 719.149780,430.178040 720.162415,444.251221   C720.978394,455.590057 723.176331,466.834991 724.947144,478.092346   C725.161804,479.456512 726.482544,481.634003 727.384277,481.682190   C728.915283,481.764008 731.151550,480.882538 731.993347,479.653656   C737.784973,471.199097 743.868469,462.863220 748.752014,453.887360   C755.730591,441.060822 763.323425,428.725922 772.878479,417.692810   C776.723511,413.253052 780.937622,413.969574 782.580994,419.517517   C785.157959,428.217560 786.964783,437.145691 789.105408,446.347534   C789.996155,449.053436 790.879333,451.389008 792.311279,455.175873   C793.914246,451.997162 794.928284,449.986176 796.077393,447.682922   C796.471924,446.585632 796.731445,445.780670 797.299316,444.830200   C799.341064,442.145416 801.074463,439.606110 802.877747,436.964386   C821.915100,452.675690 840.552979,468.057343 859.190918,483.438995   C859.058716,483.941803 858.926514,484.444641 858.794312,484.947449   C847.627625,484.947449 836.460876,484.947449 825.294189,484.947449   C825.046631,485.589905 824.799072,486.232361 824.551514,486.874786   C841.734192,500.441223 858.916870,514.007690 876.099548,527.574097   C875.813538,527.961853 875.527588,528.349609 875.241577,528.737366   C863.776306,527.784241 853.203247,521.308044 839.788147,522.483398   C841.612915,524.376221 842.281372,525.529785 843.277832,526.030457   C851.375793,530.099304 859.673035,533.790710 867.642517,538.091858   C878.649536,544.032349 889.640503,550.057434 900.239685,556.683960   C912.155457,564.133606 923.584961,572.357300 935.314453,580.110596   C939.764954,583.052368 944.461548,585.621765 950.086182,588.982483   C946.740173,588.982483 944.743652,588.982483 942.615784,588.824646   C942.499329,588.531677 942.505066,588.394653 942.533508,588.262451   C942.544922,588.209351 942.605774,588.166809 942.644165,588.119507   C942.561035,588.191040 942.489014,588.288147 942.392944,588.329895   C941.613831,588.668579 940.830200,588.997009 939.798706,588.977661   C931.197205,588.560364 922.498108,585.227783 914.790955,591.392761   C914.011780,592.016113 912.577148,591.891663 911.436218,591.979065   C905.622803,592.424255 900.061279,593.298828 896.554565,598.843811   C895.984741,599.744812 894.728699,600.824951 893.820312,600.797913   C888.561340,600.641541 884.946472,603.049011 881.998840,608.060486   C886.608398,612.933777 891.358643,617.955933 895.955444,623.278137   C895.818542,624.487244 895.520264,625.566284 895.904053,626.277100   C898.033081,630.220154 900.272583,634.106812 902.575012,637.952515   C915.362427,659.311035 928.169556,680.657837 940.998779,701.991272   C942.400818,704.322754 942.832581,706.297668 940.895081,708.759277   C937.515869,713.052612 934.505066,717.638184 931.383423,722.131653   C922.034302,735.589539 912.706360,749.062134 903.428345,762.444946   C916.303223,779.825928 929.006775,796.975708 941.710388,814.125488   C932.357727,810.665344 923.911682,806.371826 915.405334,802.201355   C906.301636,797.737976 897.141113,793.390564 887.836914,788.753296   C887.067139,788.421326 886.465698,788.328735 885.864319,788.236206   C885.841248,788.444458 885.818176,788.652771 885.795105,788.861084   C886.526855,788.910706 887.258545,788.960388 888.017883,789.363892   C888.743652,791.017273 889.265381,792.456604 890.167114,793.594604   C899.575562,805.468750 909.137512,817.222473 918.442261,829.176575   C921.302612,832.851501 923.505676,837.038025 926.005188,840.994751   C926.000671,840.999268 925.994507,841.007324 925.610229,840.999390   C911.456970,835.859009 897.798096,830.222351 881.493347,832.183167   C882.467529,834.682312 883.052307,837.533875 884.541138,839.788452   C896.796143,858.347290 909.230225,876.787842 921.583191,895.282166   C924.657043,899.884216 927.633240,904.551392 930.654297,909.188660   C930.439087,909.384033 930.223938,909.579346 930.008728,909.774719   C916.263428,903.168396 902.518127,896.562073 888.772827,889.955750   C889.173950,892.972961 890.377136,894.913513 891.446411,896.925232   C905.877014,924.073425 920.287231,951.232483 934.706360,978.386780   C945.929321,999.521912 957.195923,1020.634033 968.374939,1041.792358   C984.681274,1072.655029 1000.889771,1103.569458 1017.215637,1134.421753   C1023.741943,1146.754883 1030.517578,1158.955688 1037.089478,1171.264771   C1041.693970,1179.888916 1046.145630,1188.594849 1050.910645,1197.734375   C1048.798340,1197.864746 1047.350952,1197.953979 1045.903442,1198.043335  M515.068542,567.473145   C516.560181,568.648071 518.084045,570.849731 519.537415,570.804199   C523.781494,570.671143 528.535461,570.645935 532.102417,568.735413   C537.959839,565.598145 547.874817,569.108765 549.469055,558.688538   C549.490234,558.550110 550.047913,558.493774 550.898438,558.231689   C551.577759,559.756958 552.200928,561.401367 553.030212,562.934326   C553.609131,564.004517 554.260925,565.396729 555.240234,565.828552   C560.414795,568.110352 563.232361,575.369812 570.544617,573.157043   C570.773315,573.087891 571.116272,573.436829 571.417847,573.562256   C576.550720,575.697876 581.669739,577.868958 586.838989,579.912842   C587.520691,580.182434 588.661011,580.083679 589.249695,579.671204   C593.629089,576.603027 598.179199,573.703613 602.175659,570.183533   C606.705505,566.193604 606.259583,564.924438 600.532288,562.377930   C592.956238,569.372070 590.483582,568.460388 587.152893,557.337524   C584.512573,556.277344 580.123352,558.609009 579.257263,553.581970   C579.208557,553.299500 578.033936,553.304199 577.479614,552.999939   C574.692627,551.469788 571.991089,549.774658 569.150146,548.356445   C567.628296,547.596741 565.854980,546.758789 564.249084,546.855225   C558.669922,547.190308 553.951660,545.535095 549.397949,542.340881   C547.709045,541.156128 544.671143,540.667053 542.737244,541.316467   C538.812195,542.634644 535.524780,545.807617 530.759155,544.135986   C529.767944,543.788330 527.564514,544.776611 526.964172,545.776367   C522.839355,552.645630 518.992249,559.681702 515.068542,567.473145  z"/>
<path fill="#D2E8FD" opacity="1.000000" stroke="none" d=" M1046.119507,1198.428223   C1047.350952,1197.953979 1048.798340,1197.864746 1050.910645,1197.734375   C1046.145630,1188.594849 1041.693970,1179.888916 1037.089478,1171.264771   C1030.517578,1158.955688 1023.741943,1146.754883 1017.215637,1134.421753   C1000.889771,1103.569458 984.681274,1072.655029 968.374939,1041.792358   C957.195923,1020.634033 945.929321,999.521912 934.706360,978.386780   C920.287231,951.232483 905.877014,924.073425 891.446411,896.925232   C890.377136,894.913513 889.173950,892.972961 888.772827,889.955750   C902.518127,896.562073 916.263428,903.168396 930.008728,909.774719   C930.223938,909.579346 930.439087,909.384033 930.654297,909.188660   C927.633240,904.551392 924.657043,899.884216 921.583191,895.282166   C909.230225,876.787842 896.796143,858.347290 884.541138,839.788452   C883.052307,837.533875 882.467529,834.682312 881.493347,832.183167   C897.798096,830.222351 911.456970,835.859009 925.733704,841.207825   C926.599548,841.404602 926.957764,841.384888 927.315918,841.365173   C926.880493,841.240234 926.445129,841.115295 926.009705,840.990295   C923.505676,837.038025 921.302612,832.851501 918.442261,829.176575   C909.137512,817.222473 899.575562,805.468750 890.167114,793.594604   C889.265381,792.456604 888.743652,791.017273 888.022461,789.359314   C887.999329,789.000793 888.005371,788.992615 888.005371,788.992615   C897.141113,793.390564 906.301636,797.737976 915.405334,802.201355   C923.911682,806.371826 932.357727,810.665344 941.710388,814.125488   C929.006775,796.975708 916.303223,779.825928 903.428345,762.444946   C912.706360,749.062134 922.034302,735.589539 931.383423,722.131653   C934.505066,717.638184 937.515869,713.052612 940.895081,708.759277   C942.832581,706.297668 942.400818,704.322754 940.998779,701.991272   C928.169556,680.657837 915.362427,659.311035 902.575012,637.952515   C900.272583,634.106812 898.033081,630.220154 895.904053,626.277100   C895.520264,625.566284 895.818542,624.487244 896.314575,623.286011   C898.812317,624.087036 900.792053,625.190186 902.783569,626.271545   C906.803955,628.454590 910.605835,631.506226 914.905334,632.604858   C922.174805,634.462280 929.760742,635.081238 936.995544,636.187561   C937.719116,631.339661 938.516113,627.273315 938.802124,623.171265   C938.871948,622.170288 937.473206,620.560730 936.382568,620.099915   C934.613525,619.352661 932.486389,619.502625 930.615234,618.930847   C929.257080,618.515808 928.068237,617.546814 926.803955,616.824768   C928.106873,615.387390 928.867554,615.043884 929.631287,615.036987   C933.615723,615.001343 936.470093,614.764648 933.545410,609.403381   C932.171631,606.885254 931.731262,602.578735 935.549133,601.286560   C938.703674,600.218811 937.090027,598.737549 937.332031,597.144897   C938.225525,596.007874 938.779053,594.934448 939.332642,593.860962   C939.156860,593.781372 938.981140,593.701782 938.805359,593.622253   C940.119263,592.075623 941.433167,590.529053 942.747070,588.982483   C944.743652,588.982483 946.740173,588.982483 950.086182,588.982483   C944.461548,585.621765 939.764954,583.052368 935.314453,580.110596   C923.584961,572.357300 912.155457,564.133606 900.239685,556.683960   C889.640503,550.057434 878.649536,544.032349 867.642517,538.091858   C859.673035,533.790710 851.375793,530.099304 843.277832,526.030457   C842.281372,525.529785 841.612915,524.376221 839.788147,522.483398   C853.203247,521.308044 863.776306,527.784241 875.241577,528.737366   C875.527588,528.349609 875.813538,527.961853 876.099548,527.574097   C858.916870,514.007690 841.734192,500.441223 824.551514,486.874786   C824.799072,486.232361 825.046631,485.589905 825.294189,484.947449   C836.460876,484.947449 847.627625,484.947449 858.794312,484.947449   C858.926514,484.444641 859.058716,483.941803 859.190918,483.438995   C840.552979,468.057343 821.915100,452.675690 802.877747,436.964386   C801.074463,439.606110 799.341064,442.145416 797.305115,444.449646   C798.333252,440.798828 799.663940,437.383026 801.337524,433.926300   C802.328735,433.177979 803.046936,432.522339 803.614380,431.755157   C809.109009,424.326294 814.427673,416.758148 820.194153,409.547760   C821.231689,408.250397 824.136780,407.822388 826.088745,407.998779   C831.725464,408.508148 834.064575,413.378967 835.846375,417.559326   C840.051147,427.424347 843.324707,437.682556 847.143738,447.717468   C848.600769,451.545868 850.519409,455.198608 852.227722,458.931396   C852.871399,458.779449 853.515076,458.627533 854.158752,458.475616   C855.214355,451.827209 856.458618,445.202118 857.282959,438.525208   C858.659363,427.377716 859.936218,416.211792 860.912292,405.023773   C861.359497,399.896759 860.774109,394.684387 861.111450,389.540527   C861.233521,387.679718 862.681824,385.905945 863.524963,384.092438   C865.170044,385.003052 867.134705,385.595245 868.409485,386.874786   C878.329346,396.831909 887.964722,407.076202 898.005310,416.907745   C903.433655,422.223083 909.460205,426.931152 915.258850,431.863953   C924.567139,439.782440 933.804504,447.791412 943.320312,455.453613   C945.440125,457.160522 948.590820,457.587128 951.266907,458.603210   C952.170227,455.312012 953.132202,452.034973 953.931885,448.718811   C954.111206,447.975220 953.843750,447.052521 953.577026,446.283386   C949.245178,433.792053 944.972290,421.278992 940.484436,408.843567   C938.191833,402.490906 935.500488,396.282104 932.994690,390.004028   C933.000000,389.999786 933.008728,389.988708 933.373474,389.989075   C934.354492,390.189514 935.119507,390.220978 935.565125,390.614319   C946.089844,399.903625 956.225525,409.676331 967.183044,418.419800   C976.843750,426.128357 987.344482,432.801453 997.642578,439.679840   C999.787903,441.112793 1002.671570,441.440308 1006.443481,442.681549   C1004.101318,429.794647 993.842224,421.508209 993.099304,409.012451   C1004.309265,414.593597 1014.768982,419.801208 1025.228638,425.008820   C1025.459229,424.711243 1025.689697,424.413666 1025.920288,424.116119   C1024.580688,421.722656 1023.241211,419.329163 1021.958008,416.498901   C1022.865051,415.705750 1023.715881,415.349457 1024.825684,414.979065   C1025.430054,414.954712 1025.775513,414.944427 1026.120972,414.934174   C1026.120972,414.934174 1026.037109,414.979462 1026.034912,415.141968   C1026.046143,415.583099 1026.014038,415.856415 1025.936401,416.124390   C1025.808716,418.717468 1030.374878,423.181732 1033.801636,423.956818   C1034.825806,424.188416 1036.005615,424.549286 1036.704224,425.256042   C1039.273560,427.855072 1041.628540,430.665955 1044.201660,433.260864   C1044.442261,433.503479 1045.651367,432.785553 1045.435913,432.862732   C1048.548950,436.300446 1051.186279,439.869629 1054.467529,442.689362   C1060.044922,447.482269 1065.787354,452.164215 1071.897705,456.236847   C1080.733154,462.125916 1089.951538,467.441895 1099.035156,472.955017   C1099.596680,473.295868 1100.494385,473.492920 1101.091919,473.303589   C1112.177979,469.790710 1120.705566,474.974335 1128.893311,481.377380   C1130.535034,482.661194 1132.199829,483.915405 1134.123657,485.389984   C1135.896240,483.057953 1137.111450,479.783966 1139.120239,479.188995   C1142.573730,478.166016 1147.013794,477.659088 1150.160645,478.999390   C1156.769775,481.814240 1162.666016,486.257904 1169.144409,489.444397   C1172.173218,490.934082 1172.010986,492.948517 1172.010254,495.424408   C1171.996338,541.908936 1172.000000,588.393494 1172.000000,634.877991   C1172.000000,820.983093 1172.000000,1007.088257 1172.000000,1193.193359   C1172.000000,1194.985229 1172.000000,1196.777222 1172.000000,1198.999878   C1170.678467,1198.999878 1169.728271,1198.999878 1168.778198,1198.999878   C1129.124634,1199.000000 1089.471069,1199.001587 1049.817505,1198.992065   C1048.656860,1198.991821 1047.496216,1198.875488 1046.119507,1198.428223  M959.793701,612.202820   C960.861389,612.770447 961.929138,613.338074 963.051025,614.586243   C963.630371,617.587708 965.132629,618.866882 968.458069,619.507141   C972.158081,620.219543 975.524719,622.663696 979.347778,624.503845   C973.932251,632.255981 965.867798,626.832336 959.102295,630.511353   C961.452393,632.591553 963.157166,634.534851 965.248230,635.875854   C974.063660,641.529297 983.864136,645.768372 991.090210,653.677795   C993.100464,655.878113 994.568970,658.573364 995.565125,660.005371   C1002.622864,663.833679 1008.949524,667.265442 1015.763733,670.961609   C1013.200989,674.560059 1011.393127,677.098572 1009.376831,679.929749   C1010.229675,680.123901 1011.266479,680.729614 1011.902466,680.443665   C1015.549133,678.804810 1019.472473,677.445129 1022.605835,675.071716   C1028.836792,670.351990 1034.545654,664.949707 1040.608398,659.998657   C1043.846680,657.354126 1047.434814,655.141479 1050.733521,652.565552   C1051.790527,651.740234 1052.425781,650.375061 1053.590576,648.802612   C1048.877441,648.516174 1048.877319,648.516235 1047.142212,643.059998   C1045.105225,636.654114 1045.152344,636.847656 1038.783691,638.394226   C1037.474731,638.712097 1034.233032,636.550659 1034.317871,636.271057   C1035.059326,633.827454 1036.354370,631.551819 1037.704346,628.775818   C1036.142822,628.397827 1034.745728,628.059570 1033.620239,627.007874   C1033.094849,626.383301 1032.569580,625.758789 1031.676880,624.555298   C1026.209839,618.665894 1020.232239,617.744934 1013.616943,622.656616   C1013.254883,622.925415 1012.668335,622.891907 1011.858765,622.406433   C1007.769836,622.410889 1005.340271,628.521912 1000.432068,625.511536   C998.491638,630.542908 994.598633,626.815369 991.679749,627.457520   C990.927307,627.623047 990.161499,627.728333 988.604309,627.930542   C987.567627,627.666992 986.218933,627.719971 985.561157,627.071838   C984.308105,625.837341 983.449585,624.202454 982.427246,622.733765   C982.103882,622.933411 981.780579,623.133057 981.457214,623.332703   C981.637329,621.887939 981.817444,620.443115 982.274353,618.892883   C982.183411,618.929382 982.092529,618.965881 981.164917,619.002502   C978.471252,619.202148 976.124573,619.160828 975.172058,615.717529   C974.847900,614.545471 972.920593,613.816895 971.750122,612.140381   C973.183594,608.852783 974.617065,605.565186 976.070557,602.231689   C971.968201,601.796509 970.230225,607.210022 966.179932,604.643433   C963.752625,609.070862 959.475281,605.446106 956.288330,606.733154   C957.269653,608.545288 958.164001,610.197021 958.196716,611.892578   C951.795410,608.995850 945.394043,606.099121 937.630493,602.585938   C938.026489,607.813477 938.360657,612.224426 938.677795,616.410889   C941.345398,616.070679 943.810730,614.963562 944.899170,615.753540   C949.816772,619.322449 954.576904,618.023010 959.795837,616.366638   C959.546814,614.758606 959.325562,613.330200 959.793701,612.202820  M992.226990,614.224915   C990.833618,614.409668 989.440247,614.594421 987.226624,614.887878   C990.665588,616.584351 993.450500,617.958191 996.895142,619.657471   C997.269775,614.310913 1000.898376,610.838623 1006.137634,608.757874   C1006.582764,608.581116 1007.077942,607.232605 1006.966919,607.141846   C1003.636963,604.420288 1007.980835,603.799011 1008.433838,602.164490   C1008.892456,600.509521 1010.376465,599.138672 1011.315491,597.781799   C1004.748535,599.416504 998.459839,600.981873 990.955627,602.849792   C994.896179,604.339661 998.193237,605.586182 1001.327026,606.770996   C1001.197571,608.005188 1001.029907,609.604309 1000.843750,611.378967   C998.218933,612.256958 995.589722,613.136353 992.226990,614.224915  M946.429016,574.208374   C944.394470,574.492737 942.359924,574.777039 940.327698,575.061096   C942.969666,577.071350 945.283447,578.985413 947.787537,580.605225   C948.278259,580.922668 950.033142,580.345764 950.302856,579.763489   C951.540771,577.090454 952.458679,574.269287 953.407043,571.727417   C951.298279,572.425537 949.176941,573.127808 946.429016,574.208374  M974.229614,588.101135   C974.892212,587.610229 975.644287,587.201599 976.192078,586.605286   C976.741089,586.007385 977.086304,585.222229 977.857239,583.974731   C973.056458,585.098999 969.005737,586.047607 964.954956,586.996277   C966.512817,588.334900 968.174622,588.679871 969.805420,589.135681   C970.555603,589.345398 971.296326,589.694153 971.948364,590.121582   C972.668579,590.593811 973.282349,591.228577 973.942505,591.792480   C973.877991,590.754578 973.813477,589.716614 974.229614,588.101135  M980.584106,616.517639   C980.584106,616.517639 980.475525,616.582581 980.584106,616.517639  z"/>
<path fill="#E8EEF4" opacity="1.000000" stroke="none" d=" M800.994629,433.967224   C799.663940,437.383026 798.333252,440.798828 796.996765,444.595154   C796.731445,445.780670 796.471924,446.585632 795.689087,447.689362   C793.143127,447.317841 791.120483,446.647522 789.097839,445.977203   C786.964783,437.145691 785.157959,428.217560 782.580994,419.517517   C780.937622,413.969574 776.723511,413.253052 772.878479,417.692810   C763.323425,428.725922 755.730591,441.060822 748.752014,453.887360   C743.868469,462.863220 737.784973,471.199097 731.993347,479.653656   C731.151550,480.882538 728.915283,481.764008 727.384277,481.682190   C726.482544,481.634003 725.161804,479.456512 724.947144,478.092346   C723.176331,466.834991 720.978394,455.590057 720.162415,444.251221   C719.149780,430.178040 719.499146,416.012115 718.933228,401.899353   C718.648621,394.801605 717.762146,387.717712 716.878418,380.661285   C716.645874,378.804535 715.409790,377.073456 714.178955,374.233551   C711.625671,377.127930 709.441833,379.279419 707.630310,381.708618   C694.056641,399.910828 680.687012,418.267517 666.916565,436.318787   C664.347046,439.687164 660.261658,441.899170 655.808105,445.510651   C655.084473,439.317169 654.928528,434.732941 653.899536,430.353912   C653.246948,427.576874 651.932251,424.111206 649.776550,422.729034   C646.525696,420.644653 644.819824,424.363953 642.826111,426.533752   C633.322876,436.876373 623.459717,446.898682 614.208069,457.458588   C607.061890,465.615448 599.392517,472.987213 590.495667,479.234894   C586.994873,481.693298 582.962463,483.425293 580.005249,481.409332   C577.375061,479.616364 575.144897,475.011780 575.306030,471.776062   C575.747620,462.909302 577.619141,454.120026 578.767151,445.279633   C579.340454,440.864990 580.259094,436.316437 579.700256,431.999512   C579.356445,429.343842 576.947205,426.359039 574.610596,424.818451   C573.501038,424.086884 569.958313,425.896393 568.262451,427.396484   C559.556702,435.097168 551.383789,443.422455 542.443726,450.828186   C536.383484,455.848328 529.464111,459.875885 522.699463,463.967834   C521.139038,464.911804 518.288208,464.979675 516.704407,464.156067   C515.754456,463.662048 515.438538,460.429535 515.990601,458.824280   C518.659973,451.062531 521.717957,443.434418 524.642944,435.760712   C525.762756,432.822784 526.894958,429.889587 528.028564,426.580597   C533.161316,422.424500 536.008301,417.095764 534.329895,414.552155   C539.792786,410.213776 545.250305,405.879730 550.505493,401.706329   C551.248779,402.224182 550.763733,401.886230 549.038269,400.684082   C552.261169,400.380676 554.724548,400.823822 556.324036,399.849213   C559.132019,398.138214 562.126343,395.938507 563.592590,393.174316   C564.269287,391.898560 564.893982,391.364166 565.857788,390.518097   C568.523682,388.177917 570.750427,385.319458 573.500732,383.099579   C575.506287,381.480896 577.658142,377.751862 580.778809,381.949310   C580.841675,382.033875 581.185608,382.048828 581.252502,381.970947   C583.503540,379.349854 585.811768,376.769836 587.885681,374.013763   C588.170715,373.634949 587.278564,372.370392 586.746887,371.061707   C589.204224,369.294739 592.227966,367.120453 595.251770,364.946167   C595.414795,365.156769 595.577820,365.367340 595.740845,365.577911   C595.812012,365.427307 595.958008,365.269257 595.943848,365.127197   C594.458862,350.219452 606.584900,362.103210 610.476746,356.614258   C609.103088,356.707489 607.693176,356.852417 606.280518,356.887115   C604.338135,356.934845 602.393738,356.899109 599.053345,356.899109   C601.975952,355.570618 603.672424,354.799438 605.696838,353.879181   C606.307007,349.025604 624.461975,333.025238 631.908020,331.514862   C630.698792,324.569183 638.030701,324.819611 640.877197,321.140625   C643.406494,317.871613 647.899109,316.686066 649.404114,311.801880   C650.164429,309.334534 654.584167,308.185974 656.886780,305.962158   C661.414734,301.589233 666.224792,297.400055 667.231018,290.443451   C667.427490,289.084991 670.442810,287.190918 672.190002,287.156250   C682.035034,286.960846 691.930847,287.873566 701.730408,287.221619   C712.513977,286.504211 721.974854,290.689240 731.864502,293.444977   C735.318604,294.407471 738.130920,294.813080 738.174377,289.778625   C738.183899,288.667816 739.139404,287.153503 740.111084,286.536163   C743.700806,284.255402 744.995911,280.981934 745.690796,276.960205   C745.983215,275.267883 747.984192,272.614594 749.284485,272.569092   C755.043884,272.367493 754.315063,267.522461 756.049927,264.372955   C757.280762,262.138733 759.089600,260.230225 760.422424,258.043427   C763.677307,252.703262 766.869812,247.322189 769.946716,241.878036   C770.900452,240.190506 775.365540,237.635010 777.511597,237.782944   C778.305054,237.837631 779.136108,237.347610 779.950012,237.106003   C779.391846,236.644852 778.365417,236.188019 778.361084,235.721725   C778.346619,234.159775 778.140503,231.708817 778.996338,231.170731   C785.742004,226.929749 793.032227,223.491440 799.471313,218.856506   C802.157654,216.922852 804.160828,218.127991 806.551758,217.832153   C806.342224,216.823029 806.134888,215.824463 806.110168,215.705261   C809.300781,213.857574 812.113220,212.228912 814.889526,210.621155   C815.421570,213.657028 814.436707,215.783737 810.716187,216.159378   C810.409241,216.190353 810.230713,217.492706 809.982788,218.554260   C809.973083,218.904175 810.057678,218.930374 809.723633,219.023956   C809.563416,220.067566 809.737305,221.017593 810.193359,222.149460   C819.731506,231.408966 828.987427,240.486664 837.160583,248.502441   C829.212524,249.206543 820.245911,249.929260 811.297729,250.833618   C808.284119,251.138168 807.270813,253.173615 808.498352,255.859558   C810.941467,261.205048 813.334717,266.604492 816.254761,271.691040   C818.638855,275.843964 821.759033,279.574310 825.315002,284.560760   C819.826050,284.909485 816.027893,285.150787 811.832092,285.417328   C812.586731,287.261261 813.035706,288.358337 813.702698,289.988098   C811.011719,289.988098 808.872375,289.984802 806.733093,289.988800   C802.656982,289.996460 798.515137,289.577271 794.530029,290.184601   C792.243164,290.533112 788.314087,292.657593 788.378723,293.798157   C788.736084,300.105652 788.890930,306.893311 791.392212,312.500641   C795.133179,320.886810 800.766113,328.429047 805.681519,336.473083   C792.112610,338.506622 790.966919,339.241821 791.371460,345.225403   C788.873047,346.200989 786.423950,347.157318 783.687744,348.225739   C789.880432,355.647522 795.412659,362.277679 800.944824,368.907837   C800.739868,369.330750 800.534912,369.753662 800.329956,370.176544   C791.051819,368.385590 781.773621,366.594604 772.495483,364.803619   C772.250549,365.391022 772.005615,365.978394 771.760681,366.565796   C772.841614,367.585938 774.017944,368.523376 774.986938,369.640625   C779.211365,374.511169 785.670471,377.594604 786.193359,385.409454   C786.402527,388.534790 788.140869,391.995697 790.191467,394.467194   C794.249573,399.358063 799.009338,403.666779 803.479004,408.216187   C803.386292,408.574127 803.293579,408.932068 803.200867,409.290009   C798.324951,408.605194 793.449036,407.920349 788.437683,407.216522   C787.373474,413.488464 787.923462,418.949982 791.839111,423.625916   C794.793884,427.154297 797.935913,430.525879 800.994629,433.967224  z"/>
<path fill="#FEFFFE" opacity="1.000000" stroke="none" d=" M801.337524,433.926331   C797.935913,430.525879 794.793884,427.154297 791.839111,423.625916   C787.923462,418.949982 787.373474,413.488464 788.437683,407.216522   C793.449036,407.920349 798.324951,408.605194 803.200867,409.290009   C803.293579,408.932068 803.386292,408.574127 803.479004,408.216187   C799.009338,403.666779 794.249573,399.358063 790.191467,394.467194   C788.140869,391.995697 786.402527,388.534790 786.193359,385.409454   C785.670471,377.594604 779.211365,374.511169 774.986938,369.640625   C774.017944,368.523376 772.841614,367.585938 771.760681,366.565796   C772.005615,365.978394 772.250549,365.391022 772.495483,364.803619   C781.773621,366.594604 791.051819,368.385590 800.329956,370.176544   C800.534912,369.753662 800.739868,369.330750 800.944824,368.907837   C795.412659,362.277679 789.880432,355.647522 783.687744,348.225739   C786.423950,347.157318 788.873047,346.200989 791.371460,345.225403   C790.966919,339.241821 792.112610,338.506622 805.681519,336.473083   C800.766113,328.429047 795.133179,320.886810 791.392212,312.500641   C788.890930,306.893311 788.736084,300.105652 788.378723,293.798157   C788.314087,292.657593 792.243164,290.533112 794.530029,290.184601   C798.515137,289.577271 802.656982,289.996460 806.733093,289.988800   C808.872375,289.984802 811.011719,289.988098 813.702698,289.988098   C813.035706,288.358337 812.586731,287.261261 811.832092,285.417328   C816.027893,285.150787 819.826050,284.909485 825.315002,284.560760   C821.759033,279.574310 818.638855,275.843964 816.254761,271.691040   C813.334717,266.604492 810.941467,261.205048 808.498352,255.859558   C807.270813,253.173615 808.284119,251.138168 811.297729,250.833618   C820.245911,249.929260 829.212524,249.206543 837.160583,248.502441   C828.987427,240.486664 819.731506,231.408966 810.257690,221.728455   C810.045776,220.393890 810.051697,219.662125 810.057678,218.930374   C810.057678,218.930374 809.973083,218.904175 809.939331,218.930923   C815.725098,218.474960 817.371033,216.112228 817.265991,211.010361   C817.221619,208.856583 819.195801,205.816925 821.137390,204.640411   C825.318604,202.106720 830.251038,202.021347 835.033752,203.116226   C835.718079,203.272888 836.384521,204.452744 836.663391,205.290756   C839.803223,214.726639 845.987000,221.907471 853.557861,228.000519   C857.877136,231.476654 862.572632,234.494064 866.803162,238.067932   C868.913757,239.850830 870.262817,242.505737 872.125061,244.617340   C877.760864,251.007721 883.723694,257.125702 889.106384,263.719330   C896.611633,272.913116 903.772583,282.391663 910.952881,291.845520   C915.057983,297.250549 918.729797,302.989258 922.917358,308.326050   C929.084961,316.186005 935.400696,323.939758 941.903992,331.523682   C951.057678,342.198242 960.667297,352.487335 969.669739,363.284882   C981.255981,377.181427 996.073914,387.256805 1009.845947,398.603851   C1012.703735,400.958374 1014.312012,404.825378 1016.513245,407.983398   C1017.145935,408.891083 1017.838501,409.757050 1018.777832,410.292633   C1019.052185,409.943115 1018.929871,409.973877 1018.649170,410.286499   C1019.546143,412.711304 1020.723877,414.823517 1021.901733,416.935730   C1023.241211,419.329163 1024.580688,421.722656 1025.920288,424.116119   C1025.689697,424.413666 1025.459229,424.711243 1025.228638,425.008820   C1014.768982,419.801208 1004.309265,414.593597 993.099304,409.012451   C993.842224,421.508209 1004.101318,429.794647 1006.443481,442.681549   C1002.671570,441.440308 999.787903,441.112793 997.642578,439.679840   C987.344482,432.801453 976.843750,426.128357 967.183044,418.419800   C956.225525,409.676331 946.089844,399.903625 935.565125,390.614319   C935.119507,390.220978 934.354492,390.189514 933.319702,389.843994   C932.809509,389.648407 932.717712,389.598267 932.625977,389.548126   C932.747131,389.701508 932.868225,389.854889 932.989380,390.008270   C935.500488,396.282104 938.191833,402.490906 940.484436,408.843567   C944.972290,421.278992 949.245178,433.792053 953.577026,446.283386   C953.843750,447.052521 954.111206,447.975220 953.931885,448.718811   C953.132202,452.034973 952.170227,455.312012 951.266907,458.603210   C948.590820,457.587128 945.440125,457.160522 943.320312,455.453613   C933.804504,447.791412 924.567139,439.782440 915.258850,431.863953   C909.460205,426.931152 903.433655,422.223083 898.005310,416.907745   C887.964722,407.076202 878.329346,396.831909 868.409485,386.874786   C867.134705,385.595245 865.170044,385.003052 863.524963,384.092438   C862.681824,385.905945 861.233521,387.679718 861.111450,389.540527   C860.774109,394.684387 861.359497,399.896759 860.912292,405.023773   C859.936218,416.211792 858.659363,427.377716 857.282959,438.525208   C856.458618,445.202118 855.214355,451.827209 854.158752,458.475616   C853.515076,458.627533 852.871399,458.779449 852.227722,458.931396   C850.519409,455.198608 848.600769,451.545868 847.143738,447.717468   C843.324707,437.682556 840.051147,427.424347 835.846375,417.559326   C834.064575,413.378967 831.725464,408.508148 826.088745,407.998779   C824.136780,407.822388 821.231689,408.250397 820.194153,409.547760   C814.427673,416.758148 809.109009,424.326294 803.614380,431.755157   C803.046936,432.522339 802.328735,433.177979 801.337524,433.926331  z"/>
<path fill="#C2E0FD" opacity="1.000000" stroke="none" d=" M452.089630,568.470398   C455.791901,570.520020 459.035980,573.727600 463.760925,574.200378   C464.873108,574.311646 466.123077,575.060181 467.042603,574.742493   C471.666687,573.144897 474.722229,574.111755 477.382843,578.630066   C478.487457,580.505981 482.223755,580.758484 484.673553,581.936035   C487.322632,583.209473 489.867004,584.700745 493.512573,586.665955   C494.474365,588.554138 496.134094,591.812500 498.094147,595.660461   C501.008789,593.677063 502.973419,591.873108 505.289062,590.940796   C506.660187,590.388794 509.822266,590.779419 510.070404,591.486328   C512.545898,598.539368 520.244690,599.487488 524.516357,604.316833   C524.932556,604.787415 525.332825,605.272034 526.703613,606.879639   C521.913208,607.683899 518.031799,608.688416 514.105957,608.910889   C508.393402,609.234680 502.648285,609.050232 496.918243,608.981689   C489.577759,608.893921 483.417877,605.484558 477.341217,601.863342   C476.260223,601.219177 474.719269,599.977600 474.002167,600.314331   C469.354767,602.496216 467.026794,599.955627 464.968872,596.429443   C461.876343,591.130554 457.357239,592.744263 452.547516,593.993164   C452.117035,585.638794 452.063934,577.285706 452.089630,568.470398  z"/>
<path fill="#E1F2FB" opacity="1.000000" stroke="none" d=" M1026.228882,414.562500   C1025.775513,414.944427 1025.430054,414.954712 1024.606934,414.684448   C1024.129150,412.326874 1024.129150,410.249847 1024.129150,406.840607   C1021.698364,408.305481 1020.314148,409.139709 1018.929871,409.973877   C1018.929871,409.973877 1019.052185,409.943115 1019.090576,409.992035   C1018.760925,408.832001 1018.392944,407.623016 1018.008301,406.359253   C1020.589111,406.359253 1023.046692,406.359253 1025.839233,406.359253   C1023.805237,409.026306 1031.367798,410.961121 1026.228882,414.562500  z"/>
<path fill="#E1F2FB" opacity="1.000000" stroke="none" d=" M1026.098633,416.433044   C1026.014038,415.856415 1026.046143,415.583099 1026.052734,415.097778   C1026.135498,415.507965 1026.198120,416.124817 1026.098633,416.433044  z"/>
<path fill="#C2E0FD" opacity="1.000000" stroke="none" d=" M515.062195,567.068604   C518.992249,559.681702 522.839355,552.645630 526.964172,545.776367   C527.564514,544.776611 529.767944,543.788330 530.759155,544.135986   C535.524780,545.807617 538.812195,542.634644 542.737244,541.316467   C544.671143,540.667053 547.709045,541.156128 549.397949,542.340881   C553.951660,545.535095 558.669922,547.190308 564.249084,546.855225   C565.854980,546.758789 567.628296,547.596741 569.150146,548.356445   C571.991089,549.774658 574.692627,551.469788 577.479614,552.999939   C578.033936,553.304199 579.208557,553.299500 579.257263,553.581970   C580.123352,558.609009 584.512573,556.277344 587.152893,557.337524   C590.483582,568.460388 592.956238,569.372070 600.532288,562.377930   C606.259583,564.924438 606.705505,566.193604 602.175659,570.183533   C598.179199,573.703613 593.629089,576.603027 589.249695,579.671204   C588.661011,580.083679 587.520691,580.182434 586.838989,579.912842   C581.669739,577.868958 576.550720,575.697876 571.417847,573.562256   C571.116272,573.436829 570.773315,573.087891 570.544617,573.157043   C563.232361,575.369812 560.414795,568.110352 555.240234,565.828552   C554.260925,565.396729 553.609131,564.004517 553.030212,562.934326   C552.200928,561.401367 551.577759,559.756958 550.898438,558.231689   C550.047913,558.493774 549.490234,558.550110 549.469055,558.688538   C547.874817,569.108765 537.959839,565.598145 532.102417,568.735413   C528.535461,570.645935 523.781494,570.671143 519.537415,570.804199   C518.084045,570.849731 516.560181,568.648071 515.062195,567.068604  z"/>
<path fill="#DAEDFC" opacity="1.000000" stroke="none" d=" M936.992188,597.208374   C937.090027,598.737549 938.703674,600.218811 935.549133,601.286560   C931.731262,602.578735 932.171631,606.885254 933.545410,609.403381   C936.470093,614.764648 933.615723,615.001343 929.631287,615.036987   C928.867554,615.043884 928.106873,615.387390 926.803955,616.824768   C928.068237,617.546814 929.257080,618.515808 930.615234,618.930847   C932.486389,619.502625 934.613525,619.352661 936.382568,620.099915   C937.473206,620.560730 938.871948,622.170288 938.802124,623.171265   C938.516113,627.273315 937.719116,631.339661 936.995544,636.187561   C929.760742,635.081238 922.174805,634.462280 914.905334,632.604858   C910.605835,631.506226 906.803955,628.454590 902.783569,626.271545   C900.792053,625.190186 898.812317,624.087036 896.468140,622.985840   C891.358643,617.955933 886.608398,612.933777 881.998840,608.060486   C884.946472,603.049011 888.561340,600.641541 893.820312,600.797913   C894.728699,600.824951 895.984741,599.744812 896.554565,598.843811   C900.061279,593.298828 905.622803,592.424255 911.436218,591.979065   C912.577148,591.891663 914.011780,592.016113 914.790955,591.392761   C922.498108,585.227783 931.197205,588.560364 939.439575,589.185120   C936.030151,590.568115 932.730591,591.392944 929.628418,592.168457   C930.744263,595.883362 936.667114,592.209473 936.992188,597.208374  z"/>
<path fill="#161F2A" opacity="1.000000" stroke="none" d=" M937.332031,597.144897   C936.667114,592.209473 930.744263,595.883362 929.628418,592.168457   C932.730591,591.392944 936.030151,590.568115 939.688843,589.535889   C940.830200,588.997009 941.613831,588.668579 942.392944,588.329895   C942.489014,588.288147 942.561035,588.191040 942.644165,588.119507   C942.605774,588.166809 942.544922,588.209351 942.533508,588.262451   C942.505066,588.394653 942.499329,588.531677 942.615723,588.824646   C941.433167,590.529053 940.119263,592.075623 938.805359,593.622253   C938.981140,593.701782 939.156860,593.781372 939.332642,593.860962   C938.779053,594.934448 938.225525,596.007874 937.332031,597.144897  z"/>
<path fill="#D2E8FD" opacity="1.000000" stroke="none" d=" M789.105408,446.347534   C791.120483,446.647522 793.143127,447.317841 795.554077,447.981689   C794.928284,449.986176 793.914246,451.997162 792.311279,455.175873   C790.879333,451.389008 789.996155,449.053436 789.105408,446.347534  z"/>
<path fill="#D2E8FD" opacity="1.000000" stroke="none" d=" M887.994751,789.005371   C887.258545,788.960388 886.526855,788.910706 885.795105,788.861084   C885.818176,788.652771 885.841248,788.444458 885.864319,788.236206   C886.465698,788.328735 887.067139,788.421326 887.836914,788.753296   C888.005371,788.992615 887.999329,789.000793 887.994751,789.005371  z"/>
<path fill="#E1F2FB" opacity="1.000000" stroke="none" d=" M971.725830,612.885742   C972.920593,613.816895 974.847900,614.545471 975.172058,615.717529   C976.124573,619.160828 978.471252,619.202148 981.582458,619.001221   C982.000000,619.000000 981.997559,618.998352 981.997559,618.998352   C981.817444,620.443115 981.637329,621.887939 981.457214,623.332703   C981.780579,623.133057 982.103882,622.933411 982.427246,622.733765   C983.449585,624.202454 984.308105,625.837341 985.561157,627.071838   C986.218933,627.719971 987.567627,627.666992 989.208557,628.169556   C993.284180,630.304626 996.755615,632.200684 1000.564148,634.280823   C1000.569031,634.255249 1000.333740,635.482300 999.794617,638.293640   C1003.214417,636.808350 1005.566650,635.786682 1008.706116,634.423157   C1006.490356,632.881287 1005.548401,632.225830 1005.542603,632.221802   C1007.873169,628.986633 1010.029724,625.992920 1012.186340,622.999146   C1012.668335,622.891907 1013.254883,622.925415 1013.616943,622.656616   C1020.232239,617.744934 1026.209839,618.665894 1031.682617,625.131836   C1026.165649,627.339355 1020.643005,628.970337 1015.092590,630.609558   C1016.109375,634.970825 1024.324097,631.336121 1024.471191,639.144958   C1026.742310,637.477356 1029.842407,635.449402 1029.728149,635.248413   C1027.201904,630.804199 1032.227173,630.194214 1033.348511,627.721375   C1034.745728,628.059570 1036.142822,628.397827 1037.704346,628.775818   C1036.354370,631.551819 1035.059326,633.827454 1034.317871,636.271057   C1034.233032,636.550659 1037.474731,638.712097 1038.783691,638.394226   C1045.152344,636.847656 1045.105225,636.654114 1047.142212,643.059998   C1048.877319,648.516235 1048.877441,648.516174 1053.590576,648.802612   C1052.425781,650.375061 1051.790527,651.740234 1050.733521,652.565552   C1047.434814,655.141479 1043.846680,657.354126 1040.608398,659.998657   C1034.545654,664.949707 1028.836792,670.351990 1022.605835,675.071716   C1019.472473,677.445129 1015.549133,678.804810 1011.902466,680.443665   C1011.266479,680.729614 1010.229675,680.123901 1009.376831,679.929749   C1011.393127,677.098572 1013.200989,674.560059 1015.763733,670.961609   C1008.949524,667.265442 1002.622864,663.833679 995.565125,660.005371   C994.568970,658.573364 993.100464,655.878113 991.090210,653.677795   C983.864136,645.768372 974.063660,641.529297 965.248230,635.875854   C963.157166,634.534851 961.452393,632.591553 959.102295,630.511353   C965.867798,626.832336 973.932251,632.255981 979.347778,624.503845   C975.524719,622.663696 972.158081,620.219543 968.458069,619.507141   C965.132629,618.866882 963.630371,617.587708 963.395264,614.197449   C965.278442,614.776062 966.817444,615.743469 968.797363,616.987976   C969.694641,615.731079 970.710266,614.308411 971.725830,612.885742  z"/>
<path fill="#ADD4FD" opacity="1.000000" stroke="none" d=" M959.104370,611.901794   C959.325562,613.330200 959.546814,614.758606 959.795837,616.366638   C954.576904,618.023010 949.816772,619.322449 944.899170,615.753540   C943.810730,614.963562 941.345398,616.070679 938.677795,616.410889   C938.360657,612.224426 938.026489,607.813477 937.630493,602.585938   C945.394043,606.099121 951.795410,608.995850 958.593689,611.898315   C958.990662,611.904114 959.104370,611.901794 959.104370,611.901794  z"/>
<path fill="#161F2A" opacity="1.000000" stroke="none" d=" M992.593750,614.120361   C995.589722,613.136353 998.218933,612.256958 1000.843750,611.378967   C1001.029907,609.604309 1001.197571,608.005188 1001.327026,606.770996   C998.193237,605.586182 994.896179,604.339661 990.955627,602.849792   C998.459839,600.981873 1004.748535,599.416504 1011.315491,597.781799   C1010.376465,599.138672 1008.892456,600.509521 1008.433838,602.164490   C1007.980835,603.799011 1003.636963,604.420288 1006.966919,607.141846   C1007.077942,607.232605 1006.582764,608.581116 1006.137634,608.757874   C1000.898376,610.838623 997.269775,614.310913 996.895142,619.657471   C993.450500,617.958191 990.665588,616.584351 987.226624,614.887878   C989.440247,614.594421 990.833618,614.409668 992.593750,614.120361  z"/>
<path fill="#161F2A" opacity="1.000000" stroke="none" d=" M959.449036,612.052307   C959.104370,611.901794 958.990662,611.904114 959.024536,611.876404   C958.164001,610.197021 957.269653,608.545288 956.288330,606.733154   C959.475281,605.446106 963.752625,609.070862 966.179932,604.643433   C970.230225,607.210022 971.968201,601.796509 976.070557,602.231689   C974.617065,605.565186 973.183594,608.852783 971.738037,612.513062   C970.710266,614.308411 969.694641,615.731079 968.797363,616.987976   C966.817444,615.743469 965.278442,614.776062 963.368164,613.857178   C961.929138,613.338074 960.861389,612.770447 959.449036,612.052307  z"/>
<path fill="#161F2A" opacity="1.000000" stroke="none" d=" M1012.022583,622.702759   C1010.029724,625.992920 1007.873169,628.986633 1005.542603,632.221802   C1005.548401,632.225830 1006.490356,632.881287 1008.706116,634.423157   C1005.566650,635.786682 1003.214417,636.808350 999.794617,638.293640   C1000.333740,635.482300 1000.569031,634.255249 1000.564148,634.280823   C996.755615,632.200684 993.284180,630.304626 989.607300,628.135010   C990.161499,627.728333 990.927307,627.623047 991.679749,627.457520   C994.598633,626.815369 998.491638,630.542908 1000.432068,625.511536   C1005.340271,628.521912 1007.769836,622.410889 1012.022583,622.702759  z"/>
<path fill="#161F2A" opacity="1.000000" stroke="none" d=" M1033.484375,627.364624   C1032.227173,630.194214 1027.201904,630.804199 1029.728149,635.248413   C1029.842407,635.449402 1026.742310,637.477356 1024.471191,639.144958   C1024.324097,631.336121 1016.109375,634.970825 1015.092590,630.609558   C1020.643005,628.970337 1026.165649,627.339355 1031.866211,625.421265   C1032.569580,625.758789 1033.094849,626.383301 1033.484375,627.364624  z"/>
<path fill="#161F2A" opacity="1.000000" stroke="none" d=" M946.742310,574.019226   C949.176941,573.127808 951.298279,572.425537 953.407043,571.727417   C952.458679,574.269287 951.540771,577.090454 950.302856,579.763489   C950.033142,580.345764 948.278259,580.922668 947.787537,580.605225   C945.283447,578.985413 942.969666,577.071350 940.327698,575.061096   C942.359924,574.777039 944.394470,574.492737 946.742310,574.019226  z"/>
<path fill="#161F2A" opacity="1.000000" stroke="none" d=" M973.989258,588.389893   C973.813477,589.716614 973.877991,590.754578 973.942505,591.792480   C973.282349,591.228577 972.668579,590.593811 971.948364,590.121582   C971.296326,589.694153 970.555603,589.345398 969.805420,589.135681   C968.174622,588.679871 966.512817,588.334900 964.954956,586.996277   C969.005737,586.047607 973.056458,585.098999 977.857239,583.974731   C977.086304,585.222229 976.741089,586.007385 976.192078,586.605286   C975.644287,587.201599 974.892212,587.610229 973.989258,588.389893  z"/>
<path fill="#ADD4FD" opacity="1.000000" stroke="none" d=" M926.005188,840.994751   C926.445129,841.115295 926.880493,841.240234 927.315918,841.365173   C926.957764,841.384888 926.599548,841.404602 926.117920,841.215820   C925.994507,841.007324 926.000671,840.999268 926.005188,840.994751  z"/>
<path fill="#E1F2FB" opacity="1.000000" stroke="none" d=" M982.000854,619.001221   C982.092529,618.965881 982.183411,618.929382 982.135986,618.945618   C981.997559,618.998352 982.000000,619.000000 982.000854,619.001221  z"/>
<path fill="#E1F2FB" opacity="1.000000" stroke="none" d=" M980.529785,616.550110   C980.475525,616.582581 980.584106,616.517639 980.529785,616.550110  z"/>
<path fill="#D2E8FD" opacity="1.000000" stroke="none" d=" M932.994690,390.004028   C932.868225,389.854889 932.747131,389.701508 932.625977,389.548126   C932.717712,389.598267 932.809509,389.648407 932.954956,389.843628   C933.008728,389.988708 933.000000,389.999786 932.994690,390.004028  z"/>
</svg>
